<?xml version="1.0" standalone="no"?>
<!DOCTYPE svg PUBLIC "-//W3C//DTD SVG 1.1//EN" "http://www.w3.org/Graphics/SVG/1.1/DTD/svg11.dtd" >
<svg xmlns="http://www.w3.org/2000/svg">
<metadata></metadata>
<defs>
<font id="parfumerie_script_decorativRg" horiz-adv-x="538" >
<font-face units-per-em="2048" ascent="1536" descent="-512" />
<missing-glyph horiz-adv-x="368" />
<glyph horiz-adv-x="2048" />
<glyph horiz-adv-x="2048" />
<glyph unicode="&#xd;" horiz-adv-x="2048" />
<glyph unicode=" "  horiz-adv-x="368" />
<glyph unicode="&#x09;" horiz-adv-x="368" />
<glyph unicode="&#xa0;" horiz-adv-x="368" />
<glyph unicode="!" horiz-adv-x="735" d="M24 23q12 41 40 54l14 3q12 0 21.5 -7t9.5 -16q0 -18 -31 -42.5t-49 -24.5q-16 0 -5 33zM109 161q3 4 6 5q22 0 51.5 32t63 86.5t74 124.5t88.5 148t102 156t118.5 148t133.5 124.5t152.5 86.5t170.5 32q115 0 159 -82q38 -70 5 -152q-33 -83 -117 -116q-40 -15 -86 -15 q-81 0 -109.5 61t10 122t122.5 61q3 0 4 -2t0 -4t-4 -2q-79 0 -115.5 -56.5t-9.5 -112.5t102 -56q111 0 170 83q47 68 31 143q-17 76 -91 100q-26 9 -59 9q-91 0 -183 -51.5t-169.5 -133.5t-152.5 -181t-140 -198.5t-121.5 -181.5t-109 -133.5t-92.5 -51.5q-6 0 -4 7z" />
<glyph unicode="&#x22;" horiz-adv-x="485" d="M164 614v2q33 0 63.5 36t30.5 83q0 14 -3 23t-6 12l-3 2q8 23 33 23q13 0 22.5 -9.5t9.5 -23.5q0 -42 -48 -98t-93 -56q-3 0 -4.5 2t-1.5 4zM287 614v2q33 0 63.5 36t30.5 83q0 14 -3 23t-6 12l-3 2q7 23 32 23q13 0 23 -9.5t10 -23.5q0 -42 -48 -98t-93 -56q-3 0 -4.5 2 t-1.5 4z" />
<glyph unicode="#" horiz-adv-x="737" d="M0.5 247q-2.5 5 0.5 10t11 5l172 -2l82 143h-141q-7 0 -9.5 5.5t1 10.5t10.5 5l149 -2l119 209h4q5 -4 21 -4q14 0 28 6.5t22 12.5l7 7h6q-41 -36 -168 -231l199 -2l133 233h4q5 -4 21 -4q14 0 28 6.5t22 13.5l7 7h6q-35 -30 -184 -256l186 -2v-8l-194 -4 q-56 -82 -97 -148l177 -2v-8l-183 -2l-155 -252h-13l144 252l-215 -2l-168 -273h-13l154 273l-164 -2q-7 0 -9.5 5zM211 260l211 -2l84 148l-203 -3z" />
<glyph unicode="$" horiz-adv-x="477" d="M-66 42q-21 51 5 98q22 40 61 40q15 0 25 -10t10 -25q-3 -1 -7 -2.5t-15 -9t-19.5 -17t-15.5 -26.5t-7 -37q0 -32 25.5 -50.5t66.5 -18.5h7l159 321q-28 98 -28 156q0 81 55 129t137 51l45 88q4 8 10.5 8.5t10.5 -5t0 -13.5l-41 -78q74 -6 94 -63q15 -44 -10 -78 q-15 -21 -39 -21q-13 0 -24 10.5t-11 24.5q5 1 11.5 4.5t18 18t11.5 34.5q0 52 -55 58l-133 -260q2 -7 8 -26.5t8 -28t6.5 -26t6.5 -29t3.5 -27.5t1.5 -31q0 -93 -62.5 -156.5t-172.5 -69.5l-53 -108h-15l51 106h-4q-95 0 -125 69zM86 -14q80 6 124 52t44 114q0 62 -18 129z M260 508q0 -64 12 -113l117 236q-61 -2 -95 -33.5t-34 -89.5z" />
<glyph unicode="%" horiz-adv-x="899" d="M100 313q0 58 45.5 126t108 113.5t108.5 45.5q-2 -10 -10 -10q-36 0 -84 -52.5t-82 -124t-34 -122.5q0 -39 32 -39q44 0 98 62.5t89 140.5t35 125q0 38 -29 38q-5 0 -1 7q4 5 11 6q6 0 47 -15.5t90 -15.5q95 0 185 121h4q12 -4 20 -4q14 0 28.5 6.5t22.5 12.5l7 7h6 q-36 -31 -199.5 -244.5t-309.5 -411.5l-145 -198h-12l526 758q-61 -57 -139 -57q-44 0 -74 10q13 -20 13 -41q0 -55 -46.5 -130.5t-115.5 -132t-125 -56.5q-34 0 -52 20t-18 55zM418 53q0 57 45.5 124.5t108 113t108.5 45.5q-2 -10 -10 -10q-36 0 -84 -51.5t-82.5 -123 t-34.5 -122.5q0 -41 33 -41q44 0 97.5 62.5t88.5 140t35 124.5q0 41 -29 41q-5 0 -1 6q4 5 12 5q35 0 52 -20t17 -52q0 -54 -46.5 -129.5t-115.5 -132t-125 -56.5q-33 0 -51 20t-18 56z" />
<glyph unicode="&#x26;" horiz-adv-x="1368" d="M-508 -492q13 146 112 250q110 117 275 117q99 0 162 -50.5t73.5 -122.5t-9 -143.5t-85.5 -122t-155 -50.5q-43 0 -74.5 15.5t-46.5 40t-21 54.5t3.5 60t27 54.5t48 40t67.5 15.5q15 0 26 -11.5t11 -25.5q0 -15 -11 -26t-26 -11q0 4 -2 10t-14.5 15.5t-32.5 9.5 q-52 0 -77 -54q-26 -57 0 -112q32 -67 122 -67q86 0 149 48.5t81.5 118t8.5 139.5t-70.5 118.5t-154.5 48.5q-158 0 -263 -121q-92 -106 -100 -249q-8 -156 90 -262q120 -130 357 -130q141 0 262.5 48t203 129.5t127.5 188.5t46 224q0 165 -104 418q-153 -140 -265 -140 q-73 0 -114 35t-41 88q0 25 8.5 48t28.5 46t38 40.5t52 40t55 36t62 37.5t59 35q-23 64 -23 100q0 69 39.5 115.5t116.5 46.5q35 0 58.5 -17.5t23.5 -43.5q0 -49 -45.5 -93.5t-132.5 -99.5q17 -36 62 -112.5t61 -104.5q43 43 117.5 123.5t127 136.5t128.5 125t140.5 111.5 t144 72t155.5 29.5q158 0 228 -114q58 -95 29 -221q-29 -127 -128 -200q-84 -63 -195 -63q-80 0 -129 39.5t-54 96t12.5 112.5t68 95.5t114.5 39.5q58 0 77.5 -41.5t-6.5 -83t-81 -41.5q-15 0 -26 11t-11 26q0 14 11 25.5t26 11.5q0 -4 1.5 -10t10.5 -16.5t25 -10.5 q33 0 45 35q12 38 -15 65q-21 21 -57 21q-62 0 -110 -38t-65 -92t-12 -107.5t51.5 -91.5t123.5 -38q151 0 245 115q77 96 76 217q0 125 -84 194q-67 54 -171 54q-75 0 -152.5 -29.5t-141.5 -72.5t-139 -111t-128 -125t-127 -136t-119 -124q129 -226 129 -416 q0 -132 -57.5 -253t-154.5 -209t-232.5 -140.5t-284.5 -52.5q-255 0 -377 149q-93 113 -78 270zM117 86q0 -46 29 -74t87 -28q106 0 259 139q-17 41 -54.5 124t-52.5 120q-46 -29 -66 -41.5t-59.5 -40t-58.5 -46t-42 -45t-32.5 -53.5t-9.5 -55zM387 496q0 -40 27 -99 q74 47 112.5 88.5t38.5 89.5q0 56 -57 56q-59 0 -90 -39.5t-31 -95.5z" />
<glyph unicode="'" horiz-adv-x="565" d="M481 614v2q33 0 63.5 36t30.5 83q0 14 -3 23t-6 12l-3 2q8 23 33 23q14 0 23.5 -9.5t9.5 -23.5q0 -42 -48.5 -98t-93.5 -56q-3 0 -4.5 2t-1.5 4z" />
<glyph unicode="(" horiz-adv-x="505" d="M121 27q0 179 56.5 366.5t152 351t225 309.5t272 250.5t297 165t295.5 60.5q5 0 7 -3.5t0 -7t-7 -3.5q-140 0 -293.5 -70t-292.5 -187t-266.5 -276.5t-220.5 -332.5t-148 -360.5t-55 -355.5q0 -86 23 -180q1 -5 -1 -7.5t-5 -1t-4 6.5q-35 137 -35 275z" />
<glyph unicode=")" horiz-adv-x="604" d="M-369 -239.5q2 3.5 7 3.5q140 0 284 62t271.5 169.5t241 258.5t195 323.5t128.5 370.5t47 393q0 99 -14 185q0 5 2 7.5t4.5 1t3.5 -6.5q28 -137 28 -322q0 -193 -49 -382.5t-133 -348t-199.5 -294.5t-246.5 -230t-276.5 -147.5t-286.5 -53.5q-5 0 -7 3.5t0 7z" />
<glyph unicode="*" horiz-adv-x="550" d="M240 641q0 16 12 27.5t31 11.5q27 0 61 -21.5t55 -50.5q7 2 15 10q-31 39 -31 103q0 27 11 44t32 17q41 0 41 -59q0 -68 -33 -107l15 -10q22 29 58.5 47.5t63.5 18.5q19 0 30 -11.5t11 -27.5q0 -22 -25 -37.5t-77 -15.5q-28 0 -55 10l-6 -19q36 -11 69 -46.5t33 -65.5 q0 -17 -9.5 -27t-23.5 -10q-33 0 -59.5 45t-26.5 86v8h-14q-2 -46 -30.5 -90.5t-57.5 -44.5q-17 0 -28 11.5t-11 23.5q0 31 35 66t75 44q0 10 -6 19q-18 -6 -41 -6q-52 0 -83 17t-31 40zM254 641q0 -16 27.5 -29.5t72.5 -13.5q13 0 33 4q-21 26 -51.5 46t-52.5 20 q-13 0 -21 -8.5t-8 -18.5zM305 461q0 -9 7 -15t16 -6q22 0 47 39t28 78q-35 -9 -66.5 -39t-31.5 -57zM397 721q0 -60 27 -94q29 33 29 96q0 45 -27 45q-29 0 -29 -47zM408 596q8 -12 8 -21h18l8 21q-12 8 -16 12q-9 -9 -18 -12zM446 553q0 -37 23.5 -78t46.5 -41 q8 0 15.5 7.5t7.5 17.5q0 22 -30 55t-63 43v-4zM461 600q19 -8 49 -8q40 0 64 11t24 30q0 24 -27 24q-23 0 -56.5 -15.5t-53.5 -41.5z" />
<glyph unicode="+" horiz-adv-x="462" d="M19.5 263q-2.5 5 1 10.5t10.5 5.5l184 -5l111 197h4q4 -4 14 -4t20.5 4.5t15.5 8.5l5 5h6q-45 -40 -151 -211l200 -2v-8l-211 -4l-147 -248h-14l139 248l-178 -2q-7 0 -9.5 5z" />
<glyph unicode="," horiz-adv-x="135" d="M-102 -96q46 0 90.5 36.5t44.5 84.5q0 12 -2.5 20t-4.5 10l-3 2q7 23 32 23q13 0 23 -10t10 -23q0 -44 -63.5 -97.5t-120.5 -53.5q-3 0 -4.5 2t-1.5 4v2z" />
<glyph unicode="-" horiz-adv-x="409" d="M37 195q6 6 16 15.5t40.5 25.5t60.5 16t69.5 -7t67.5 -7q19 0 34.5 3.5t20.5 6.5l6 4h13q-5 -7 -15 -17.5t-44 -28.5t-70 -18q-26 0 -65 9.5t-65 9.5q-16 0 -30.5 -3t-20.5 -6l-6 -3h-12z" />
<glyph unicode="." horiz-adv-x="247" d="M3 23q12 41 40 54q7 3 14 3q12 0 21.5 -7t9.5 -16q0 -18 -31 -42.5t-49 -24.5q-16 0 -5 33z" />
<glyph unicode="/" horiz-adv-x="634" d="M-66 -231l881 1269h4q6 -4 29 -4q18 0 40 7t35 13l13 7h6q-49 -35 -297.5 -358t-472.5 -629l-223 -305h-15z" />
<glyph unicode="0" horiz-adv-x="534" d="M-2 115q0 73 45 157.5t113 153.5q25 88 103.5 143.5t158.5 55.5q59 0 88 -32.5t29 -88.5q0 -90 -68.5 -210t-173.5 -209t-197 -89q-44 0 -71 33t-27 86zM59 78q0 -68 56 -68q59 0 125 55.5t115.5 134.5t82.5 166.5t33 149.5q0 43 -19 68.5t-57 25.5q-60 0 -127 -47 t-96 -119q102 95 166 95q3 0 3 -5.5t-3 -5.5q-39 0 -88.5 -46.5t-93.5 -119.5v-4q0 -69 59 -69q3 0 4 -2t0 -4t-4 -2q-63 0 -70 65q-86 -151 -86 -268z" />
<glyph unicode="1" horiz-adv-x="446" d="M23 -66q0 50 133 247.5t260 334.5q-46 -18 -62.5 -24.5t-60 -24.5t-63 -29t-54 -30.5t-51.5 -36t-36.5 -38.5t-27.5 -45.5t-8 -49.5q0 -18 10 -31q4 -4 -1 -5q-2 0 -3 1q-26 22 -26 59q0 28 12.5 54t46.5 51t56.5 41t79.5 41t75.5 32.5t83.5 32.5q28 11 41 16 q103 111 145 111q17 0 17 -18q0 -23 -36 -44.5t-108 -50.5q-94 -113 -185 -278t-91 -223h-4q-54 0 -94.5 -36.5t-40.5 -56.5q0 -3 -4 -3t-4 3zM457 541q123 50 123 82q0 8 -11 8q-36 0 -112 -90z" />
<glyph unicode="2" horiz-adv-x="581" d="M-119 -16q20 39 62 73.5t80 55.5t112 57q96 47 167.5 97.5t107 88.5t56.5 76.5t25.5 58t4.5 35.5q0 97 -105 97q-116 0 -181 -88q-49 -65 -41 -130q7 -56 54 -62q5 -1 10 -1q68 0 111 62q33 48 22 83q-7 21 -30 21q-4 0 -4 5t4 5q38 0 40 -41q3 -49 -39 -96 q-46 -53 -114 -53q-57 0 -69 57q-14 62 32 135q60 94 168 116q27 5 56 5q66 0 106.5 -36t40.5 -95q0 -45 -26 -88t-64.5 -75.5t-96.5 -67.5t-109.5 -60t-117.5 -57.5t-106 -55.5q20 5 29 5q27 0 53 -15t45.5 -38t42.5 -49.5t44.5 -49.5t52 -38t63.5 -15q94 0 142 81 q35 60 22 117q-11 46 -50 46q-5 0 -5 5t5 5q45 0 59 -52q16 -62 -24 -129q-54 -92 -169 -104q-15 -2 -32 -2q-44 0 -81 20t-62.5 48.5t-49 56.5t-51.5 48t-59 20q-33 0 -64 -22t-52 -62q-8 -14 -15 -9q-5 3 0 11z" />
<glyph unicode="3" horiz-adv-x="475" d="M-599 -157q25 68 82 89q18 7 38 7q3 0 3 -4.5t-3 -4.5q-63 0 -100 -61q-40 -65 -17 -136q29 -89 143 -116q43 -10 95 -10q130 0 243.5 46t189.5 117.5t131.5 159t79 170t22.5 150t-29 100.5q-67 -28 -113 -28q-21 0 -23 17q-2 22 32 35q22 9 54 9q37 0 60 -10 q57 35 95 83.5t38 96.5q0 35 -20 56.5t-62 21.5q-97 0 -142 -68q-32 -47 -16 -88q11 -31 45 -31q58 0 86 53q19 37 6 57q-4 7 -12 7q-3 0 -3 3t3 3q23 0 23 -32q0 -42 -37 -74q-31 -25 -74 -25q-47 0 -55 44q-8 50 35 100q57 64 151 65q65 0 96 -26.5t31 -71.5 q0 -50 -48 -98t-120 -84q78 -44 68 -169q-10 -137 -116 -283q-129 -181 -328 -263q-135 -56 -283 -56q-174 0 -235 100q-42 69 -14 149zM154 349q-8 -15 8 -18q3 -1 6 -1q40 0 98 30q-18 15 -43 15q-55 0 -69 -26z" />
<glyph unicode="4" horiz-adv-x="487" d="M-158 49q-4 21 24 33q14 6 34 6q38 0 73 -12q107 69 201 220t94 261q0 45 -20.5 76t-54.5 31q-7 0 1 3q12 5 33 5q42 0 68.5 -24.5t26.5 -67.5q0 -101 -108.5 -265.5t-225.5 -242.5q5 -2 24 -8t27.5 -9t26.5 -8t31 -7.5t31 -5t36 -3.5q93 149 182 247.5t150 98.5 q6 0 2 -6q-3 -4 -6 -4q-55 0 -128.5 -98t-140.5 -236q28 3 52.5 12t39.5 20t26.5 21t16.5 16l4 7h17q-2 -3 -5.5 -8t-17.5 -18.5t-31 -24.5t-45.5 -21.5t-60.5 -13.5q-82 -178 -82 -246h-4q-52 0 -89.5 -35.5t-37.5 -56.5q0 -3 -4 -3t-4 3q0 31 46.5 128t113.5 207 q-27 2 -55 7.5t-45.5 10.5t-45 13.5t-37.5 11.5q-52 -34 -102 -34q-27 0 -31 20zM-145 59q-4 -14 12 -17q3 -1 6 -1q34 0 86 27q-33 10 -59 10q-38 0 -45 -19z" />
<glyph unicode="5" horiz-adv-x="491" d="M-581 -157q25 68 82 89q18 7 38 7q3 0 3 -4.5t-3 -4.5q-63 0 -100 -61q-40 -65 -17 -136q29 -89 143 -116q43 -10 95 -10q104 0 198.5 30t165.5 80.5t129.5 115.5t95.5 136t57 140.5t20 130.5q0 88 -35.5 134t-102.5 46q-24 0 -34 -2q-58 -86 -101 -86q-21 0 -14 22 q10 30 56 53q22 10 48 15q35 56 59 113t33.5 80.5t20.5 23.5q9 0 24.5 -11.5t32.5 -25.5t47 -25.5t64 -11.5q85 0 117 63q24 48 1 90q-17 34 -55 34q-3 0 -3 2t3 2q52 0 70 -50q18 -54 -18 -108q-50 -76 -166 -76q-82 0 -142 47q-37 -88 -73 -143q12 2 37 2 q101 0 151.5 -57.5t50.5 -153.5q0 -73 -32.5 -157.5t-97 -166.5t-150.5 -149t-203.5 -108.5t-245.5 -41.5q-174 0 -235 100q-42 69 -14 149zM53 363q-12 -20 2 -21q35 0 82 72q-59 -14 -84 -51z" />
<glyph unicode="6" horiz-adv-x="505" d="M0 94q0 64 39.5 151t106 179t159.5 182t194.5 160.5t217.5 114t221 43.5q96 0 144 -46t48 -114q0 -7 -6 -7q-4 0 -4 3q0 67 -44 110t-138 43q-101 0 -212 -48.5t-206 -125t-183 -172.5t-149.5 -190t-98 -177.5t-36.5 -136.5q0 -79 66 -79q68 0 137 64.5t109.5 144 t40.5 133.5q0 34 -11 48.5t-41 14.5q-45 0 -88.5 -27.5t-73 -66.5t-47.5 -79.5t-18 -68.5q0 -3 -4 -3t-4 3q0 41 30.5 99t89.5 106.5t123 48.5q52 0 76.5 -26t24.5 -70q0 -46 -30 -103.5t-78 -107.5t-115.5 -84.5t-133.5 -34.5q-106 0 -106 119z" />
<glyph unicode="7" horiz-adv-x="425" d="M-166 -250q0 86 70.5 208t175 239t214 218t198.5 165q-122 -62 -224 -62q-68 0 -90 40t7.5 80t88.5 40q4 0 6 -1t2 -2l1 -1q-42 0 -61 -32q-20 -32 9 -56q26 -21 84 -21q60 0 123.5 19t109.5 38t64 19q2 0 2 -2.5t-1.5 -5t-2.5 -2.5q-37 0 -123.5 -69.5t-187.5 -181 t-195 -235.5t-156.5 -249.5t-62.5 -206.5q0 -38 18.5 -60t49.5 -22q2 -8 -6 -8q-46 0 -79.5 41.5t-33.5 109.5z" />
<glyph unicode="8" horiz-adv-x="514" d="M-10 102q0 43 20 78t61.5 63t77.5 46.5t95 43.5q6 2 9 3.5t8 3.5t9 4q-53 90 -53 176q0 128 82.5 215.5t214.5 87.5q82 0 121 -45t31 -106q-2 -2 -5.5 -2t-3.5 2q8 56 -27.5 98.5t-107.5 42.5q-124 0 -189 -70t-65 -174q0 -39 11 -77.5t22.5 -60.5t32.5 -58 q78 39 120 81.5t42 104.5q0 34 -21.5 53t-60.5 19q-41 0 -66.5 -20t-30.5 -48q0 -5 -4.5 -3.5t-3.5 5.5q5 31 35 53.5t86 22.5q53 0 84 -22t31 -58q0 -34 -15.5 -63.5t-48.5 -54t-63.5 -41.5t-79.5 -40q24 -36 35 -54.5t22 -49t11 -59.5q0 -98 -65 -162t-183 -64 q-74 0 -121 34t-47 95zM47 86q0 -47 33.5 -74.5t89.5 -27.5q89 0 132.5 45t43.5 123q0 11 -1.5 22t-2.5 19.5t-5 20t-5.5 17.5t-7.5 18.5t-8 16.5t-10 17.5t-9 16t-10.5 18t-10.5 16.5q-53 -26 -87 -46t-70 -50.5t-54 -68t-18 -83.5z" />
<glyph unicode="9" horiz-adv-x="520" d="M-706 -157q25 68 82 89q18 7 38 7q4 0 7 -2.5t3 -4.5l1 -2q-55 0 -94 -60q-42 -66 -25 -137q23 -90 137 -116q41 -10 92 -10q286 0 554 245q187 172 307 404q98 188 93 301q-5 81 -65 82q-93 0 -179 -113q-70 -92 -87 -187q-15 -87 33 -98q6 -1 12 -1q61 0 113.5 44 t79 98.5t26.5 98.5q0 6 5 6t5 -6q0 -78 -72 -167t-170 -89q-80 0 -90 75q-11 77 50 177q67 109 167 153q49 21 99 21q102 0 118 -105q18 -120 -77 -309q-108 -217 -298 -386q-261 -232 -556 -255q-30 -2 -60 -2q-174 0 -235 100q-42 69 -14 149z" />
<glyph unicode=":" horiz-adv-x="331" d="M3 23q12 41 40 54q7 3 14 3q12 0 21.5 -7t9.5 -16q0 -18 -31 -42.5t-49 -24.5q-16 0 -5 33zM165 287q12 41 40 54q7 3 14 3q12 0 21.5 -6.5t9.5 -15.5q0 -18 -31 -43t-49 -25q-16 0 -5 33z" />
<glyph unicode=";" horiz-adv-x="331" d="M-102 -96q0 -8 6 -8q57 0 120.5 53.5t63.5 97.5q0 13 -10 23t-23 10q-11 0 -19 -6t-10 -12l-3 -5q10 -5 10 -32q0 -48 -44.5 -84.5t-90.5 -36.5zM165 287q12 41 40 54q7 3 14 3q12 0 21.5 -6.5t9.5 -15.5q0 -18 -31 -43t-49 -25q-16 0 -5 33z" />
<glyph unicode="&#x3c;" horiz-adv-x="606" d="M85.5 310q-5.5 6 0 12t20.5 10q197 58 276 91q148 62 169 124q2 5 5.5 7.5t5.5 2.5h3q-12 -38 -57.5 -76t-101.5 -65t-110.5 -48t-91.5 -32l-36 -10q5 -1 14 -3.5t35 -13t49 -24t52 -37t49.5 -51.5t34.5 -69t14 -87q-15 0 -15 8q0 55 -20.5 98.5t-49 68t-70 42.5 t-72 25.5t-66.5 14.5q-12 2 -17 3q-15 3 -20.5 9z" />
<glyph unicode="=" horiz-adv-x="536" d="M17.5 206q-2.5 5 1 10t10.5 5l409 -6v-8l-411 -6q-7 0 -9.5 5zM74.5 308.5q-2.5 5.5 1 10.5t10.5 5l410 -7v-8l-412 -6q-7 0 -9.5 5.5z" />
<glyph unicode="&#x3e;" horiz-adv-x="620" d="M41 37q14 49 61.5 94t106 75t114.5 53t94 33l38 11q-10 2 -26.5 7t-59 24.5t-75 44.5t-59 70t-26.5 98q12 0 12 -8q0 -23 6.5 -44t15 -37t25.5 -31t30 -25.5t37 -21t37.5 -16t40.5 -12.5t37 -9.5t36.5 -8t29.5 -6.5q14 -3 19.5 -9t0 -12t-19.5 -10l-43 -12 q-43 -12 -57.5 -17t-59.5 -19t-67.5 -24t-61.5 -27t-61.5 -32.5t-48.5 -34.5t-41 -40.5t-21 -43.5q-1 -5 -4.5 -7.5t-6.5 -2.5h-3z" />
<glyph unicode="?" horiz-adv-x="935" d="M44 23q12 41 40 54l14 3q12 0 21.5 -7t9.5 -16q0 -18 -31 -42.5t-49 -24.5q-16 0 -5 33zM133 182q0 39 41 79t106 78t144 80.5t158.5 94.5t144.5 111t106 138.5t41 168.5q0 82 -54.5 133t-151.5 51q-177 0 -285 -128q-79 -94 -86 -208q-5 -102 52 -146q30 -22 71 -22 q123 0 201 98q56 71 54 144q-1 63 -49 73q-6 1 -14 1q-4 0 -4 6t4 6q59 0 72 -60q14 -68 -34 -148q-60 -100 -170 -129q-36 -9 -74 -9q-94 0 -126 85q-32 86 14 199q51 129 171 199q99 58 223 58q111 0 179.5 -62.5t68.5 -157.5q0 -87 -43 -164t-111 -133.5t-151 -107 t-166 -92.5t-151 -80t-111 -79.5t-43 -82.5q0 -15 13.5 -25t37.5 -10q-4 -8 -14 -8q-28 0 -46 12.5t-18 36.5z" />
<glyph unicode="@" horiz-adv-x="1013" d="M102 289q47 146 179 248q162 125 383 125q168 0 235 -116q50 -89 22 -200q-26 -99 -96 -143q-38 -23 -80 -23l-28 4q-41 -59 -107 -59q-37 0 -55 19.5t-18 52.5q0 43 22 92h-6q-53 -65 -97 -103.5t-83 -38.5q-35 0 -53.5 22t-18.5 52q0 52 51.5 114.5t120.5 104t119 41.5 q33 0 33 -30q0 -16 -11.5 -35.5t-31.5 -32.5q-3 -2 -5.5 -1t-3.5 3.5t0 3.5q19 12 31 29t12 31q0 16 -18 16q-40 0 -100 -52.5t-104 -119t-44 -103.5q0 -30 27 -30q34 0 82.5 43t88 95t77.5 95t53 43q23 0 44 11t30 21l10 11h10q-9 -8 -23 -22.5t-51 -55.5t-65 -77t-51 -77 t-23 -67q0 -45 51 -45q62 0 97 55q-15 8 -24.5 22t-11.5 29.5t1 29.5t13 23t24 9q30 0 33 -36t-21 -74q10 -5 24 -5q78 0 126 83q48 84 31 185q-18 116 -115 166q-57 29 -132 29q-218 0 -368 -147q-113 -111 -143 -257q-28 -138 37 -223q58 -75 173 -75q103 0 165.5 49 t62.5 86q0 3 4 3t4 -3q0 -42 -67 -93.5t-177 -51.5q-168 0 -232 113q-57 99 -12 237zM682 233q8 -24 29 -36q22 34 21 66t-23 32q-19 0 -27 -19t0 -43z" />
<glyph unicode="A" horiz-adv-x="1773" d="M-34 531q-5 15 -5 29q0 28 21 55q31 38 88 38q65 0 102 -63q7 24 35 24q11 0 20.5 -6.5t12.5 -15.5q71 181 236 298.5t355 117.5q84 0 146 -23.5t98 -65t53 -92t17 -110.5q0 -129 -45.5 -246.5t-119 -199.5t-168 -130.5t-191.5 -48.5q-90 0 -111 48q-13 30 7 50q9 9 22 9 q16 0 23 -9t7 -20q-3 0 -7.5 -0.5t-11.5 -7.5t-7 -21q0 -19 21.5 -30t56.5 -11q163 0 306.5 131t188.5 332q-45 -119 -137 -204t-170 -85q-25 0 -37 11t-4 24q-16 -2 -47 -2q-123 1 -161 97q-15 38 -15 76q0 58 35 116q58 96 168 96q65 0 86 -46q9 -20 9 -40q0 -28 -17 -54 q-29 -46 -87 -46q-16 0 -26.5 11.5t-10.5 25.5q0 13 9.5 25t27.5 12q0 -4 2 -10t11 -15.5t24 -9.5q35 0 49 38q6 15 6 28q0 24 -18 44q-22 25 -65 25q-103 0 -159 -90q-34 -55 -34 -110q-1 -34 13 -70q36 -90 153 -91q109 0 203 50.5t151.5 143t57.5 204.5q0 58 -16 106 t-50 87.5t-94.5 62t-141.5 22.5q-159 0 -301.5 -83.5t-229.5 -225.5t-87 -303q0 -208 137 -320q-46 45 -72.5 109t-31.5 134q-1 18 -1 36q0 54 11 112q15 76 47 148t84 136.5t117 112.5t150.5 76.5t179.5 28.5q3 0 4 -2t0 -4t-4 -2q-233 0 -396 -166q-131 -131 -170 -316 q-14 -65 -14 -123q0 -105 45 -191q76 -148 257 -166q23 -2 48 -2q175 0 349.5 101t373.5 329l57 65h-127q3 1 3 6t-3 7h138q456 516 719 694q-98 16 -136 16q-81 -92 -127 -92q-22 0 -22 20q0 26 43 53t102 27l45 52q-44 2 -95 20t-100 42t-100 47.5t-111.5 39.5t-117.5 16 q-194 0 -306 -127q-86 -97 -88 -222v-6q0 -115 76 -182q63 -56 162 -56q139 0 222 106q61 79 61 172v14q-4 96 -73 136q-34 20 -81 20q-116 0 -173 -90q-32 -50 -32 -102q0 -17 4 -34q12 -58 57 -66l13 -1q16 0 25 7.5t10 15.5l2 8q13 0 21 -9t8 -20q0 -12 -8 -21t-21 -9 q-81 0 -109 70q-11 28 -11 57q0 41 21 85q40 86 130 111q30 8 63 8q104 0 145 -88q20 -42 19 -90q0 -45 -17 -96q-39 -110 -137 -162q-63 -33 -139 -33q-142 0 -208 106q-39 63 -39 140q0 37 9 77q29 132 138 213q106 79 256 79q71 0 149.5 -25.5t136 -56.5t126 -57 t121.5 -27q39 42 69.5 65t59.5 23q25 0 25 -22q-1 -29 -44 -52q-42 -24 -106 -24h-2l-45 -52q76 -4 143 -14q162 109 280 109q38 0 60 -18.5t20 -43.5q86 -17 111 -95q9 -28 10 -55q0 -48 -28 -96q-49 -86 -147 -103q-19 -3 -40 -3q-61 0 -99 30t-38 70q0 12 6 20.5t12.5 9 t12.5 -4.5q8 40 37.5 67t76.5 27q15 0 25 -9t10 -22q0 -10 -9 -19t-20 -9q-10 26 -43 26q-30 0 -49.5 -26t-19.5 -64q0 -36 26.5 -61t71.5 -25q105 0 163 82q37 52 37 108q0 17 -4 35q-16 77 -91 101q-7 2 -15 4q-12 -29 -55 -48.5t-117 -19.5h-37q-56 -44 -126.5 -124 t-123.5 -151t-144.5 -197t-143.5 -195q-190 -249 -338 -371q35 -12 80 -12v-4q-52 0 -109 -54q62 -43 121 -43q32 0 73 23t76.5 55.5t66.5 64.5t49 55l18 23h14q-7 -9 -19.5 -25t-49.5 -56t-71.5 -71t-78.5 -56t-78 -25q-53 0 -129 47q-45 -42 -45 -70h-2q-14 27 -64 50 q-66 -27 -108 -27q-39 0 -52 16.5t4 33t50 16.5q49 0 104 -25q35 21 60 41q-30 20 -54 20q-3 0 -3 2t3 2q16 0 48.5 28t31.5 46h2q6 -24 33 -41q77 81 242 315q12 17 18 25h-229l-62 -69q-202 -232 -379.5 -335.5t-355.5 -103.5q-104 0 -183.5 27t-125.5 72t-77 100 t-45.5 115.5t-24 112t-19.5 97t-25 64.5q12 -24 -3 -51t-52 -27q-64 0 -83 50zM-5 589q-9 -19 -9 -36q0 -20 12 -37q17 -24 51 -24q37 0 46 27q6 17 -6 21q-1 1 -3 1q-7 0 -10.5 -5.5t-3.5 -10.5v-5q-19 0 -26.5 15t0.5 30t26 15q33 0 52 -33t26.5 -84.5t22 -116.5 t34.5 -126t68.5 -116.5t119.5 -85.5q-94 51 -144 145.5t-50 219.5q0 31 -4 65.5t-15 81.5t-38 77t-66 30q-60 0 -83 -48zM1102 23q10 -11 41 -11q41 0 92 23q-48 20 -90 20q-25 -1 -39 -11q-8 -6 -8 -12q0 -5 4 -9zM1266 33q24 -12 45 -33q6 22 41 53l-23 17 q-51 -31 -63 -37zM1278 106q20 -3 39 -16q21 16 45 43q-20 12 -25 25q-19 -34 -59 -52zM1337 78l23 -17q38 33 76 45q-19 0 -45 11zM1411 492h227l11 12q167 236 311 405.5t274 257.5q-19 2 -100 17q-150 -99 -328 -273.5t-395 -418.5zM1837 1130q0 -12 14 -12q42 0 115 84 q-52 -3 -90.5 -27.5t-38.5 -44.5zM2040 1272q86 0 121 44q18 23 6 33q-4 3 -10 3q-26 0 -52.5 -20t-64.5 -60zM2146 1192l105 -12q106 67 192 67l31 -2q2 21 -16 34t-50 13q-110 0 -262 -100zM2292 1176h20q68 0 109 16.5t51 40.5q-13 2 -29 2q-70 0 -151 -59z" />
<glyph unicode="B" horiz-adv-x="1292" d="M0 1032v12q0 61 24 121q26 66 74.5 121.5t129 90t178.5 34.5q97 0 169 -29t110 -74q39 -45 57 -102q18 -54 17 -106v-6q-1 -54 -16 -103l144 39q127 127 188 127q12 0 19.5 -7.5t7.5 -19.5q0 -30 -42.5 -52t-119.5 -44q-46 -53 -102.5 -128t-144.5 -197.5t-126 -173.5 q-252 -340 -289 -394q-61 -90 -61 -109q0 -5 4 -5q16 0 53.5 41t89.5 110t117.5 158.5t142 188.5t157.5 198t169.5 188.5t173 158.5t172.5 110t164 41q106 0 124 -82q3 -16 4 -33q0 -72 -62 -166q-88 -134 -241 -217q-90 -48 -189 -68q50 -44 74 -113q20 -58 19 -120 q-1 -12 -1 -24q-4 -75 -36.5 -151.5t-85 -137t-134.5 -98.5t-178 -38q-136 0 -182 91q-18 37 -18 77q0 42 20 89q38 90 124 130q47 21 101 21q61 0 94 -34.5t33 -82.5q0 -54 -43.5 -101.5t-108.5 -47.5q-22 0 -31 18.5t0.5 36.5t32.5 18q0 -4 0.5 -9.5t10 -15t26.5 -9.5 q41 0 70.5 32.5t29.5 77.5q0 46 -29 75.5t-85 29.5q-113 0 -183 -88q-50 -64 -50 -136q0 -11 1 -22q9 -88 89 -121q38 -16 89 -16q74 0 141.5 37t114.5 96t79 133q30 74 40 147q4 28 4 55q0 44 -10 84q-16 66 -55 109q-49 -6 -98 -6q-95 0 -110 35q-10 21 17 35q16 8 37 8 q99 0 170 -49q165 47 314 191q120 116 155 219q11 31 11 55q0 51 -51 67q-19 6 -44 6q-83 0 -182.5 -52t-193.5 -137.5t-194 -194.5t-188 -223t-171 -223t-146 -194.5t-111 -137.5t-69 -52q-15 0 -24 11.5t-9 29.5q0 31 19.5 75.5t72 122.5t84.5 122.5t116 157.5 q22 30 34 46q246 327 376 459q-52 -13 -133 -37q-14 -43 -37.5 -70.5t-48.5 -27.5q-11 0 -18.5 7.5t-7.5 20.5q0 42 104 76q15 47 17 99q0 7 1 13q0 46 -15 96q-17 57 -53.5 102t-108 74.5t-168.5 29.5q-79 0 -146.5 -23t-113.5 -60.5t-79 -87.5t-47 -102q-11 -43 -11 -85 q0 -9 1 -19q3 -52 23 -96q10 61 35 117.5t65.5 106t103 79t138.5 29.5q104 0 145 -88q20 -42 19 -90q0 -45 -17 -96q-39 -110 -137 -162q-63 -33 -139 -33q-141 0 -207 104q-2 -30 -2 -53q0 -128 52.5 -220t127.5 -92q17 0 28 8.5t13 17.5l2 9q18 0 25.5 -14.5t0 -29.5 t-25.5 -15q-110 0 -171.5 98.5t-61.5 237.5l4 69q-29 54 -31 121zM41 911q62 -110 205 -110q139 0 222 106q61 79 61 172v14q-4 96 -73 136q-34 20 -81 20q-115 0 -173 -90q-32 -51 -32 -103q0 -16 3 -33q12 -58 58 -66l13 -1q16 0 25 8t11 16l1 7q13 0 20.5 -9t7.5 -20 q0 -13 -7.5 -21.5t-20.5 -8.5q-52 0 -82.5 28.5t-36.5 73.5q-7 -4 -14 -2.5t-13 13t-6 28.5q0 61 47 111q-110 -89 -135 -269zM641 911q0 -16 14 -16q44 0 74 82q-88 -31 -88 -66zM863 689q-1 -2 -1 -4q0 -14 29 -24q24 -8 63 -8q33 0 86 11q-53 43 -135 43q-37 0 -42 -18z M950 1047q69 20 104.5 39t35.5 44q0 15 -15 15q-37 0 -125 -98z" />
<glyph unicode="C" horiz-adv-x="796" d="M6 156q0 83 50 197.5t132 233t194 235.5t230.5 207.5t246.5 147t237 56.5q163 0 230 -115q34 -60 35 -132q0 -45 -14 -95q-35 -130 -140 -209q-95 -72 -218 -72q-85 0 -149 18.5t-98.5 49t-51 64.5t-16.5 71q0 52 28.5 90.5t69.5 38.5q20 0 27.5 -15t-0.5 -29.5 t-27 -14.5q0 3 -1 8t-9 13.5t-21 8.5q-26 0 -42.5 -32t-16.5 -68q0 -60 46 -109t146 -71q-50 24 -81 59.5t-31 73.5q0 19 8 33.5t18 17t19 -3.5q11 88 77.5 154.5t166.5 66.5q44 0 66 -25.5t22 -62.5q0 -45 -31.5 -80t-83.5 -35q-23 0 -32.5 18.5t0.5 37t34 18.5 q0 -5 1 -11.5t11.5 -18t28.5 -11.5q30 0 44.5 28t14.5 54q0 34 -18 55t-57 21q-102 0 -168 -75.5t-66 -164.5q0 -73 45 -116t129 -43q158 0 262 119q85 97 93 222q1 11 1 22q0 111 -74 176q-66 59 -177 59q-102 0 -222.5 -60t-232.5 -155.5t-218 -218.5t-184 -247 t-125.5 -242t-47.5 -202q0 -128 131 -139q10 82 41.5 168.5t80.5 166t124.5 130.5t160.5 51q99 0 107 -82q1 -7 1 -13q0 -79 -76 -186q-92 -129 -225 -198q-85 -44 -169 -51q0 -39 11.5 -75t34 -67t63 -50t93.5 -19q103 0 165.5 60t62.5 122q0 25 -19 25q-9 0 -15 -5.5 t-8 -11.5l-1 -6q-18 0 -25.5 15t0 29.5t25.5 14.5q27 0 41 -17t14 -44q0 -66 -66.5 -130.5t-173.5 -64.5q-125 0 -180 95q-7 -19 -28 -9q-33 15 -40 74l-1 21q0 27 2 41q-37 2 -69 14t-60.5 36t-45 66t-16.5 99zM242 -41v-2q150 9 292 138q109 99 150 208q16 43 16 75 q0 45 -33 67q-24 16 -63 16q-89 0 -173 -74.5t-135.5 -191t-53.5 -236.5z" />
<glyph unicode="D" horiz-adv-x="1507" d="M-24 87q21 34 83 34q166 0 385 -150q32 4 86 23q-16 11 -32 26l-17 15q-2 2 2 2q17 2 43 14.5t41 32.5q2 2 4 0q10 -21 54 -51q43 22 82.5 49.5t79 65t68 66.5t69.5 80t62 78.5t66.5 89t63.5 85.5q81 108 118.5 156.5t105 129.5t122.5 136q-59 151 -197.5 240t-355.5 89 q-351 0 -590 -206q-174 -149 -241 -362q-32 -102 -32 -193q0 -82 26 -155q50 -145 186 -190q53 -18 115 -18q207 0 366 155q123 119 167 276q18 65 18 119q0 72 -32 124q-50 82 -165 82q-83 0 -153 -35.5t-112 -90t-65.5 -115t-23.5 -116.5q0 -79 41 -112q-18 26 -20 68v9 q0 38 11 81q12 48 41 97t67.5 88t94 64t117.5 25q3 0 4 -2t0 -4t-4 -2q-140 0 -238 -122q-73 -91 -84 -196q-2 -15 -2 -29q0 -66 41 -88q14 -8 33 -8q77 0 110 58q22 38 8 60q-5 9 -15 9q-11 0 -18.5 -6.5t-9.5 -12.5l-1 -7q-15 0 -25 11.5t-10 25.5q0 13 9.5 24.5 t25.5 11.5q49 0 60 -46q3 -11 3 -22q0 -36 -28 -70q-39 -48 -107 -48q-57 0 -90.5 28t-42 62t-18.5 75.5t-23 57.5q8 -23 -6 -44t-47 -21q-48 0 -63 35q-6 14 -6 27q1 20 15 42q24 34 68 35q47 0 72 -31q8 19 26 19q16 0 23 -15q41 103 128.5 172.5t213.5 69.5 q142 0 189 -115q20 -49 20 -107q0 -71 -30 -156q-57 -163 -190 -274q-152 -128 -343 -128q-187 0 -277 141q-63 96 -63 229q0 44 7 92q30 208 174 381q181 218 469 282q108 24 226 24q219 0 360.5 -90.5t203.5 -243.5q193 190 358 190q117 0 191.5 -64t74.5 -177 q0 -98 -62 -172t-163 -74q-18 0 -26 15t0 29.5t26 14.5q1 -4 3.5 -9.5t15 -15t30.5 -9.5q66 0 117 66t51 155q0 60 -29 112.5t-86 83.5q39 -36 39 -86q0 -14 -4.5 -24t-10.5 -12t-11 1q-11 -55 -52.5 -93t-101.5 -38q-64 0 -89 45q-13 24 -13 48q-1 21 9 41q22 44 70 45 q23 0 32.5 -18.5t0 -37t-32.5 -18.5q-1 1 0 9t-6 17t-22 9q-27 0 -37 -33q-3 -11 -3 -22q0 -28 21 -50q24 -26 70 -26q64 0 104.5 46.5t40.5 110.5q0 49 -40 84t-107 35q-88 0 -168 -59t-170 -172q27 -90 27 -190q0 -96 -25 -192q-25 -98 -69 -191.5t-112.5 -173 t-151.5 -140t-188.5 -95t-219.5 -34.5q-72 0 -148 37q-46 -26 -69 -58q-2 -1 -3 -1t-2 1q-40 35 -92 70q-68 -10 -127 -10q-232 0 -315 69q-29 24 -29 48q0 11 7 23zM-14 77q-3 -7 -3 -14q0 -25 41 -50q88 -54 289 -54q66 0 113 8q-212 142 -367 142q-60 0 -73 -32zM205 674 q-6 -15 -6 -27q0 -19 14 -34t37 -15q34 0 43 23q2 15 -10 18q-7 0 -11 -4.5t-4 -8.5v-5q-19 0 -26.5 14.5t0.5 28.5t26 14q32 0 48 -26t20 -59.5t18 -72t41 -57.5q-35 38 -35 110q0 66 -23.5 104t-64.5 38q-50 0 -67 -41zM459 -39q20 -14 46 -34t30 -23q15 18 61 47 q-25 13 -51 31q-67 -19 -86 -21zM500 33q1 -1 16 -14t27 -21q25 6 69 29q-38 30 -43 43q-7 -11 -29 -24t-40 -13zM559 -14q27 -19 49 -29q51 26 74 29q-21 6 -51 26q-37 -15 -72 -26zM618 -49q72 -31 136 -31q97 0 188 26t165.5 71.5t139 108.5t112.5 136.5t82 156t50 165.5 q15 76 15 153v14q-2 84 -23 160q-46 -59 -141 -191.5t-144 -197.5q-68 -87 -124 -152t-127 -135.5t-147.5 -125t-156.5 -91.5q30 -21 59 -32q4 -4 0 -4q-25 -3 -84 -31z" />
<glyph unicode="E" horiz-adv-x="968" d="M0 219q0 96 44.5 190.5t123.5 170.5t199 123t258 47h30q-14 35 -14 63q-70 -4 -104 -4q-287 0 -429 155q-99 108 -99 255q0 11 1 22q7 149 108 260q117 129 301 135h15q123 0 198 -61.5t84 -149.5q2 -22 2 -45q0 -66 -20 -131q-26 -88 -105 -149.5t-181 -61.5 q-133 0 -200 64t-67 155q0 102 74.5 183.5t190.5 81.5q19 0 27 -15t0 -30t-27 -15q0 2 -1 4t-4.5 8.5t-9.5 11.5t-18.5 9t-28.5 4q-68 0 -131 -76t-63 -166q0 -118 110 -176q-71 54 -71 127q0 40 19 48q9 3 15 -5q13 70 63.5 118t127.5 48q47 0 71.5 -25.5t24.5 -62.5 q0 -38 -27 -67t-75 -29q-23 0 -32.5 18.5t0 37t32.5 18.5q0 -5 0.5 -11.5t10.5 -18t28 -11.5q27 0 39 19t12 44q0 32 -21 54t-63 22q-81 0 -129 -55.5t-51 -126.5v-9q0 -70 45 -116.5t129 -46.5q97 0 172 59q76 60 102 144q20 65 20 128q0 20 -2 40q-8 84 -80 143t-190 59 q-184 0 -303 -126q-101 -106 -110 -252q-1 -14 -1 -28q0 -139 93 -243q141 -153 424 -154q98 0 104 6q3 88 75 181t184.5 154t223.5 61q43 0 66.5 -19.5t23.5 -52.5q0 -29 -21.5 -66.5t-65.5 -78t-104 -77t-145 -66.5t-180 -44q-1 -17 -1 -30q0 -28 5 -44q119 -12 143 -55 q13 -23 -9 -33q-8 -4 -17 -4q-48 0 -90.5 22.5t-66.5 61.5h-37q-108 0 -209.5 -48t-174 -123.5t-116 -172t-43.5 -190.5q0 -87 38 -155.5t111 -102.5v26q0 76 14.5 154t47.5 155.5t81 137t121.5 96.5t161.5 37q137 0 181 -104q17 -40 17 -87q0 -63 -31 -139 q-56 -138 -181 -226q-127 -89 -281 -89q-25 0 -71 4q30 -98 101 -157.5t181 -59.5q116 0 186 54.5t70 111.5q0 19 -8 31t-16 14l-8 2q0 12 8 21.5t22 9.5q33 0 35 -40v-6q0 -52 -49 -109q-92 -96 -240 -99q-161 0 -243 116q-8 -18 -33 -10q-42 15 -58 94q-4 18 -6 39 q-113 31 -173 112.5t-60 184.5zM274 60q-1 -13 -1 -26q0 -56 14 -108q46 -8 75 -8q193 0 334 136q107 103 137 234q9 40 9 74q0 73 -42 122q-49 55 -143 55q-70 0 -131.5 -27.5t-105 -74t-78 -108t-49.5 -130.5t-19 -139zM700 834q217 34 356.5 136t139.5 183q0 57 -72 57 q-89 0 -183 -60.5t-158.5 -147t-82.5 -168.5zM707 733q29 -67 112 -67q19 0 19 12q0 22 -55 40q-33 10 -76 15z" />
<glyph unicode="F" horiz-adv-x="1458" d="M0 315q0 97 38 193.5t105.5 176t172.5 129.5t227 50q154 0 232.5 -78t78.5 -196q0 -116 -36.5 -219.5t-97.5 -175.5t-142 -114t-168 -42q-91 0 -111 49q-13 29 8 48q9 9 21 9q16 0 23 -8.5t7 -19.5q-3 0 -7.5 -0.5t-11.5 -7.5t-7 -21q0 -19 21.5 -30t56.5 -11 q138 0 253 105.5t158 271.5q-47 -117 -143 -193.5t-191 -76.5q-49 0 -61 24q-6 13 6 21q-56 8 -92 39t-48 72q-7 25 -8 53q0 17 3 34q7 46 30.5 84.5t64.5 64t91 25.5q48 0 72 -22.5t24 -54.5q0 -35 -23 -61.5t-61 -26.5q-23 0 -31.5 18t1 36.5t30.5 18.5q0 -3 1.5 -7.5 t10 -11.5t21.5 -7q17 0 28 12t11 29q0 65 -84 65q-41 0 -77 -19.5t-58 -49.5q-21 -30 -34 -68q-9 -26 -9 -53q-1 -11 1 -23q6 -38 23 -68t56.5 -49.5t93.5 -19.5q84 0 156 35t118.5 90.5t72.5 122.5t26 133q0 113 -75.5 187.5t-223.5 74.5q-120 0 -222.5 -49t-168.5 -127 t-103 -172.5t-37 -188.5q2 -116 57 -206.5t164 -131.5q-89 46 -136.5 137t-47.5 199q0 89 33.5 177t94.5 161t157 118.5t209 45.5q3 0 4 -2t0 -4t-4 -2q-111 0 -205 -45t-154 -116.5t-93.5 -158.5t-33.5 -174q1 -98 39.5 -178.5t120.5 -132.5t195 -53q100 0 194.5 31 t170.5 79.5t154 123.5t136 147t125 166q-115 21 -194.5 93t-118.5 175q-54 25 -88.5 74.5t-43.5 109.5q-4 30 -4.5 62t4.5 66q9 66 47.5 128.5t94.5 112.5t144 80t194 30q103 0 195 -19.5t148 -44t126.5 -53t122.5 -40.5q71 43 127 43q47 0 56 -24q8 -21 -25 -35 q-23 -9 -56 -9q-50 0 -102 10l-45 -30q58 -7 126 -34t132.5 -60t135 -65.5t158 -54.5t177.5 -22q61 0 114 18t90 62t37 107q-3 44 -32.5 74t-79.5 30q-74 0 -103 -61q-11 -23 -11 -43q0 -17 8 -33q10 -16 26 -17q16 0 25.5 9t10.5 19l1 9q23 0 32.5 -17.5t0 -35.5t-32.5 -18 q-59 0 -76 51q-6 17 -6 34q0 32 21 62q37 50 104 51q48 0 80 -26t38 -66q8 8 18 7.5t19 -12.5t9 -30q0 -56 -62 -114q71 44 109.5 113t38.5 138q0 64 -31 109t-74 45q-18 0 -30 -9t-15 -17l-2 -9q-19 0 -27 15t0 30t27 15q76 0 118 -51.5t42 -127.5q0 -55 -23.5 -110 t-68.5 -103.5t-122 -79t-173 -30.5q-93 0 -183.5 23t-162.5 56t-138 67t-134 59.5t-126 29.5q-38 -29 -55 -41.5t-45.5 -26.5t-50.5 -14q-41 0 -41 28q0 24 41 45q48 24 129 24h20l47 33q-51 12 -120 41t-123 52.5t-143.5 42.5t-190.5 19q-79 0 -148.5 -17.5t-120.5 -48 t-92 -71t-64.5 -86.5t-37.5 -94q-12 -41 -12 -82v-14q2 -48 15 -89.5t40 -76t65 -54.5q-20 63 -22 129q0 8 -1 16q1 58 17 112q18 62 53.5 110.5t97.5 78t142 29.5q108 0 149 -92q19 -42 19 -91q0 -50 -20 -107q-43 -120 -147 -181q-76 -45 -169 -45q-49 0 -98 17 q39 -98 117 -166t190 -86q36 51 90 131t89.5 131t83 115.5t86 105t83 78t89.5 55t91 17.5q47 1 63 -31q7 -14 7 -28q0 -18 -12 -36q-21 -32 -64 -32q-18 0 -25.5 15t0.5 29.5t27 14.5v-2.5t1.5 -5.5t4 -7.5t8 -6t13.5 -2.5q26 0 33 27q8 29 -18 45q-16 9 -38 9 q-50 0 -98.5 -26.5t-86.5 -66.5t-84 -107.5t-80.5 -127t-86.5 -149t-92 -151.5q82 0 158 32q4 10 16.5 39.5t18 40.5t16.5 34t18.5 32.5t18.5 22t22.5 17.5t24.5 5q30 0 26 -36q-5 -51 -66 -106q-24 -21 -52 -38q-15 -41 -31.5 -72t-42.5 -61.5t-63 -47t-84 -16.5 q-5 0 -7 2.5t0 5t7 2.5q31 0 57 12.5t47 37.5t36 50.5t32 61.5q-73 -29 -158 -29q-60 -94 -118 -167.5t-139 -148.5t-167.5 -124.5t-200.5 -80.5t-241 -31q-103 0 -184 30.5t-129.5 83.5t-73.5 120t-25 144zM864 977q-3 -27 -4 -54q0 -77 27 -149q48 -20 104 -20 q152 0 246 116q74 90 76 200v6q0 100 -65 146q-37 25 -89 25q-95 0 -157 -68.5t-62 -164.5q0 -43 23.5 -72t64.5 -29q67 0 96 56q20 38 7 59q-6 7 -13 8q-7 0 -11 -4.5t-5 -9.5v-4q-14 0 -22 9t-7.5 20.5t8.5 20.5t21 9q37 0 45 -42q2 -11 2 -21q0 -36 -27 -70 q-35 -43 -94 -43q-43 0 -68 25.5t-30 68.5q-12 -7 -23.5 6t-11.5 39q0 59 41 111q-60 -69 -72 -174zM1491 559q70 46 93 107q12 39 -7 43q-12 0 -21.5 -7t-18.5 -25t-14.5 -30.5t-16 -43t-15.5 -44.5zM1589 1147q7 -4 19 -4q44 0 133 71h-4q-111 0 -148 -38q-10 -10 -10 -17 t10 -12zM1833 1266q44 -9 88 -9q58 0 67 21q1 2 1 4q0 10 -20 15l-23 3q-54 0 -113 -34z" />
<glyph unicode="G" horiz-adv-x="1437" d="M-279 -344q0 96 38 192.5t105.5 176.5t172.5 130t227 50q152 0 230.5 -78.5t78.5 -196.5q0 -153 -62.5 -281t-164 -199t-217.5 -71q-90 0 -111 48q-13 30 7 50q10 9 22 9q16 0 23.5 -9t7.5 -20h-7.5t-12 -7t-7.5 -21q0 -19 21.5 -30t56.5 -11q138 0 253.5 106t158.5 270 q-47 -117 -142.5 -193.5t-189.5 -76.5q-26 0 -43.5 8.5t-19 19t5.5 19.5q-56 7 -92.5 38t-47.5 72q-8 25 -8 53q0 17 3 34q7 46 31 84.5t65.5 64t91.5 25.5q47 0 70.5 -23t23.5 -57q0 -33 -23 -59.5t-59 -26.5q-24 0 -33 18.5t1 37t32 18.5q0 -3 1 -7.5t9 -12t21 -7.5 q17 0 27.5 11.5t10.5 27.5q0 29 -20 48.5t-61 19.5q-42 0 -78 -19.5t-57.5 -50.5t-33.5 -68q-9 -27 -9 -52q0 -12 1 -23q6 -37 23 -68t56 -50.5t93 -19.5q105 0 192 56.5t133 143t46 181.5q0 113 -75 188t-222 75q-96 0 -182 -32t-148.5 -86t-108 -123.5t-68.5 -145.5 t-23 -150q0 -115 54.5 -205t164.5 -131q-89 44 -136.5 135.5t-47.5 198.5q0 70 20.5 141t62.5 135.5t100 115t138.5 80.5t171.5 30q4 0 4 -4.5t-4 -4.5q-89 0 -168 -29.5t-136 -79t-98.5 -113t-62 -133t-20.5 -138.5q0 -70 22 -134t64 -116.5t111.5 -83.5t156.5 -31 q89 0 176 26.5t160 68t148.5 107t133.5 128t123 148.5t108.5 150.5t98.5 150.5q-125 -76 -227 -76q-75 0 -116.5 37.5t-41.5 111.5q0 91 50 210t132.5 239t195 236.5t231.5 206.5t248.5 145t240.5 55q163 0 230 -115q34 -60 34 -132q0 -45 -13 -95q-34 -131 -140 -210 q-94 -71 -217 -71h-11q-80 1 -141 19.5t-95.5 48.5t-51.5 64.5t-17 70.5q0 52 28 90.5t70 38.5q20 0 27.5 -15t-0.5 -29.5t-27 -14.5q0 3 -1 8t-8.5 13.5t-20.5 8.5q-27 0 -43.5 -32t-16.5 -68q0 -61 49 -112t148 -70q-52 22 -84.5 59t-32.5 76q0 26 16 41.5t29 5.5 q11 88 77.5 154.5t166.5 66.5q43 0 65.5 -25.5t22.5 -62.5q0 -45 -31.5 -80t-83.5 -35q-23 0 -32.5 18.5t0.5 37t34 18.5q0 -4 0.5 -10.5t10.5 -17.5t28 -11q32 0 47 26.5t15 53.5q0 33 -19 54.5t-57 21.5q-102 0 -168 -73t-66 -167q0 -71 44.5 -115t128.5 -44 q158 0 262 119q86 97 93 222q1 12 1 23q0 110 -73 175q-66 59 -177 59q-106 0 -230 -63t-235.5 -163t-217.5 -225.5t-183 -249t-123.5 -235t-46.5 -181.5q0 -100 102 -100q104 0 236 86q136 215 163 253q77 108 119 108q27 0 27 -29q0 -40 -74.5 -132.5t-175.5 -168.5 q-38 -69 -67.5 -120.5t-75.5 -124t-86.5 -127.5t-97 -120.5t-110.5 -113.5t-123 -95t-138.5 -76.5t-153 -48t-170.5 -18.5q-103 0 -183 30.5t-128.5 84t-73.5 120.5t-25 144zM1167 143q91 74 157.5 158.5t66.5 120.5q0 16 -15 16q-13 0 -27 -8.5t-31.5 -31.5t-31.5 -42.5 t-37.5 -61.5t-37.5 -68.5t-44 -82.5z" />
<glyph unicode="H" horiz-adv-x="1646" d="M0 352q0 97 38 193.5t105.5 177t172.5 130.5t227 50q154 0 232.5 -78t78.5 -196q0 -152 -62.5 -280t-164 -199.5t-217.5 -71.5q-91 0 -111 49q-13 29 8 48q9 9 21 9q16 0 23 -8.5t7 -19.5q-3 0 -7.5 -0.5t-11.5 -7.5t-7 -21q0 -19 21.5 -30t56.5 -11q138 0 253 105.5 t158 271.5q-47 -117 -143 -193.5t-191 -76.5q-49 0 -61 24q-6 13 6 21q-56 8 -92 39t-48 72q-7 25 -8 53q0 17 3 34q7 46 30.5 84.5t64.5 64t91 25.5q48 0 72 -23t24 -57t-23 -60t-61 -26q-23 0 -31.5 18.5t1 37t30.5 18.5q0 -3 1.5 -7.5t10 -11.5t21.5 -7q17 0 28 11.5 t11 26.5q0 29 -20.5 48.5t-63.5 19.5q-41 0 -77 -19.5t-57.5 -50t-34.5 -68.5q-9 -26 -9 -52q-1 -10 1 -22q6 -38 23 -68.5t56.5 -50t93.5 -19.5q105 0 192 55t134 142t47 184q0 113 -75.5 187.5t-223.5 74.5q-96 0 -182 -32t-148.5 -85.5t-108.5 -123t-69 -146t-23 -152.5 q0 -114 55.5 -204.5t161.5 -131.5q-88 48 -134 137.5t-46 196.5q0 89 33.5 177t94.5 161t157 118.5t209 45.5q3 0 4 -2t0 -4t-4 -2q-111 0 -205 -45t-154 -116.5t-93.5 -158.5t-33.5 -174q1 -98 39 -179t119.5 -133t194.5 -52q106 0 207 38.5t193.5 111.5t169 153.5 t161.5 189.5h-131q3 1 3 6t-3 7h141q54 69 155.5 209t174.5 231t139 151q-13 1 -63.5 4t-75.5 3q-64 -101 -107 -101q-26 0 -24 25q1 34 42 61q35 23 83 25q10 13 32 53q-35 -6 -80 -6q-76 0 -190 29.5t-174 29.5q-124 0 -188 -90q-40 -56 -41 -118q0 -17 4 -34 q15 -78 86 -104q26 -10 59 -10q91 0 137 73q24 41 24 81q0 19 -5 37q-23 59 -86 61q-68 0 -95 -56q-11 -22 -11 -40q0 -15 7 -27q6 -12 19 -12q11 0 17 6t6 12l1 6q20 0 27.5 -14.5t-0.5 -29.5t-25 -15q-49 0 -61 47q-3 12 -3 24q0 34 25 66q34 43 93 43q72 0 94 -63 q8 -22 7 -45q0 -39 -22 -79q-42 -76 -131 -84q-9 -1 -18 -1q-102 0 -142 80q-19 37 -19 77q0 38 17 79q35 89 125 125q45 18 99 18q60 0 174 -30t190 -30q51 0 89 6q32 48 56.5 73.5t49.5 25.5q27 0 27 -24q0 -30 -46 -57q-33 -19 -81 -28l-33 -55q25 0 79 -3t64 -3 q106 92 201 92q37 0 41 -28q0 -3 1 -6q0 -28 -36 -50q-38 -25 -100 -25l-88 4q-58 -56 -124 -149.5t-151.5 -226t-144.5 -213.5h276l11 12q566 803 909 803q107 0 143 -83q15 -34 15 -68q0 -49 -31 -98q-51 -83 -156 -83q-65 0 -98 29.5t-33 68.5q0 16 8.5 23.5t16.5 1.5 q8 40 38.5 68t75.5 28q15 0 25 -9t10 -22q0 -11 -8.5 -19.5t-19.5 -8.5q-10 26 -43 26q-41 0 -61 -44q-9 -20 -9 -41q0 -24 12 -47q23 -44 86 -44q98 -1 146 77q29 46 29 93q1 31 -13 62q-32 77 -133 77q-61 0 -122.5 -23.5t-122.5 -72.5t-114 -101.5t-117.5 -134.5 t-111.5 -146.5t-117.5 -162t-115.5 -157.5q-190 -249 -338 -371q34 -12 78 -12q4 -1 0 -4q-46 0 -107 -54q2 -1 12.5 -7.5t14 -8t13 -6.5t14.5 -7t14 -5.5t15.5 -5t15 -2.5t16.5 -1q37 0 81 23t80 55.5t66.5 64.5t48.5 55l17 23h14q-7 -9 -18.5 -25t-47.5 -56t-71 -71 t-82 -56t-88 -25q-23 0 -47 8t-37 15.5t-39 23.5q-45 -42 -45 -70h-2q-14 27 -64 50q-58 -27 -110 -27q-38 0 -50.5 16.5t4.5 33t50 16.5q47 0 102 -25q25 15 60 43q-32 18 -54 18q-2 0 -1.5 2t3.5 2q16 0 48.5 28t31.5 46h2q3 -11 14 -23.5t19 -15.5q82 86 260 338h-278 q-82 -110 -160.5 -193t-179 -158t-220 -115t-251.5 -40q-103 0 -183 31t-128.5 84.5t-73.5 120t-25 143.5zM970 36q-1 -3 -1 -6q0 -12 22 -16q8 -2 19 -2q43 0 94 23q-48 20 -90 20q-36 0 -44 -19zM1133 33q28 -14 49 -35q6 20 41 55l-27 19q-38 -26 -63 -39zM1147 106 q16 -3 39 -16l45 43q-21 17 -25 25q-19 -34 -59 -52zM1206 78l27 -17q39 34 74 45q-23 3 -50 13zM1366 1003q3 -2 8 -2q21 0 42.5 22.5t51.5 66.5q-65 -6 -97 -50q-11 -16 -11 -25q0 -8 6 -12zM1532 1169q80 17 100 56q10 20 -5 25l-5 1q-34 0 -90 -82zM1663 1092 q37 -5 76 -5q81 0 113 41q11 14 11 24q0 9 -8 15q-8 7 -22 7q-85 0 -170 -82z" />
<glyph unicode="I" horiz-adv-x="1265" d="M0 334q0 76 23.5 153.5t70 148.5t110.5 126t151.5 88t185.5 33q154 0 232.5 -78.5t78.5 -196.5q0 -151 -62 -278.5t-164.5 -200t-217.5 -72.5q-90 0 -111 48q-13 30 7 50q9 9 22 9q16 0 23 -9t7 -20q-3 0 -7.5 -0.5t-11.5 -7.5t-7 -21q0 -19 21 -29.5t57 -10.5 q138 0 253 105t158 271q-47 -117 -142.5 -193.5t-189.5 -76.5q-49 0 -61 24q-6 13 6 21q-57 8 -94 39q-36 30 -48 72q-8 26 -8 55q0 16 3 33q7 46 31 84.5t65.5 64t91.5 25.5q46 0 70 -23t24 -55q0 -34 -23 -61t-59 -27q-24 0 -33 18.5t1 37t32 18.5q0 -3 1 -7.5t9 -12 t21 -7.5q17 0 28 12.5t11 28.5q0 29 -20 47.5t-62 18.5q-41 0 -77 -19.5t-58 -50.5q-21 -30 -34 -68q-9 -26 -10 -53q0 -11 2 -22q6 -37 23 -68t56.5 -50.5t93.5 -19.5q81 0 152 33.5t118 88t74 122.5t27 137q0 113 -75 187.5t-224 74.5q-120 0 -222 -48.5t-167.5 -126.5 t-102.5 -172.5t-37 -188.5q0 -116 55 -206.5t164 -131.5q-89 46 -136.5 137t-47.5 199q0 89 33.5 177t94.5 161t157 118.5t209 45.5q5 0 5 -4.5t-5 -4.5q-89 0 -168 -29t-136 -78.5t-99 -113t-62.5 -133.5t-20.5 -139q0 -72 22.5 -137t66 -116t112 -81t154.5 -31 q96 0 187 33t161.5 82.5t146 131t129.5 153.5t123 176q-95 12 -153 75t-66 152q-8 -4 -15.5 -1.5t-13.5 16.5t-6 34q0 47 20 99.5t66.5 107t112.5 97.5t168 70.5t223 27.5l78 4q60 78 102 78q11 0 18 -6t7 -15q0 -24 -32 -42.5t-91 -27.5l-23 -30q37 6 78 6q9 0 32.5 -1 t39.5 -1q96 49 196 49q38 0 46 -21q1 -4 2 -7q0 -16 -33 -28t-86 -12q-29 0 -115 4q-45 -26 -89.5 -67t-79 -82t-78 -106.5t-71 -110.5t-75.5 -126t-74 -124q62 6 114 26.5t85 48t56 60t32.5 61t9.5 52.5q0 27 -10 41t-20 14h-11q0 12 9.5 21.5t21.5 9.5q32 0 35 -48v-12 q0 -63 -47 -134q-83 -122 -241 -149q-20 -3 -42 -5q-44 -71 -82 -127.5t-89 -119.5t-100.5 -110.5t-112.5 -92t-129 -73.5t-146.5 -46t-167.5 -17q-103 0 -183 30.5t-128.5 84t-73.5 120.5t-25 144zM948 801q0 -98 58 -167t159 -79q19 29 69 104.5t73 109t67.5 96.5t74.5 98 t71 80t80.5 76t80.5 55q-18 2 -51 2q-50 0 -88 -9q-24 -33 -37.5 -50t-33.5 -33.5t-35 -16.5q-12 0 -19.5 7.5t-7.5 19.5q0 24 35.5 49t93.5 37l23 32q-23 -4 -68 -4q-243 0 -394 -115.5t-151 -291.5zM1421 1094q0 -15 15 -15q18 0 38.5 21t51.5 63q-49 -12 -77 -31t-28 -38 zM1585 1227q48 7 74.5 22t26.5 33q0 10 -13 10q-37 0 -88 -65zM1735 1184q74 -4 92 -4q89 0 101 24q2 3 2 6q0 8 -16 11q-7 2 -16 2q-87 0 -163 -39z" />
<glyph unicode="J" horiz-adv-x="1619" d="M2 -18q0 86 25.5 172.5t78 165.5t124.5 139.5t172 96.5t214 36q90 0 160.5 -26.5t112.5 -72t64 -102t22 -119.5q0 -131 -45 -247.5t-118 -195t-166 -124t-189 -45.5q-90 0 -111 48q-13 30 7 50q9 9 22 9q16 0 23.5 -9t7.5 -20q-3 0 -7.5 -1.5t-12 -9.5t-7.5 -22 q0 -37 78 -37q153 0 287.5 112.5t189.5 293.5q-40 -90 -113.5 -159.5t-149.5 -102.5t-141 -33q-51 0 -59 26q-4 13 10 23q-117 14 -157 112q-17 41 -17 85q0 49 21 102q41 99 132 139q46 21 99 21q52 0 79.5 -27t27.5 -65q0 -39 -29 -70t-76 -31q-23 0 -32 18.5t0.5 37 t31.5 18.5q0 -3 0.5 -7.5t10.5 -12t28 -7.5q25 0 39 16t14 38q0 34 -23.5 56.5t-70.5 22.5q-128 0 -197 -109q-44 -68 -44 -136q0 -41 16 -82q41 -109 182 -109q102 0 188 38t141.5 100t86.5 139t31 157q0 128 -88.5 218t-258.5 90q-139 0 -256 -54t-191 -141t-114.5 -191.5 t-40.5 -211.5q0 -90 28 -168t90 -140.5t151 -93.5q-76 37 -130 105.5t-78 144t-24 150.5q0 82 25 163.5t74 153.5t116 127.5t157 88t191 32.5q3 0 4 -2t0 -4t-4 -2q-124 0 -230.5 -49t-176 -128.5t-109 -178.5t-39.5 -201q0 -74 26.5 -148t75 -137.5t129 -103.5t177.5 -40 q298 0 552 273q145 156 330 472q13 22 124 216q-95 12 -153.5 75t-66.5 152q-7 -4 -15 -1.5t-13.5 16.5t-5.5 34q0 54 25.5 112.5t78 116t124 103t172.5 73.5t214 28l78 4q60 78 102 78q11 0 18 -6t7 -15q0 -24 -32 -42.5t-91 -27.5l-25 -30q38 6 80 6q37 0 60 -2 q104 49 208 49q38 0 46 -21q1 -4 1 -7q0 -16 -32 -28t-86 -12q-17 0 -63.5 3t-65.5 4q-48 -26 -93.5 -63.5t-88 -91t-77 -102t-76.5 -124.5t-69.5 -128t-72.5 -141q77 8 141.5 42.5t102 78.5t57.5 86t20 72q0 27 -10 41t-20 14h-11q0 12 9.5 21.5t21.5 9.5q31 0 31 -55 q0 -72 -57 -156q-89 -131 -248 -160q-22 -4 -44 -6q-52 -102 -80 -156.5t-82 -151t-92 -151.5t-99 -135t-113.5 -126.5t-125.5 -101t-145.5 -83.5t-162.5 -48.5t-187 -19.5q-116 0 -206.5 36t-146 98.5t-84 141t-28.5 167.5zM1264 770q2 -99 59 -167.5t156 -78.5 q71 125 123 207t120.5 176.5t139 160t145.5 106.5q-14 2 -37 2q-50 0 -88 -9q-24 -33 -37.5 -50t-33.5 -33.5t-35 -16.5q-12 0 -19.5 7.5t-7.5 19.5q0 25 35 50t92 36l25 32q-25 -4 -68 -4q-124 0 -232.5 -37.5t-181 -99t-114 -140.5t-41.5 -161zM1761 1094q0 -15 15 -15 q18 0 38.5 21t51.5 63q-49 -12 -77 -31t-28 -38zM1925 1227q48 7 74 22t26 33q0 10 -12 10q-37 0 -88 -65zM2062 1184q82 -4 105 -4q89 0 101 24q2 3 2 6q0 7 -16 11q-7 2 -16 2q-93 0 -176 -39z" />
<glyph unicode="K" horiz-adv-x="1597" d="M0 352q0 77 23.5 155t70 149t110.5 126t151.5 88t185.5 33q154 0 232.5 -78t78.5 -196q0 -153 -62.5 -281t-164 -199t-217.5 -71q-91 0 -111 49q-13 29 8 48q9 9 21 9q16 0 23 -8.5t7 -19.5q-3 0 -7.5 -0.5t-11.5 -7.5t-7 -21q0 -19 21.5 -30t56.5 -11q138 0 253 105.5 t158 271.5q-47 -117 -142.5 -193.5t-189.5 -76.5q-49 0 -61 24q-6 13 6 21q-57 8 -93.5 39t-48.5 72q-8 26 -8 54q0 16 3 33q7 46 31 84.5t65.5 64t91.5 25.5q47 0 70.5 -23t23.5 -57t-22.5 -60t-59.5 -26q-24 0 -33 18.5t1 37t32 18.5q0 -3 1 -7.5t9 -11.5t21 -7 q17 0 28 11.5t11 26.5q0 29 -20.5 48.5t-61.5 19.5q-42 0 -78 -19.5t-57.5 -50t-33.5 -68.5q-9 -26 -10 -52q0 -10 2 -22q6 -38 23.5 -68.5t56.5 -50t93 -19.5q157 0 264 114.5t107 266.5q0 113 -75 187.5t-224 74.5q-96 0 -182 -31.5t-148.5 -85.5t-108.5 -124t-68 -146 q-22 -73 -22 -146v-6q0 -115 53.5 -205t161.5 -131q-88 48 -134 137.5t-46 196.5q0 89 33.5 177t94.5 161t157 118.5t209 45.5q3 0 4 -2t0 -4t-4 -2q-111 0 -205 -45t-154 -116.5t-93.5 -158.5t-33.5 -174q0 -152 93.5 -258t261.5 -106q98 0 195 35.5t178 94.5t163.5 140.5 t150.5 168.5t140.5 183.5t132.5 180t127 164t123 130.5q-14 1 -63 4t-74 3q-64 -101 -109 -101q-26 0 -24 25q1 34 42 61q35 23 83 25q6 8 17 26.5t17 26.5q-35 -6 -82 -6q-76 0 -190 29.5t-174 29.5q-124 0 -188 -90q-40 -56 -41 -118q0 -17 4 -34q15 -78 86 -104 q26 -10 59 -10q91 0 137 73q24 41 24 81q0 19 -5 37q-23 59 -86 61q-68 0 -95 -56q-11 -22 -11 -40q0 -15 7 -27q6 -12 19 -12q11 0 17 6t6 12l1 6q20 0 27.5 -14.5t-0.5 -29.5t-25 -15q-49 0 -61 47q-3 12 -3 24q0 34 25 66q34 43 93 43q72 0 94 -63q8 -22 7 -45 q0 -39 -22 -79q-42 -76 -131 -84q-9 -1 -18 -1q-102 0 -142 80q-19 37 -19 77q0 38 17 79q35 89 125 125q45 18 99 18q60 0 174 -30t190 -30q51 0 89 6q32 48 56.5 73.5t49.5 25.5q27 0 27 -26q0 -29 -44 -54q-33 -20 -81 -29l-35 -55q43 0 141 -8q108 94 203 94 q37 0 41 -28q0 -3 1 -6q0 -28 -36 -50q-38 -25 -100 -25q-57 0 -88 2q-44 -43 -95.5 -111.5t-99 -141.5t-103 -158t-114.5 -166t-125.5 -160t-143.5 -145t-161.5 -116.5t-186.5 -79t-212 -28.5q-104 0 -184.5 31.5t-128.5 85.5t-72.5 120.5t-24.5 141.5zM1040 -287 q0 105 47.5 209.5t115 185.5t134.5 154t114.5 142t47.5 122q0 29 -10 49q-12 -6 -62 -6q-51 0 -56 23q-4 17 23 26q10 3 23 3q55 0 94 -31q71 18 144 68.5t135.5 115.5t124.5 140t121 146.5t116 129.5t119 93.5t121 35.5q107 -1 141 -79q14 -32 14 -64q0 -46 -29 -92 q-49 -78 -142 -78q-64 0 -95.5 28.5t-31.5 65.5q0 16 8 23t16 1q6 39 37 67t76 28q15 0 25 -9t10 -22q0 -10 -9.5 -19.5t-19.5 -9.5q-10 27 -43 27q-30 0 -49 -26t-19 -60q0 -37 24.5 -60.5t70.5 -23.5q84 0 130 73q28 44 27 88q1 29 -11 57q-30 72 -130 73 q-57 0 -117.5 -35t-116 -92.5t-113.5 -127.5t-119.5 -144.5t-123.5 -139.5t-135.5 -116t-146.5 -70q39 -36 39 -101q0 -40 -27.5 -85t-71.5 -90t-97 -95t-106 -107.5t-97 -119t-71.5 -138t-27.5 -155.5q0 -109 86 -172q-10 40 -10 80q-1 51 15 105q28 96 107.5 164.5 t192.5 68.5q105 0 141 -86q15 -36 15 -77q0 -51 -24 -108q-47 -110 -150 -165q-69 -36 -152 -36q-63 0 -119 27q26 -74 87 -118t155 -44q87 0 163 36t122.5 90t73 113.5t26.5 111.5q0 29 -11 52t-36 23q-12 0 -20.5 -6.5t-11.5 -13.5l-3 -6q-18 0 -25.5 15t0.5 29.5t27 14.5 q43 0 65.5 -29.5t22.5 -78.5q0 -53 -27 -114t-75 -116.5t-125 -92t-166 -36.5q-100 0 -164.5 48.5t-89.5 127.5q-54 31 -82.5 88.5t-28.5 126.5zM1154 -336q-7 -36 -7 -71q0 -42 10 -82q58 -33 125 -33q145 0 238 108q72 84 75 183v8q0 90 -64 128q-33 19 -79 19 q-95 0 -158 -65t-63 -168q2 -39 18 -63.5t45 -24.5q18 0 29.5 9.5t13.5 18.5l2 9q24 0 33 -18.5t-1 -37t-32 -18.5q-53 0 -82.5 30.5t-35.5 79.5q-10 -5 -20.5 6.5t-10.5 34.5q0 44 24 88q-45 -61 -60 -141zM1366 1003q3 -2 8 -2q21 0 42.5 22.5t51.5 66.5q-65 -6 -97 -50 q-11 -16 -11 -25q0 -8 6 -12zM1383 594q0 -7 13 -10q12 -4 31 -4q20 0 56 4q-20 26 -66 26q-34 0 -34 -16zM1532 1169q80 17 100 56q10 20 -5 25l-5 1q-34 0 -90 -82zM1661 1090q41 -3 78 -3q81 0 113 41q11 14 11 24q0 9 -8 15q-8 7 -22 7q-85 0 -172 -84z" />
<glyph unicode="L" horiz-adv-x="1130" d="M-72 -23q-13 15 -13 29q0 17 19 34q34 30 107 30q122 0 272 -105q21 6 78 29l-53 43q-2 2 0 2q60 7 88 45h4q11 -22 43 -47q133 78 266 235q-55 -8 -125 -8q-122 0 -223.5 30t-170.5 80.5t-116.5 119t-69.5 144t-22 157.5q0 111 39.5 216t111 189t183 135t244.5 51 q15 0 27 -10.5t12 -25.5q0 -17 -11.5 -28t-27.5 -11q0 2 -1.5 5.5t-7 12.5t-13.5 15.5t-23.5 12t-34.5 5.5q-87 0 -174.5 -43t-156.5 -116.5t-112.5 -181t-43.5 -226.5q0 -153 79 -279t232 -190q-99 52 -153 134t-54 167q0 44 20 52q11 5 19 -7q13 140 113.5 242t255.5 102 q101 0 165.5 -53t74.5 -129q3 -25 4 -51q0 -51 -14 -101q-20 -76 -85.5 -129t-153.5 -53q-47 0 -82.5 18t-52.5 46q-17 30 -25 64q-3 15 -3 30q-1 19 5 38q10 34 28.5 62.5t52.5 46.5t75 18q17 0 28 -11t11 -28q0 -16 -11 -27.5t-28 -11.5q0 5 -1.5 12t-14 19t-33.5 12 q-57 0 -86 -62q-16 -34 -16 -69q0 -30 12 -60q31 -79 123 -86q9 -1 18 -1q84 0 147 51t83 123q13 49 13 98q1 24 -3 48q-10 72 -71.5 123t-159.5 51q-86 0 -159 -37t-118 -95t-66 -132q-15 -54 -15 -107q0 -21 2 -41q8 -72 51 -140.5t118 -111.5q-61 44 -97 109 q-37 65 -43 134q-2 17 -1 35q1 52 15 104q20 70 59.5 124.5t105 88.5t145.5 34q6 0 3 -4q-1 -2 -3 -2q-149 0 -240 -114q-77 -97 -77 -225v-10q4 -145 104 -238q108 -100 295 -100q59 0 138 11q25 30 49.5 61.5t52.5 70t45.5 62.5t52 73t47.5 67q171 242 257 341 q192 219 374 263q51 12 103 12q165 0 238 -116q41 -66 41 -147q0 -38 -9 -80q-29 -130 -130 -210q-92 -72 -216 -72q-162 0 -225 107q-90 -138 -244 -257t-348 -169q-164 -182 -342 -273q42 -26 59 -32v-2q-24 -2 -84 -37q65 -58 146 -139.5t141.5 -144t129 -125 t141.5 -106.5t147 -65q-65 28 -135.5 77.5t-149.5 123t-130 124t-135 140.5t-106 113l6 6q16 -16 74 -78.5t89 -93.5t89 -90t100.5 -96t96.5 -81.5t103.5 -75.5t95.5 -52q-16 50 -18 104v12q0 48 11 94q12 52 39.5 100.5t65.5 85t91.5 58t115.5 21.5q120 0 172 -93 q27 -49 27 -107q0 -41 -14 -87q-36 -118 -145 -184q-90 -54 -210 -54q-53 0 -113 13q34 -69 100.5 -109.5t163.5 -40.5q78 0 147 25.5t116.5 67t82.5 93t51.5 103t16.5 98.5t-16 74t-43 27q-13 0 -21.5 -6.5t-11.5 -13.5l-2 -7q-18 0 -25.5 15t0.5 29.5t27 14.5 q47 0 73.5 -36t26.5 -97t-27.5 -128t-77.5 -127.5t-133.5 -100t-183.5 -39.5q-102 0 -171 43t-103 117q-77 19 -152 62t-147 106.5t-134 126.5t-146.5 148.5t-151.5 144.5q-37 -26 -56 -54q-2 -2 -4 0l-82 66q-95 -25 -192 -25q-151 0 -195 51zM-64 23q-7 -10 -7 -19 q0 -18 27 -34q51 -31 167 -31q90 0 176 22q-143 96 -258 96q-80 0 -105 -34zM330 -45q15 -10 37 -28t30 -23q9 16 52 43q-3 3 -39 33q-49 -18 -80 -25zM367 35q16 -14 43 -33l53 27q-31 24 -37 39q-4 -9 -24.5 -20t-34.5 -13zM428 -12l35 -31q43 28 72 31q-25 7 -50 24z M854 309q189 53 337.5 171t233.5 251q-26 51 -26 113q0 48 22.5 82.5t57.5 34.5t35 -43q0 -12 -3 -28q-13 -67 -71 -159q59 -106 217 -106t257 117q82 97 84 221v9q0 122 -80 192q-70 61 -185 61q-38 0 -76 -10t-70.5 -24t-69 -42t-64.5 -52.5t-64.5 -66.5t-61 -73 t-62.5 -84t-61 -86.5t-63.5 -93.5t-63.5 -93q-124 -182 -223 -291zM1168 -450q-3 -26 -4 -51q0 -63 22 -120q75 -30 131 -30q174 0 276 115q76 87 76 194q0 106 -72 158q-47 34 -116 34q-103 0 -167.5 -65.5t-64.5 -151.5q0 -49 23 -82.5t61 -33.5q22 0 36 9.5t17 19.5l3 10 q17 0 27.5 -11t10.5 -28q0 -15 -10.5 -26t-27.5 -11q-66 0 -104 38t-44 97q-6 -4 -12 -3.5t-11.5 10t-5.5 24.5q0 30 17 69q-49 -73 -61 -165zM1411 844q0 -51 21 -101q70 112 70 172v6q-2 27 -23 27q-29 0 -48.5 -30t-19.5 -74z" />
<glyph unicode="M" horiz-adv-x="2050" d="M-50 527q-6 15 -6 30q0 28 21 54q31 38 88 38q66 0 103 -63q7 24 34 24q10 0 20 -6.5t13 -15.5q71 180 236.5 298t355.5 118q84 0 146 -23.5t97.5 -65.5t52.5 -92t17 -110v-19q0 -157 -74 -298t-195 -224.5t-255 -83.5q-90 0 -111 48q-13 30 7 50q9 9 22 9q16 0 23.5 -9 t7.5 -20q-3 0 -7.5 -0.5t-12 -7.5t-7.5 -21q0 -19 21.5 -30t56.5 -11q163 0 307 131.5t189 331.5q-45 -119 -137 -204t-170 -85q-25 0 -37 11t-4 24q-16 -2 -47 -2q-123 1 -161 97q-15 38 -15 76q1 58 35 116q58 96 167 96q65 0 87 -46q9 -20 8 -40q0 -28 -16 -54 q-29 -46 -87 -46q-16 0 -26.5 11.5t-10.5 25.5q0 13 9.5 24.5t27.5 11.5q0 -4 2 -9.5t11 -15t24 -9.5q35 0 49 38q5 15 5 28q0 24 -17 44q-23 25 -66 25q-103 0 -159 -90q-34 -55 -33 -110q-1 -34 13 -70q36 -90 153 -91q165 0 288 115t123 283q0 58 -16 106t-49.5 87.5 t-94 62t-141.5 22.5q-159 0 -301.5 -83.5t-229.5 -225.5t-87 -303q0 -208 137 -320q-61 59 -87 151q-19 65 -19 134q0 28 4 56q10 98 55.5 197.5t117.5 178t179.5 127.5t232.5 49q3 0 4 -2t0 -4t-4 -2q-233 0 -396 -166q-130 -131 -170 -316q-13 -64 -14 -123 q0 -106 45 -191q77 -148 258 -166q23 -2 48 -2q117 0 240 47.5t237 129t225 181.5t219.5 214.5t204 218t196.5 202.5t179 157q-111 19 -166 21q-88 -92 -133 -92q-23 0 -23 20q0 26 43.5 53t102.5 27h6l47 51q-44 1 -96 18t-101.5 41.5t-101.5 48.5t-113.5 41t-119.5 17 q-168 0 -260 -116q-66 -83 -65 -186v-20q7 -111 85 -167q54 -39 129 -39q126 0 196 97q46 64 46 138q0 15 -2 30q-11 88 -79 120q-30 14 -67 14q-96 0 -142 -78q-23 -41 -23 -81q0 -19 5 -37q17 -53 64 -54q16 0 25 7.5t10 15.5l2 8q13 0 20.5 -9t7.5 -20q0 -13 -7.5 -21.5 t-20.5 -8.5q-78 0 -105 67q-10 26 -10 52q0 38 20 77q40 78 126 90q13 2 28 2q98 0 138 -83q20 -41 20 -87q0 -41 -16 -85q-35 -99 -126 -141q-50 -23 -110 -23q-127 0 -188 100q-37 60 -37 132q0 34 8 71q27 122 129 190q84 55 199 55q72 0 151 -26t137 -56.5t126.5 -56.5 t121.5 -26h6q43 43 74.5 65.5t60.5 22.5q25 0 21 -22q-6 -29 -52 -53q-44 -22 -102 -24l-47 -51q32 -1 170 -20q135 94 230 94q46 0 56 -32q2 -7 2 -14q0 -26 -30 -47q-39 -28 -108 -28q-48 0 -113 10q-159 -135 -355 -414q-197 -278 -307 -498q-77 -152 -76 -199 q0 -21 15 -21q14 0 53.5 42.5t97.5 114.5t132.5 165t162 196.5t181 206.5t195.5 196t200 165t199 114.5t188 42.5q117 -1 155 -93q15 -36 15 -72q0 -56 -36 -112q-59 -92 -177 -92q-59 0 -98 30.5t-39 70.5q0 12 6 20t12.5 8.5t12.5 -4.5q8 40 37.5 67t76.5 27q15 0 25 -8.5 t10 -21.5q0 -11 -9 -20t-19 -9q-10 27 -43 27q-42 -1 -62 -45q-9 -20 -9 -40q0 -24 12 -48q24 -44 87 -44q105 0 161 84q36 53 36 111q0 19 -4 39q-17 80 -92 104q-26 9 -58 9q-90 0 -194.5 -45.5t-203.5 -120t-205 -174.5t-198 -204.5t-183.5 -213.5t-161 -198 t-130.5 -162.5t-92 -102.5q-28 -25 -49 -25q-22 0 -35.5 19.5t-13.5 46.5q0 73 71.5 219t178 304t242 314.5t253.5 247.5q-78 -57 -178 -155.5t-196 -202.5t-204.5 -220t-220.5 -217t-227.5 -184t-241.5 -131.5t-247 -48.5q-94 0 -167.5 22t-118.5 58t-78 83.5t-48.5 98 t-27.5 103t-17.5 95.5t-16.5 78t-26 50q12 -24 -3 -51t-52 -27q-64 0 -83 50zM-22 584q-8 -19 -8 -35q0 -21 13 -39q17 -23 50 -23q37 0 46 28q4 19 -9 22q-7 0 -11 -5.5t-4 -10.5v-5q-19 0 -26.5 15t0.5 29.5t26 14.5h6q31 -3 49 -37t25.5 -85t22 -115.5t34.5 -124 t68 -114.5t119 -85q-94 51 -144.5 146t-50.5 219q0 31 -4 65.5t-15 81.5t-38 77t-66 30q-61 0 -83 -49zM1585 -313q0 125 65 290t169 327.5t238.5 322t269.5 280.5t266.5 196t224.5 75q6 0 8 -3q1 -1 0 -3q0 -2 -1 -4q-2 -4 -7 -3q-89 0 -213.5 -77.5t-252.5 -202.5 t-255.5 -289t-226 -331t-160 -335t-61.5 -295q0 -124 65 -186q-6 28 -6 57q0 16 2 33q6 47 18.5 92t40.5 85.5t63 71.5t85 49t106 18q106 0 141 -87q15 -35 15 -75q0 -51 -25 -109q-46 -110 -149 -164q-69 -36 -152 -36q-65 0 -118 26q25 -73 86 -117.5t155 -44.5 q87 0 163 36t122.5 90t73 113.5t26.5 111.5q0 29 -11 52t-36 23q-12 0 -21 -6.5t-11 -13.5l-3 -6q-18 0 -25.5 15t0.5 29.5t27 14.5q43 0 66 -29.5t23 -78.5q0 -42 -16.5 -90t-50.5 -95.5t-80 -86.5t-110.5 -63t-136.5 -24q-100 0 -164.5 48.5t-89.5 127.5q-63 36 -100 104 t-37 167zM1726 -416q-8 -39 -8 -75t8 -70q52 -43 127 -43q145 0 238 108q72 84 75 183v8q0 90 -64 128q-33 19 -79 19q-95 0 -158 -65.5t-63 -157.5q0 -37 14.5 -67.5t49.5 -30.5q18 0 29.5 9.5t13.5 18.5l2 9q24 0 33 -18.5t-1 -37t-32 -18.5q-53 0 -83 30.5t-36 79.5 q-10 -5 -20.5 6.5t-10.5 34.5q0 44 25 89q-43 -62 -60 -140zM1776 1079q0 -12 14 -12q44 0 121 84q-54 0 -94.5 -25t-40.5 -47zM1989 1221q86 6 123 48q20 22 6 29l-7 2q-47 0 -122 -79zM2150 1133q79 -9 101 -9q88 0 117 42q9 12 9 23q0 13 -13 22q-12 10 -33 10 q-72 0 -181 -88z" />
<glyph unicode="N" horiz-adv-x="1869" d="M-24 533q-5 15 -5 29q0 28 21 55q31 38 88 38q65 0 102 -63q7 24 35 24q11 0 20.5 -6.5t12.5 -15.5q71 180 236.5 298t355.5 118q84 0 146 -23.5t97.5 -65.5t52.5 -92t17 -110q0 -131 -46 -249.5t-120 -199.5t-168 -128.5t-190 -47.5q-90 0 -111 48q-13 30 7 50q9 9 22 9 q16 0 23.5 -9t7.5 -20q-3 0 -7.5 -0.5t-12 -7.5t-7.5 -21q0 -19 21.5 -30t56.5 -11q163 0 306.5 131t188.5 332q-45 -119 -137 -204t-170 -85q-25 0 -37 11t-4 24q-16 -2 -47 -2q-123 1 -161 97q-15 38 -15 76q0 58 35 116q58 96 168 96q64 0 86 -46q9 -20 10 -40 q0 -28 -17 -54q-29 -46 -87 -46q-16 0 -26.5 11.5t-10.5 25.5q0 13 9.5 25t27.5 12q0 -4 1.5 -10t10.5 -15.5t24 -9.5q35 0 49 38q6 15 6 28q0 24 -18 44q-22 25 -65 25q-103 0 -159 -90q-34 -55 -34 -110q-1 -35 13 -70q36 -90 153 -90q170 0 291 117t121 280q0 58 -16 106 t-49.5 87.5t-94 62t-141.5 22.5q-159 0 -302 -83.5t-230 -225.5t-87 -303q0 -207 137 -319q-46 45 -72 109q-27 65 -32 135q-1 18 -1 35q0 53 11 111q15 76 47 148t84 136.5t117 112.5t150.5 76.5t179.5 28.5q3 0 4 -2t0 -4t-4 -2q-233 0 -396 -166q-131 -131 -170 -316 q-14 -65 -14 -123q0 -105 45 -191q76 -148 257 -166q23 -2 48 -2q106 0 206.5 31t182.5 82.5t163 125t144.5 150.5t131 167.5t118.5 167.5t110 160t104 136v4q0 123 -58.5 199.5t-130.5 76.5q-17 0 -30 -3.5t-20 -8t-11.5 -9.5t-5.5 -9l-2 -3q-18 0 -26 15.5t-0.5 31 t26.5 15.5q97 0 161 -51t92 -138q7 12 26 6t32 -30q-23 126 -102.5 198t-211.5 72q-167 0 -275 -124q-85 -98 -93 -223q-1 -12 -1 -24q0 -104 65 -162q52 -46 134 -46q94 0 136 69q18 31 18 58q0 15 -5 28q-10 24 -34 25q-14 0 -22.5 -6.5t-10.5 -13.5l-2 -7q-19 0 -27 15 t0 30t27 15q61 0 78 -53q6 -17 6 -34q0 -35 -25 -72q-46 -67 -139 -67q-131 0 -184 105q-27 53 -27 116q0 49 16 104q38 133 147 211q95 68 218 68q142 0 226.5 -82.5t103.5 -222.5q90 84 172 84q47 1 63 -31q7 -14 7 -28q0 -18 -12 -36q-21 -32 -64 -32q-18 0 -25.5 15 t0.5 30t27 15q0 -3 0.5 -7t7.5 -11t19 -7q26 0 33 26q9 30 -18 47q-15 9 -38 9q-79 0 -170 -88l4 -70q0 -89 -29.5 -195.5t-73.5 -207t-89 -198.5t-82.5 -201.5t-48.5 -184.5h6q26 96 119 236t220.5 286t281.5 292.5t299.5 260t277.5 185t213 71.5q107 -1 141 -79 q14 -32 14 -64q0 -46 -29 -92q-49 -78 -142 -78q-64 0 -95.5 28.5t-31.5 65.5q0 17 8 24t16 1q6 39 37 66.5t76 27.5q15 0 25 -9t10 -22q0 -10 -9 -19t-20 -9q-10 26 -43 26q-38 0 -58 -42q-10 -21 -11 -42q-1 -22 11 -44q22 -42 85 -42q83 0 129 73q28 44 28 88 q0 29 -12 57q-30 72 -129 73q-82 0 -221.5 -78.5t-293.5 -201.5t-314 -279.5t-287 -308t-208 -291.5t-81 -225q0 -65 28.5 -111.5t67.5 -46.5q4 0 5 -2.5t-0.5 -5t-4.5 -2.5q-66 0 -102.5 76t-36.5 167q0 95 43.5 230t95 250t95 251.5t43.5 233.5q-43 -53 -101.5 -136.5 t-109 -159.5t-118 -166.5t-131 -165.5t-145 -148t-163.5 -123t-183 -80.5t-207 -30.5q-92 0 -164 21t-116.5 55.5t-77 81t-48.5 95.5t-29 101t-19 96t-17.5 81.5t-27.5 56.5q12 -24 -3.5 -51t-52.5 -27q-64 0 -83 50zM5 591q-9 -19 -9 -36q0 -20 12 -37q17 -24 51 -24 q37 0 46 27q6 17 -6 21q-1 1 -3 1q-7 0 -10.5 -5.5t-3.5 -10.5v-5q-19 0 -26.5 15t0.5 30t26 15q28 0 46 -24t27 -64t17 -90t22.5 -105.5t36.5 -106.5t65.5 -96t104.5 -71q-93 51 -141.5 143t-48.5 217q0 31 -4 65.5t-15 81.5t-38 77t-66 30q-60 0 -83 -48z" />
<glyph unicode="O" horiz-adv-x="1366" d="M0 27q0 89 59.5 156t151.5 67q19 0 27 -15t0.5 -30t-25.5 -15q0 1 -1 3.5t-5.5 8t-10 10t-16.5 8t-24 3.5q-54 0 -101 -60t-47 -136q0 -71 46 -127.5t139 -79.5q-87 50 -87 172q0 26 15.5 42.5t30.5 16.5q20 0 20 -20v-4q40 43 100 43q54 0 73 -39q8 -17 8 -35 q-1 -22 -13 -43q-24 -39 -72 -39q-23 0 -32.5 18.5t0 37t32.5 18.5q1 0 0 -3.5t1 -9.5t4.5 -11t10 -9t17.5 -4q19 0 29 14t10 31q0 28 -17.5 44.5t-50.5 16.5q-71 0 -109 -59q-21 -33 -21 -66q0 -23 10 -45q31 -73 140 -81q12 -1 25 -1q166 0 281 183q-99 12 -155 75.5 t-56 178.5q0 103 48 221.5t127 227t185.5 209.5t218.5 175.5t230.5 119t218.5 44.5q78 0 135.5 -27t84.5 -69.5t34 -94.5q2 -17 2 -33q1 -35 -9 -67q-14 -48 -49.5 -88.5t-84.5 -58.5q-15 -90 -70.5 -200t-143.5 -217.5t-191.5 -197.5t-225.5 -145.5t-235 -56.5 q-143 -191 -345 -191q-83 0 -146.5 20.5t-99.5 55t-53.5 74.5t-17.5 84zM465 193q0 -164 143 -191q37 62 74.5 150t66.5 172.5t64.5 180t69.5 178t81 159t100 131t126 87t158 32.5v-9q-84 0 -155.5 -32t-123.5 -85.5t-99 -129t-80 -156.5t-68.5 -175.5t-64 -179 t-65.5 -172.5t-74 -151l25 -2q46 67 91 165.5t79.5 193t73.5 196.5t82.5 186.5t96 153.5t125 108t159.5 39q92 0 138 -51t46 -133l-2 -41q44 19 75.5 57.5t44.5 83.5q8 29 8 58q0 17 -2 35q-8 48 -34.5 87t-80.5 64t-128 25q-99 0 -211.5 -48t-216 -127.5t-200 -186.5 t-167 -220t-113 -232t-42.5 -220zM494 -147q74 46 139 133l-23 2q-55 -88 -116 -135zM672 -2q106 1 223.5 56t218 142.5t187 192.5t143 212.5t72.5 195.5q-40 -9 -66 -9q-56 0 -97 22.5t-58.5 57t-20.5 76.5v11q0 36 16 69q-93 -19 -167 -99t-127.5 -198.5t-98.5 -241.5 t-104.5 -261.5t-120.5 -225.5zM1286 950.5q0 -39.5 16 -73t54.5 -55t93.5 -21.5q35 0 68 10q4 32 4 47q0 76 -42.5 124t-129.5 48q-23 0 -47 -4q-17 -36 -17 -75.5z" />
<glyph unicode="P" horiz-adv-x="1464" d="M12 79q36 38 127 38q73 0 199 -34t237 -77q40 10 95 31l-58 29q-4 2 0 4q16 2 48 18t45 35h4q6 -11 24.5 -24.5t30.5 -16.5q116 63 208 156t181 221q-70 8 -115 53q-5 5 1 9q5 3 10 -1q42 -42 114 -49l39 59q20 31 71.5 110t76.5 116.5t71 103t77.5 105t73 85t79.5 78.5 q-54 115 -177 183.5t-311 68.5q-333 0 -558 -188q-161 -135 -219 -324q-25 -82 -25 -154q0 -80 30 -148q57 -132 202 -160q36 -7 75 -7q182 0 314 144q103 113 131 258q8 41 8 77q0 84 -43 136q-46 57 -130 57q-76 0 -138.5 -29.5t-100.5 -75.5t-58 -98t-20 -102 q0 -76 41 -104q-16 23 -18 60v13q0 31 8 65q10 42 34 84.5t58 76.5t84.5 55.5t107.5 21.5q3 0 4 -2t0 -4t-4 -2q-135 0 -219 -114q-62 -84 -63 -175v-6q0 -71 43 -87q9 -3 20 -3q76 0 108 58q20 37 7 60q-5 9 -15 9q-12 0 -18.5 -7t-6.5 -13l-1 -7q-15 0 -26 11.5t-11 25.5 t10.5 25.5t26.5 11.5q49 0 60 -46q3 -11 3 -22q0 -36 -28 -70q-40 -47 -109 -48q-57 0 -89 26.5t-39.5 58.5t-15.5 71.5t-20 54.5q8 -23 -6.5 -43.5t-48.5 -20.5q-44 0 -58 34q-6 14 -6 28q0 22 14 42q22 34 66 34q46 0 74 -31q8 16 25 16q15 0 22 -14q39 83 116.5 138.5 t186.5 55.5q124 0 167 -108q19 -48 20 -104q0 -65 -27 -142q-52 -153 -173 -248q-119 -94 -267 -94q-179 0 -264 130q-54 84 -54 195q0 46 9 96q34 188 178 338q188 197 484 238q69 9 142 9q185 0 315 -66.5t195 -177.5q117 90 230 90q122 0 194 -67t72 -175 q0 -98 -62 -171.5t-163 -73.5q-18 0 -26 15t0 29.5t26 14.5q1 -4 3.5 -10t15 -15.5t30.5 -9.5q66 0 117 66t51 155q0 64 -33 120t-96 85q45 -36 45 -90q0 -31 -16 -37q-7 -2 -11 4q-10 -47 -44.5 -78.5t-84.5 -31.5q-64 -1 -87 45q-12 23 -12 46q0 24 12 46q23 46 71 45 q23 0 32.5 -18.5t0 -37t-32.5 -18.5v10t-7 15.5t-22 9.5q-28 0 -38 -35q-4 -14 -5 -26q0 -27 20 -48q23 -26 68 -26q71 1 107 63q18 32 18 64q0 30 -16 60q-33 62 -127 63q-118 0 -220 -99q34 -66 44 -140q4 -32 5 -63q0 -41 -8 -81q-13 -71 -51 -137.5t-95.5 -118.5 t-142.5 -86.5t-186 -42.5q-192 -267 -456 -391q37 -14 79 -23q2 0 2 -2t-2 -2q-41 -4 -104 -39q53 -27 78 -38.5t70 -25.5t83 -16q16 11 48 34.5t49 35t41.5 26t44.5 21t39 6.5q29 0 33 -25v-7q0 -31 -43 -59q-68 -44 -199 -44q-144 -103 -260 -103q-65 0 -99 25t-37 64 q0 3 2 4.5t4.5 0.5t2.5 -5q3 -34 32 -56t82 -22q106 0 244 94q-93 9 -231 82q-51 -30 -66 -53q-2 -2 -4 0q-25 19 -107 51q-140 -35 -301 -35q-191 0 -254 56q-21 19 -21 37q0 15 13 29zM23 69q-8 -10 -8 -20q0 -19 30 -38q66 -42 229 -42q138 0 279 31q-107 41 -225.5 72.5 t-188.5 31.5q-89 0 -116 -35zM466 865q-5 -13 -5 -25q0 -20 14 -35q13 -14 33 -14q34 0 44 21q4 16 -11 19q-7 0 -11 -5t-4 -10v-5q-19 0 -26.5 14.5t0.5 29.5t26 15q34 0 49.5 -27t17.5 -61t17 -71.5t47 -53.5q-39 36 -39 109q0 65 -23 103t-65 38q-49 0 -64 -42zM598 -2 q61 -24 84 -43q25 28 57 45l-47 27q-58 -22 -94 -29zM637 68l49 -25l64 31q-26 14 -43 35q-31 -35 -70 -41zM709 33l43 -25q45 25 88 35q-37 6 -64 18q-54 -23 -67 -28zM1030 -78q143 4 196 61q25 27 12 43q-6 7 -17 7q-15 0 -31.5 -5.5t-37.5 -18.5t-36 -23.5t-43.5 -32 t-42.5 -31.5zM1260 473q81 10 151.5 43.5t121.5 82t87 110.5q38 63 54 129q14 58 14 117v18q-2 69 -27 131q-56 -59 -113.5 -150t-131 -222.5t-122.5 -207.5z" />
<glyph unicode="Q" horiz-adv-x="1298" d="M-77 -151q-12 13 -12 24q0 13 16 25q25 18 75 18q104 0 256 -80q32 10 70 33l-54 27q-4 2 0 4q20 5 50 19.5t43 33.5h4q9 -14 32 -31q26 23 60 66q-101 12 -158 75.5t-57 178.5q0 103 48 221.5t127.5 227t186 209.5t219 175.5t231 119t218.5 44.5q78 0 135 -27t84 -69 t34 -93q2 -17 2 -34q0 -34 -9 -66q-15 -48 -49 -88.5t-82 -58.5q-15 -90 -71.5 -200.5t-145 -218.5t-193 -198t-227 -146t-234.5 -56h-4q-41 -48 -82 -78q48 -19 99 -31v-2q-39 -3 -113 -43q164 -86 340 -86q184 0 258 94q32 41 32 83q0 15 -4 30q-18 42 -53 47 q-15 0 -24.5 -8t-12.5 -16l-2 -7q-21 0 -30 18.5t0 37t32 18.5q43 0 71 -26.5t34 -67.5q8 3 16 -5.5t8 -25.5q0 -33 -25 -68.5t-71 -62.5q129 53 172 161q17 43 17 81q0 37 -16 69q-27 56 -83 56q-2 0 -2 2.5t1 5t3 2.5q64 0 93 -63q15 -33 15 -70q0 -43 -20 -90 q-47 -112 -180 -167q-98 -40 -229 -40q-109 0 -190.5 24t-161.5 68q-46 -27 -62 -51q-3 -3 -6 0q-20 17 -78 49q-68 -19 -141 -19q-155 0 -200 46zM-72 -121q-1 -3 -1 -6q0 -20 41 -36q55 -21 155 -21q62 0 121 16q-148 72 -242 72q-64 0 -74 -25zM279 -174q33 -18 65 -41 q18 23 55 43q-9 5 -25 14.5t-20 12.5q-37 -18 -75 -29zM295 -102l45 -23q35 21 55 41q-16 10 -26 23q-27 -30 -74 -41zM328 193q0 -167 147 -191q46 62 87.5 148.5t71.5 171.5t65 180t66.5 178t76 160t95 132t122.5 87.5t158 32.5v-9q-85 0 -155 -32t-119.5 -86.5 t-93.5 -130.5t-75 -158t-65.5 -176.5t-64 -179t-71 -171.5t-86.5 -149q2 0 11 -1t12 -1q56 68 104.5 165t82.5 192t70 197t75.5 187.5t88.5 154.5t120 108.5t161 39.5q91 0 138 -51.5t47 -132.5l-2 -39q44 19 75 57t44 83q7 28 7 57q0 18 -3 36q-7 47 -33 85.5t-80 63 t-127 24.5q-99 0 -211.5 -48t-216 -127.5t-199.5 -185.5t-167 -219t-113.5 -232t-42.5 -220zM352 -131h2q29 15 58 37l-6 4q-15 -15 -54 -41zM367 -139l45 -25q47 26 94 37q-41 8 -80 25zM414 -84l8 -4q45 36 76 72q-3 0 -11 1t-12 1q-33 -45 -61 -70zM530 -2q90 0 187.5 39 t185 103t169.5 147t144.5 171.5t105 177t56.5 161.5q-36 -9 -65 -9q-56 0 -97 22.5t-58.5 57t-20.5 76.5v11q0 36 16 69q-93 -19 -164 -99.5t-121.5 -198.5t-95 -242.5t-107.5 -261t-135 -224.5zM1147 950.5q0 -39.5 17 -73t55.5 -55t93.5 -21.5q37 0 67 12q4 18 4 45 q0 76 -42.5 124t-129.5 48q-19 0 -47 -4q-18 -36 -18 -75.5z" />
<glyph unicode="R" horiz-adv-x="1032" d="M2 1032q-1 14 -1 29q-1 53 17 105q22 66 67.5 122.5t123.5 91.5t176 35q70 0 128 -15t98 -41t69.5 -60.5t45.5 -72.5t24 -80q6 -35 6 -66v-12q-2 -38 -11 -73q52 17 142 39q120 127 180 127q12 0 20.5 -7t8.5 -19q0 -51 -158 -97q-42 -53 -97 -132t-131 -192.5 t-120 -176.5q-235 -340 -263 -382q-64 -99 -64 -120q0 -6 5 -6q20 0 73 66t126 171.5t161.5 233t189.5 255t201 233t204.5 171.5t191.5 66q96 0 105 -84q1 -7 0 -15q0 -86 -81 -207q-102 -150 -258 -245q-97 -58 -196 -82q29 -37 29 -86q0 -54 -50 -126.5t-121 -150 t-142 -163.5t-121 -194.5t-50 -215.5q0 -110 95 -172q-14 46 -14 96q0 46 11 91q11 47 36 89t59.5 74t84 51t107.5 19q106 0 146 -88q18 -40 18 -85q0 -47 -19 -99q-41 -110 -141 -163q-68 -36 -149 -36q-64 0 -121 26q28 -73 92 -117t158 -44q82 0 153.5 33.5t116.5 84.5 t71 109t26 110q0 39 -15 64t-41 25q-14 0 -23 -7t-11 -13l-3 -7q-18 0 -26.5 14.5t-1.5 29.5t26 15q51 0 77 -33t26 -88q0 -54 -26 -113t-71.5 -111.5t-119 -87t-158.5 -34.5q-101 0 -167.5 48.5t-94.5 127.5q-59 33 -91 91t-32 127q0 77 24.5 156.5t64 147t87.5 134 t96 125.5t87.5 111.5t64 103t24.5 90.5q0 21 -6 33q-70 -9 -94 -9q-65 0 -74 26q-7 21 27 34q24 10 57 10q62 0 105 -37q162 55 320 222q128 134 173 251q16 43 16 71q0 44 -38 56q-11 4 -27 4q-86 0 -190.5 -67t-204 -174.5t-201 -237t-191 -259t-164 -237t-129 -174.5 t-77.5 -67q-39 0 -39 39q0 43 47.5 133.5t98 167t153.5 225.5q218 313 356 461q-75 -19 -133 -37q-12 -45 -33.5 -71.5t-45.5 -26.5q-11 0 -20 7.5t-9 20.5q0 42 100 76q9 33 11 69q1 11 1 21q0 27 -4 55q-6 40 -20.5 78.5t-43 73t-67.5 60.5t-97 41.5t-128 15.5 q-94 0 -169 -32.5t-119 -85.5t-67 -116q-20 -55 -20 -110v-17q4 -64 31 -116q8 62 29 118t57.5 107t96.5 81t136 30q105 0 150 -89q24 -48 24 -102q0 -40 -13 -84q-34 -110 -130 -162q-60 -32 -135 -32q-138 0 -207 102q-2 -18 -2 -51q0 -126 59.5 -218.5t135.5 -92.5 q17 0 27.5 8.5t12.5 16.5l1 9q18 0 26 -14.5t1 -29.5t-25 -15q-111 0 -179.5 99.5t-68.5 236.5q0 42 2 65q-31 53 -37 121zM51 913q67 -108 205 -108t215 105q55 74 55 161q0 11 -1 23q-8 97 -79 138q-37 21 -84 21q-85 0 -138.5 -52.5t-53.5 -131.5q0 -48 21 -78t57 -30 q16 0 25 7.5t11 15.5l1 7q13 0 21.5 -8t8.5 -20q0 -14 -8.5 -22.5t-21.5 -8.5q-52 0 -83.5 28.5t-41.5 73.5q-7 -4 -14 -2.5t-13 13t-6 28.5q0 71 55 123q-110 -84 -131 -283zM624 -372q-3 -25 -3 -49q0 -53 16 -101q61 -33 127 -33q144 0 231 107q66 82 66 177v6 q-2 96 -71 136q-34 20 -81 20q-94 0 -151.5 -60.5t-57.5 -162.5q0 -35 16.5 -66.5t51.5 -31.5q18 0 29.5 9t13.5 19l2 9q24 0 33.5 -18.5t0 -37t-31.5 -18.5q-53 0 -85 31t-40 80q-10 -5 -21.5 6t-11.5 35v8q0 34 21 78q-44 -63 -54 -143zM645 915q0 -6 5 -11t12 -5 q21 0 39.5 22.5t29.5 59.5q-86 -30 -86 -66zM796 614q-2 -4 -2 -7q0 -11 24 -16q13 -3 32 -3q46 0 92 12q-22 35 -76 35q-58 0 -70 -21zM948 1051q66 20 100.5 39t34.5 45q0 14 -16 14q-38 0 -119 -98z" />
<glyph unicode="S" horiz-adv-x="1234" d="M-2 301q0 97 38 193.5t105.5 177t173 130.5t228.5 50q154 0 231.5 -78t77.5 -196q0 -153 -62.5 -281t-164 -199t-217.5 -71q-91 0 -111 49q-13 29 8 48q9 9 21 9q16 0 23 -9t7 -20h-7.5t-11.5 -7t-7 -21q0 -19 21.5 -30t56.5 -11q138 0 252 104.5t157 268.5 q-47 -116 -142 -192.5t-188 -76.5q-49 0 -61 24q-6 13 6 21q-57 8 -94 39.5t-49 72.5q-7 25 -7 53q0 17 2 35q8 46 32 85t65.5 64.5t91.5 25.5q47 0 70.5 -23t23.5 -57t-22.5 -60t-59.5 -26q-24 0 -33 18.5t1 37t32 18.5q0 -3 1 -7.5t9 -12t21 -7.5q17 0 28 11.5t11 27.5 q0 29 -20.5 48.5t-61.5 19.5q-42 0 -78 -19.5t-57.5 -50.5t-34.5 -69q-9 -26 -9 -52q0 -10 2 -22q6 -38 23 -69t56.5 -50.5t93.5 -19.5q105 0 191.5 55.5t133 143t46.5 184.5q0 113 -74.5 187.5t-222.5 74.5q-120 0 -222.5 -48.5t-169 -126.5t-104 -173t-37.5 -191 q0 -75 24 -140.5t71.5 -117t126 -81.5t178.5 -30q122 0 219.5 34t164 94t119 138.5t91 171t72.5 188t70.5 192.5t78 181t103.5 158t138 119q11 6 12 -1q0 -4 -5 -7q-66 -40 -116.5 -101t-86 -141t-59.5 -151.5t-52 -171.5q-22 -79 -34 -119t-37.5 -112t-46 -111.5t-56 -99 t-71.5 -92.5t-89 -72.5t-112 -60t-136.5 -34.5t-166.5 -14q-103 0 -184 31t-129.5 84.5t-73.5 121t-25 144.5zM717 -72q100 38 176.5 100t125.5 138t85 160.5t62.5 178.5t49.5 179.5t55.5 176.5t71.5 157q66 114 165.5 173.5t201.5 59.5q117 0 166 -90q24 -44 24 -95 q0 -38 -14 -80q-33 -101 -126 -148q-59 -29 -130 -29q-72 0 -110.5 39.5t-38.5 97.5q0 68 49.5 124t128.5 56q12 0 19.5 -6t9.5 -15t0 -17.5t-9 -14.5t-18 -6q-1 3 -3 7.5t-15 12t-33 7.5q-52 0 -84.5 -47.5t-32.5 -100.5q0 -55 34.5 -90t102.5 -35q133 0 206 97 q51 67 51 144q0 14 -2 28q-12 92 -87 130q-38 19 -88 19q-96 0 -192 -56.5t-162 -166.5q-39 -66 -71.5 -157t-55.5 -177t-50 -181t-63.5 -180.5t-86 -162.5t-128 -140t-180.5 -102q-2 -1 -4 -1q-2 -1 -4 1q-3 2 -3 6t7 6z" />
<glyph unicode="T" horiz-adv-x="1251" d="M12 13q-14 15 -14 29q0 17 19 33q37 31 110 31t182.5 -31t202.5 -71q36 11 84 33l-57 29q-4 2 0 4q16 2 47.5 18t44.5 35h4q14 -25 47 -39q37 23 72.5 51.5t65 54.5t62.5 64.5t55 64.5t54 72.5t48.5 70.5t48 76t43 71.5t43.5 74.5t47 80.5t45 73.5t47 72t46 61.5t50 57 t50.5 44t56.5 36t59 20t65 8.5q47 1 63 -31q7 -14 7 -28q0 -18 -12 -36q-21 -32 -64 -32q-18 0 -25.5 15t0.5 29.5t27 14.5q0 -3 0.5 -7t7.5 -11t19 -7q26 0 33 26q9 30 -18 47q-15 9 -38 9q-32 0 -61.5 -11t-58 -37.5t-51 -52t-52 -73t-49.5 -82t-54.5 -96.5t-56.5 -100 q-56 -95 -106.5 -170t-119 -159.5t-150 -154.5t-170.5 -120q49 -17 88 -25q1 0 1 -2t-1 -2q-33 -3 -99 -37q85 -29 170 -29l11 11q33 33 50.5 49t44 31.5t48.5 15.5q29 0 34 -25q1 -5 1 -10q0 -27 -37 -50q-48 -29 -135 -34q-60 -63 -116.5 -100t-125.5 -37q-65 0 -98.5 25 t-36.5 63q0 3 2 4.5t4 0.5t2 -5q3 -34 32.5 -56t82.5 -22q62 0 114 34t111 93q-91 0 -172 35q-57 -33 -74 -57q-2 -2 -4 0q-32 24 -92 49q-129 -33 -250 -33q-201 0 -254 56zM21 62q-9 -11 -9 -21q0 -18 27 -34q62 -38 229 -38q118 0 226 31q-232 94 -367 94q-78 0 -106 -32 zM369 950q21 171 145 299q164 170 433 182q20 1 40 1q113 0 213 -20t160 -45t133.5 -54t126.5 -41q68 45 129 45q47 0 56 -24q8 -21 -25 -35q-23 -9 -56 -9q-44 0 -104 11q-29 -21 -41 -31q57 -7 124 -34t132 -60t135.5 -65.5t159 -54.5t178.5 -22q100 0 171 48t71 130 q0 47 -30.5 80t-82.5 33q-74 0 -103 -61q-11 -23 -11 -43q0 -17 8 -33q10 -16 26 -17q16 0 25.5 9t10.5 19l1 9q23 0 32.5 -17.5t0 -35.5t-32.5 -18q-59 0 -76 51q-6 17 -6 34q0 32 21 62q37 50 104 51q48 0 79.5 -26t39.5 -66q8 8 18 7.5t18.5 -12.5t8.5 -30 q0 -61 -64 -116q73 45 111.5 115t38.5 139q0 64 -30.5 108.5t-73.5 44.5q-18 0 -30 -9t-15 -17l-3 -9q-19 0 -27 15t0 30t27 15q76 0 118 -51t42 -127q0 -55 -23.5 -110.5t-68.5 -104t-122 -79t-173 -30.5q-93 0 -183 23t-162 56.5t-138 67t-134.5 59.5t-127.5 30l-18 -13.5 t-18.5 -13.5t-16.5 -12t-18 -12.5t-16.5 -9.5t-17 -9t-15.5 -6.5t-16.5 -4.5t-15.5 -1q-41 0 -41 28q0 23 39 44q49 24 129 24h23q3 3 43 31q-52 12 -124.5 41t-130.5 53t-155 43.5t-207 19.5q-276 0 -447 -165q-127 -122 -155 -290q-6 -40 -6 -77q0 -110 55 -194 q83 -127 253 -132h13q184 0 305 134q94 103 109 236q2 22 2 42q0 97 -56 156q-52 53 -140 53q-64 0 -117.5 -24t-86.5 -62.5t-51 -83.5t-18 -90q0 -81 45 -117q-22 28 -26 72q-1 9 -1 19q0 35 12 72q15 47 44 89t78 69t108 27q3 0 4 -2t0 -4t-4 -2q-114 0 -183 -98 q-49 -71 -50 -148q0 -7 1 -14q5 -79 60 -98q14 -5 31 -5q57 0 80 48q17 35 1 53q-5 6 -13 6q-12 0 -19 -6.5t-9 -13.5l-1 -7q-15 0 -25 11.5t-10 25.5q0 15 9.5 26t25.5 11q48 0 61 -45q3 -12 3 -24q0 -32 -24 -61q-30 -35 -79 -36q-54 0 -88 18t-48.5 47t-21 58.5 t-12.5 60.5t-16 45q7 -22 -8 -41.5t-48 -19.5q-54 0 -66 43q-3 10 -3 20q0 27 23 50q24 24 61 24q48 0 77 -37q0 11 7.5 19t19.5 8q8 0 16 -5.5t9 -12.5q35 65 100 106t152 41q131 0 183 -106q26 -54 25 -117q0 -53 -17 -113q-42 -141 -157 -227q-110 -82 -254 -82 q-180 0 -271 128q-64 90 -64 211q0 30 4 62zM479 1023q-6 -15 -6 -28q0 -20 14 -34q14 -15 37 -15q34 0 43 23q2 15 -10 18q-7 0 -10.5 -4.5t-3.5 -8.5v-5q-19 0 -26.5 14.5t0.5 29.5t26 15q28 0 42.5 -18t19 -46t9 -58t20.5 -59.5t46 -45.5q-45 40 -45 121q-3 143 -88 143 q-50 0 -68 -42zM535 -4q53 -24 73 -41q21 28 62 47l-49 25q-53 -22 -86 -31zM563 68l47 -23l62 31q-24 15 -39 33q-31 -35 -70 -41zM635 33q37 -19 49 -23q45 23 82 33q-54 13 -68 20q-32 -19 -63 -30zM899 -23q109 8 141 54q16 23 -1 35q-6 4 -15 4q-17 0 -39 -14t-33 -25 t-43 -44zM1391 1181q-9 -10 -8 -17q0 -8 9 -13q7 -4 19 -4q43 0 133 72h-6q-111 0 -147 -38zM1638 1270q58 -8 86 -8q57 0 67 21q1 3 1 5q0 10 -21 15q-9 2 -22 2q-50 0 -111 -35z" />
<glyph unicode="U" horiz-adv-x="1251" d="M13 840q36 178 166 313q165 171 406 185q20 1 40 1q170 0 284.5 -102.5t114.5 -271.5q0 -87 -26.5 -174.5t-68.5 -159t-92.5 -139.5t-101.5 -126.5t-93 -109t-68.5 -97.5t-26.5 -83q0 -49 65 -49q128 0 346 178q69 150 166.5 294.5t180 229t120.5 84.5q21 0 21 -25 q0 -60 -131.5 -232t-298.5 -320q-152 -290 -152 -449q0 -132 74 -190q-5 33 -5 67v20q2 44 22 87t49 77t75.5 55t102.5 21q82 0 108 -74q9 -26 9 -54q0 -49 -27 -105q-46 -95 -138 -129q-40 -15 -85 -15q-52 0 -97 25q20 -62 70.5 -99.5t126.5 -37.5q70 0 128 27t92 69.5 t52.5 89t18.5 90.5q0 27 -9 51.5t-32 24.5q-13 0 -21 -6.5t-10 -12.5l-2 -6q-18 0 -25.5 15t0 30t25.5 15q40 0 61 -31t21 -80q0 -45 -19 -93t-54 -91.5t-94.5 -71.5t-131.5 -28q-81 0 -133 41t-74 108q-94 63 -94 211q0 168 98 389q-223 -176 -379 -176q-94 0 -94 80 q0 46 28 100.5t73 110t99.5 116.5t109 129.5t99.5 139t73 154.5t28 167q0 148 -102 239t-256 91q-247 0 -420 -166q-133 -127 -175 -303q-15 -64 -15 -121q0 -94 41 -170q73 -135 247 -143h21q180 0 304 136q97 106 117 244q4 29 4 56q0 94 -52 153q-53 60 -148 60 q-55 0 -104.5 -24t-83.5 -61t-56.5 -83.5t-28.5 -91.5q-2 -17 -3 -34q1 -26 7 -50q10 -39 37 -61q-21 29 -23 76v7q0 44 18 90q18 50 49 94t81 72.5t107 28.5q3 0 4 -2t0 -4t-4 -2q-107 0 -182 -101q-61 -81 -63 -171v-6q0 -80 55 -101q15 -6 34 -6q76 0 110 59q13 23 13 41 q0 11 -5 20q-6 8 -15 9q-12 0 -19 -7t-9 -15l-1 -7q-16 0 -26.5 11.5t-10.5 25.5t10.5 25.5t26.5 11.5q48 0 59 -46q3 -12 3 -23q0 -35 -28 -69q-39 -48 -108 -48q-52 0 -85.5 17t-48 45t-21.5 56t-14 58.5t-17 44.5q5 -23 -9.5 -42t-45.5 -19q-48 1 -64 35q-6 14 -6 27 q0 21 14 41q24 34 70 34q49 0 74 -31q7 18 26 18q17 0 23 -16q35 80 102.5 133t157.5 53q136 0 188 -109q26 -54 26 -120q0 -56 -19 -119q-44 -145 -160 -236q-113 -89 -260 -89q-189 0 -272 136q-50 82 -50 188q0 49 11 104zM107 876q-6 -15 -6 -28q0 -20 14 -34 q14 -15 37 -15q35 0 43 23q3 15 -11 18q-7 0 -10.5 -5t-3.5 -9v-5q-19 0 -26.5 15t0.5 30t26 15h4q29 -2 44 -28t19 -59t19.5 -71t44.5 -57q-39 39 -39 110q0 65 -23.5 103.5t-64.5 38.5q-50 0 -67 -42zM946 -408q37 -32 103 -32q116 0 187 93q51 67 51 140q0 8 -1 16 q-5 77 -66 97q-17 6 -38 6q-80 0 -119 -51.5t-39 -110.5q0 -47 29 -47q11 0 18 6.5t9 13.5l1 7q19 0 26.5 -15t-0.5 -30t-26 -15q-29 0 -46.5 18.5t-22.5 49.5q-8 -2 -15.5 7.5t-7.5 25.5q0 50 45 92q-58 -45 -81 -121q-14 -45 -13 -89q-1 -31 6 -61zM1034 270 q157 144 278.5 300.5t121.5 213.5q0 13 -11 13q-34 0 -158.5 -166t-230.5 -361z" />
<glyph unicode="V" horiz-adv-x="1505" d="M1 719q5 207 128 377q148 206 408 269q102 24 215 24q96 0 188.5 -17.5t172.5 -43t166 -51t203 -43t249 -17.5q5 0 5 -6.5t-5 -6.5q-56 0 -117 -50.5t-115 -129t-118 -192.5t-117 -221t-121 -235t-123 -216q134 80 272 189.5t264.5 238.5t222.5 276t132 281 q-49 93 -49 141q0 55 32 68q25 10 42 -18q10 -16 10 -42q0 -65 -19 -139q6 -13 25 -49.5t28 -58.5q65 120 160 206t189 86q107 -1 141 -79q14 -32 13 -63q0 -47 -29 -93q-49 -78 -142 -78q-72 0 -96 53q-10 23 -10 45q0 32 18 62q32 54 98 53q15 0 25 -9t10 -22 q0 -10 -8.5 -19t-19.5 -9q-10 26 -43 26q-40 0 -60 -42q-10 -20 -9 -42q0 -22 11 -44q22 -42 84 -42q84 0 130 73q28 44 28 89q0 28 -12 56q-30 72 -129 73q-91 0 -185.5 -89t-156.5 -208q18 -59 18 -100q0 -81 -41 -108q-25 -17 -41 2q-8 10 -8 26q0 74 53 174 q-11 35 -49 104q-39 -136 -137.5 -284t-226.5 -277.5t-269.5 -240t-279.5 -189.5q-191 -299 -351 -299q-19 0 -30 11t-11 30q0 20 9 39t29.5 37t39 32.5t52.5 32.5t55 28.5t61.5 29t57.5 26.5q50 87 124.5 243t136.5 280t138.5 253t162.5 213.5t175 110.5 q-151 5 -300.5 33.5t-245.5 59t-194.5 55t-162.5 24.5q-327 0 -533 -194q-154 -146 -196 -355q-13 -67 -13 -129q0 -118 48 -221q73 -156 230 -204q61 -19 130 -19q230 0 382 160q115 122 143 288q7 44 7 83q0 100 -47 173q-64 99 -192 99q-85 0 -153.5 -30.5t-109.5 -80 t-62.5 -107.5t-23.5 -118v-10q0 -119 66 -170q-35 43 -35 125q0 45 12 92.5t37.5 94t61 82.5t88 58.5t113.5 22.5q6 0 6 -4t-6 -4q-60 0 -111 -22t-85.5 -57.5t-59.5 -81t-36.5 -91.5t-11.5 -90q0 -60 25 -103t70 -43q54 0 81 27.5t27 66.5q0 13 -6.5 24t-17.5 11 q-12 0 -20 -6.5t-10 -12.5l-3 -7q-17 0 -27 10.5t-10 25.5q0 13 10.5 24t26.5 11q32 0 50.5 -23t18.5 -57q0 -43 -30.5 -74.5t-89.5 -31.5t-97 22.5t-54 57.5t-23.5 70.5t-14.5 70.5t-18 49q7 -24 -9.5 -45.5t-50.5 -21.5q-53 0 -69 45q-4 14 -4 27q0 28 20 53q27 34 76 34 q46 0 74 -28q2 8 9.5 14t16.5 6q17 0 23 -16q39 98 124 160.5t212 62.5q147 0 213 -121q39 -71 39 -162q0 -51 -12 -108q-35 -170 -159 -290q-152 -146 -374 -146q-206 0 -321 150q-96 125 -96 306v21zM184 807q-7 -17 -7 -32q0 -21 13 -38q14 -18 39 -18q38 0 48 27 q6 17 -7 21q-2 1 -4 1q-7 0 -10.5 -5t-3.5 -10v-5q-19 0 -26.5 15t0.5 29.5t26 14.5q29 0 44 -23t21.5 -58.5t14.5 -72.5t29.5 -71.5t58.5 -49.5q-33 26 -51.5 73.5t-18.5 105.5q0 145 -90 145q-56 0 -76 -49zM627 -121q0 -13 8 -21t20 -8q112 0 250 234q-14 -7 -47.5 -22 t-54 -24.5t-51 -25.5t-49.5 -29.5t-38.5 -30.5t-28.5 -35.5t-9 -37.5zM1880 1286q0 -45 39 -115q14 72 14 123q0 39 -21 45q-3 1 -6 1q-14 0 -22 -24q-4 -12 -4 -30zM1927 850q0 -21 15 -21h1q20 1 33 35q11 28 11 66q0 22 -13 76q-47 -92 -47 -156z" />
<glyph unicode="W" horiz-adv-x="1738" d="M1 719q5 207 128 377q148 206 408 269q102 24 215 24q96 0 188.5 -17.5t172.5 -43t166 -51t203 -43t249 -17.5q6 0 5.5 -6.5t-5.5 -6.5q-44 0 -89 -25.5t-90.5 -78.5t-85 -110t-88 -146t-84 -158t-88.5 -173.5t-86 -168.5q23 15 90.5 59.5t101.5 67t88.5 59.5t99.5 69 t87 63q44 103 77 175.5t75.5 152t78 127.5t76.5 80t80 32q19 0 30 -14.5t11 -40.5q0 -188 -325 -451q-110 -267 -158 -369q91 67 154.5 115.5t148.5 118.5t145.5 131.5t121 133t102 146t63.5 148.5q-49 89 -49 139q0 56 32 71q25 12 42 -16q10 -17 10 -45q0 -70 -18 -137 q34 -66 53 -110q65 120 159.5 206t188.5 86q107 -1 141 -79q14 -32 14 -64q0 -46 -29 -92q-49 -78 -142 -78q-72 0 -96 53q-10 23 -10 45q1 32 19 62q32 54 97 53q15 0 25 -9t10 -22q0 -10 -9 -19t-20 -9q-10 26 -43 26q-39 0 -59 -42q-10 -20 -9 -41q0 -23 11 -45 q22 -42 84 -42q83 0 129 73q28 44 28 88q0 29 -12 57q-30 72 -129 73q-92 0 -185.5 -88.5t-156.5 -208.5q18 -59 18 -100q0 -83 -41 -112q-25 -18 -41 3q-8 11 -8 29q0 71 53 174q-5 13 -49 104q-24 -76 -67 -151t-106 -147.5t-124.5 -133.5t-149 -131.5t-150 -117.5 t-156.5 -115q-41 -86 -79 -156t-82.5 -135t-88 -109t-92.5 -70t-97 -26q-41 0 -41 41q0 39 27 83.5t85 98t115.5 99t151.5 114.5q84 190 156 363q-53 -39 -120.5 -85t-108.5 -73t-129.5 -84.5t-112.5 -72.5q-57 -108 -107 -188.5t-107.5 -151t-117.5 -107.5t-119 -37 q-20 0 -31.5 11t-11.5 30q0 71 99.5 163.5t287.5 221.5q24 49 67.5 142t71.5 151.5t72.5 145t78.5 143t80.5 123t88.5 109t93 77.5t102 49q-124 4 -244.5 23.5t-210.5 44t-170 48.5t-151.5 40t-124.5 16q-328 0 -533 -195q-153 -147 -194 -356q-12 -65 -12 -126 q1 -121 49 -224q74 -156 230 -203q59 -18 126 -18q231 0 383 161q115 123 143 288q7 43 7 82q0 101 -47 174q-64 98 -191 98q-70 0 -129 -21t-99.5 -56t-68.5 -80t-41 -93t-13 -96q0 -123 68 -170q-37 43 -37 125q0 45 12 92.5t37.5 94t61 82.5t88 58.5t113.5 22.5q6 0 6 -4 t-6 -4q-59 0 -110 -22t-86 -57.5t-60 -81t-36.5 -92t-11.5 -89.5q0 -59 25.5 -102.5t69.5 -43.5q55 0 82.5 27.5t27.5 66.5q0 35 -26 35q-12 0 -20 -6.5t-10 -12.5l-3 -7q-15 0 -26 10.5t-11 25.5q0 13 10.5 24t26.5 11q33 0 52 -23t19 -57q0 -42 -31.5 -74t-90.5 -32 q-58 0 -96 22t-54.5 57.5t-24 71t-14.5 71t-18 50.5q5 -26 -9.5 -47.5t-50.5 -21.5q-52 0 -68 45q-5 14 -5 27q0 28 20 53q27 34 76 34q52 0 76 -30q1 9 9 15.5t17 6.5q17 0 23 -14q39 96 124 158.5t212 62.5q146 0 212 -121q39 -72 39 -163q0 -50 -12 -107 q-36 -170 -160 -290q-152 -146 -374 -146q-206 0 -321 150q-96 125 -96 306v21zM184 807q-7 -17 -8 -32q0 -21 14 -38q14 -18 39 -18q38 0 48 27q6 17 -6 21q-1 1 -3 1q-8 0 -11.5 -5t-2.5 -10v-5q-19 0 -27 15t0 29.5t27 14.5q28 0 43 -23t21.5 -58.5t14 -72.5t28.5 -71.5 t57 -49.5q-68 53 -68 179v12q-2 62 -24 97.5t-66 35.5q-56 0 -76 -49zM625 -121q0 -29 30 -29q82 0 161 101t173 291q-175 -118 -269.5 -207t-94.5 -156zM1055 -121q0 -13 8 -21t20 -8q55 0 113.5 56.5t107.5 139.5t107 208q-177 -129 -266.5 -217t-89.5 -158zM1702 752 q299 246 299 422q0 38 -27 38q-19 0 -39.5 -15.5t-43 -48.5t-43.5 -70t-47.5 -95t-47.5 -107.5t-51 -123.5zM2236 1288q0 -8 1 -15.5t3.5 -16.5t4 -14.5t7 -16.5t7 -15t8.5 -17.5t8 -16.5q15 58 15 120q0 42 -21 47q-3 1 -5 1q-14 0 -23 -24q-5 -13 -5 -32zM2284 852 q0 -26 15 -26h1q20 2 33 39q10 28 10 65q0 24 -12 78q-47 -92 -47 -156z" />
<glyph unicode="X" horiz-adv-x="1849" d="M0 209q0 89 59.5 156t151.5 67q18 0 26 -15t0 -29.5t-26 -14.5q-1 4 -3.5 10t-16.5 15.5t-35 9.5q-53 0 -100.5 -61.5t-47.5 -137.5q0 -71 45 -128.5t137 -80.5q-84 45 -84 170q0 27 14.5 43t31.5 16q16 0 20 -18q43 43 100 43q54 0 73 -40q8 -18 8 -35q-1 -21 -13 -43 q-24 -40 -72 -40q-23 0 -32.5 18.5t0 37t32.5 18.5q0 -4 0.5 -10t9.5 -15.5t25 -9.5q18 0 27.5 13.5t9.5 29.5q0 29 -17 46.5t-51 17.5q-69 0 -108 -59q-23 -35 -23 -70q0 -22 9 -44q29 -73 138 -82q13 -1 27 -1q145 0 292 60.5t265.5 160t211.5 220.5t144.5 249.5 t51.5 238.5q0 67 -15.5 123t-50 104t-97 75.5t-148.5 27.5q-266 0 -460 -167q-143 -123 -197 -291q-24 -75 -23 -140q0 -72 29 -131q62 -123 228 -127h11q189 0 332 146q108 111 143 253q12 48 12 89q0 71 -36 116q-41 51 -119 51q-76 0 -147 -34.5t-119.5 -88t-77.5 -118 t-29 -125.5q0 -46 21.5 -72t64.5 -26q78 0 108 58q19 37 5 60q-5 9 -15 9t-16 -6.5t-7 -13.5l-1 -7q-17 0 -27 10.5t-10 26.5q0 14 10 25.5t27 11.5q47 0 59 -45q3 -12 3 -24q0 -35 -27 -69q-40 -48 -109 -49q-41 0 -65.5 22t-30.5 60q-12 -12 -28.5 -2t-16.5 37 q0 31 19 76.5t57 97t87.5 96t119.5 74t145 29.5q119 0 154 -103q13 -38 14 -83q0 -71 -35 -156q-61 -151 -188 -245q-126 -93 -277 -93q-175 0 -244 124q-36 65 -36 146q0 59 19 128q49 171 191 300q189 172 453 181q15 1 29 1q100 0 177 -29t122.5 -79.5t68.5 -115 t23 -140.5q0 -138 -80 -295q123 166 290 312t349 239.5t324 93.5q99 -1 135 -63q17 -29 16 -58q0 -32 -21 -66q-40 -62 -122 -63q-55 -1 -75 39q-9 18 -8 36q0 22 12 44q24 40 73 39q24 0 33.5 -18.5t-0.5 -37t-33 -18.5q0 4 -0.5 10t-9.5 15.5t-25 9.5q-19 0 -29 -13 t-10 -30q0 -29 19 -47t53 -18q44 0 77 24q34 22 44 56q7 22 6 44q0 11 -2 23q-6 33 -41 56.5t-92 23.5q-105 0 -235 -53.5t-255 -141t-245.5 -202t-210.5 -232.5t-145.5 -237.5t-55.5 -212.5q0 -73 34 -117.5t99 -48.5q7 65 27.5 134.5t56.5 139t81.5 124t108.5 88.5t133 34 q99 0 107 -82q1 -7 0 -15q0 -78 -74 -185q-91 -128 -224 -198q-86 -45 -171 -51q3 -95 54 -154t149 -59q103 0 166 61.5t63 123.5q0 24 -20 24q-8 0 -14 -5.5t-8 -11.5l-1 -5q-18 0 -26 14.5t-0.5 29.5t26.5 15q53 0 53 -61q0 -67 -66 -131t-173 -64q-127 0 -181 94 q-8 -20 -30 -8q-34 17 -38 79q-1 7 -1 15q0 29 2 43q-71 4 -108.5 51.5t-37.5 125.5q0 117 84 272q-156 -197 -382.5 -324t-469.5 -127q-158 0 -236.5 68.5t-78.5 167.5zM1272 -12q154 12 296 141q109 100 149 209q15 42 15 72q0 45 -33 68q-24 16 -63 16q-91 0 -177 -78 t-137 -196t-50 -232z" />
<glyph unicode="Y" horiz-adv-x="1492" d="M-221 -344q0 97 38 193.5t105.5 177t172.5 130.5t227 50q154 0 232.5 -78.5t78.5 -196.5q0 -153 -62.5 -280.5t-164.5 -198.5t-218 -71q-91 0 -111 49q-13 29 8 48q9 9 21 9q16 0 23.5 -9t7.5 -20h-7.5t-11.5 -7t-7 -21q0 -19 21 -30t56 -11q138 0 252.5 105t157.5 269 q-47 -117 -142.5 -193.5t-189.5 -76.5q-26 0 -43.5 8.5t-19 19t5.5 19.5q-56 8 -92.5 39t-48.5 72q-7 26 -7 54q0 17 3 34q7 46 31 84.5t65.5 64t91.5 25.5q47 0 71.5 -23.5t24.5 -56.5q0 -34 -23.5 -61t-60.5 -27q-23 0 -31.5 18.5t1 37t30.5 18.5q0 -3 1 -7.5t9 -12 t21 -7.5q17 0 30 13t13 28q0 29 -21.5 49.5t-64.5 20.5q-41 0 -77.5 -19.5t-58 -51t-34.5 -69.5q-9 -27 -9 -53q0 -11 1 -23q6 -37 23.5 -68.5t56.5 -51t94 -19.5q89 0 163 37.5t118 96t68 123.5t24 126q0 113 -75 188t-224 75q-120 0 -222.5 -48.5t-169 -126.5t-103.5 -173 q-36 -93 -36 -186v-5q0 -113 55 -203t162 -133q-88 48 -135 138t-47 196q0 71 20.5 142t63 135.5t100.5 114.5t139 80t173 30q4 0 4 -4.5t-4 -4.5q-111 0 -205 -44.5t-154.5 -116t-94.5 -158.5t-34 -174q0 -73 23 -138.5t66 -116.5t112 -80.5t155 -29.5q89 0 178 28 t167 74.5t157.5 116.5t145.5 144t136 169t125 179t115 184q-216 -180 -346 -180q-54 0 -89.5 26.5t-35.5 71.5q0 42 31.5 98t82.5 117t112 129t122 141.5t112 147t82.5 154t31.5 153.5q0 116 -75 183t-193 67q-106 0 -200.5 -40t-159 -102.5t-108.5 -141.5t-57 -155 q-6 -33 -6 -64q0 -42 10 -81q17 -68 66 -108q-2 25 -2 39q0 75 26.5 154.5t73 147.5t120.5 111.5t159 43.5q109 0 142 -95q12 -34 12 -73q0 -63 -32 -139q-54 -128 -163 -197q-84 -53 -180 -53q-93 0 -146 36q12 -69 49.5 -111t91.5 -42q19 0 30.5 9t13.5 19l2 9 q18 0 26 -15t0 -30t-26 -15q-84 0 -134 50.5t-61 132.5q-54 40 -76 110q-14 46 -14 96q0 27 4 54q12 80 56 163t110 149t164 108.5t209 42.5q133 0 217 -82t84 -224q0 -93 -40 -194t-100 -184.5t-130.5 -168.5t-130.5 -150t-100 -125.5t-40 -98.5q0 -53 74 -53 q125 0 354 198q36 60 82.5 141l77.5 135t68.5 117t65 103t56 76t52.5 52.5t44 16.5q35 0 35 -39q0 -68 -123 -235.5t-284 -319.5q-58 -109 -109 -197.5t-122.5 -195t-140 -188t-156.5 -162t-177 -133t-196.5 -85t-219.5 -32.5q-103 0 -183.5 30.5t-129.5 84t-73.5 120.5 t-24.5 144zM600 637l2 -43q59 -43 148 -43q149 0 258 123q85 97 101 215q3 23 3 44q0 80 -50 121q-36 29 -91 29q-99 0 -169.5 -76.5t-70.5 -175.5q0 -53 29 -53q14 0 23 8t11 16l3 7q24 0 33 -18.5t-1 -37t-32 -18.5q-33 0 -52 19t-24 51q-6 -3 -13.5 1.5t-13.5 17t-6 28.5 q0 43 34.5 97t90.5 91q-98 -59 -155.5 -174t-57.5 -229zM1333 311q151 147 262 298.5t111 215.5q0 27 -23 27q-18 0 -38 -13t-43.5 -44t-44 -62t-50.5 -87t-52 -97.5t-59.5 -116t-62.5 -121.5z" />
<glyph unicode="Z" horiz-adv-x="1181" d="M8 119q31 37 127 37q152 0 320 -90l63 30q-24 17 -61 39q-1 1 1 1l1 1q68 12 88 47h4q14 -22 45 -43q161 101 358 316q-133 14 -211.5 98.5t-97.5 202.5q-92 15 -113 104q-6 24 -6 50q0 70 44 151q64 117 179 172q74 35 156 35q80 0 149.5 -22.5t118 -55t92 -64.5 t91 -54.5t94.5 -22.5q172 194 276 194q38 0 36 -32q-2 -42 -64 -91q-96 -77 -248 -90q-55 -63 -213.5 -260.5t-257.5 -306.5h25q132 0 215.5 50.5t83.5 107.5q0 16 -6.5 25t-13.5 10l-7 1q0 13 9.5 22t21.5 9q13 0 21.5 -8.5t8.5 -22.5q0 -71 -88.5 -137.5t-244.5 -66.5h-33 q-200 -214 -363 -320q58 -30 80 -35q-1 -1 2 -4q-35 -5 -86 -37q93 -67 208.5 -176t216 -208t215.5 -198t249 -174.5t274 -109.5q-120 39 -246 118t-240 179.5t-215 198t-210 202.5t-186 164q-6 6 -1 9q3 1 5 -1q72 -56 171 -149t185 -179t195.5 -182.5t209 -171t219 -131.5 t232.5 -75q-40 66 -55 142q-9 47 -9 92q0 29 4 56q10 72 42.5 138.5t83 116.5t122.5 80t156 30q151 0 218 -109q40 -63 39 -141q0 -42 -11 -90q-36 -144 -159 -242q-142 -113 -349 -113q-20 0 -41 1q111 -121 295 -121q104 0 193 31.5t148.5 81t102 112t61.5 124t19 116.5 q0 61 -22.5 98t-63.5 37q-15 0 -24.5 -6.5t-11.5 -13.5l-3 -7q-18 0 -25.5 15t0.5 30t27 15q63 0 97.5 -47t34.5 -121q0 -59 -20.5 -122.5t-64 -126t-104.5 -112.5t-150.5 -81t-193.5 -31q-198 0 -307 129q-108 4 -213 33.5t-193 76t-178 111t-164.5 133t-154.5 147 t-146 147.5t-141.5 141.5t-138.5 121.5q-73 -55 -97 -102h-4q-22 45 -75 92q-100 -35 -201 -35q-134 0 -190 50q-22 21 -22 40q0 14 11 27zM16 105q-4 -7 -4 -14q0 -21 34 -42q56 -35 163 -35q95 0 190 31q-57 45 -126.5 71.5t-137.5 26.5q-99 0 -119 -38zM467 59 q42 -25 63 -43q8 11 45 39q-16 13 -47 33q-46 -23 -61 -29zM485 135l50 -29l51 29q-31 21 -37 35q-3 -8 -27 -21t-37 -14zM536 941q-2 -18 -3 -35q0 -77 54 -115q23 -17 56 -23q-4 34 -4 70q1 11 1 22q2 48 18.5 95.5t41.5 85.5t67 61.5t93 23.5q91 0 106 -72q3 -14 3 -29 q0 -58 -46 -127q-63 -96 -163 -129q-40 -13 -80 -13h-25q20 -115 98.5 -196.5t209.5 -92.5q100 110 261 309.5t208 253.5h-33q-74 0 -135 23.5t-101.5 57t-77.5 66.5t-82.5 56.5t-97.5 23.5q-158 0 -269 -118q-86 -90 -100 -198zM547 98l47 -32q36 28 70 32q-24 3 -68 29z M653 766q8 -2 27 -2q114 0 203 94q69 75 77 155q1 8 1 15q0 65 -58 84q-19 6 -43 6q-77 0 -132.5 -57.5t-55.5 -126.5q0 -49 30 -49q12 0 21 7.5t13 15.5l3 7q18 0 25.5 -14.5t-1 -29.5t-26.5 -15q-35 0 -54 22t-19 56v8q-16 -56 -17 -112q1 -32 6 -64zM1466 1051 q139 5 231 84q52 45 52 78q-2 19 -23 20q-52 0 -115 -46.5t-145 -135.5zM1834 -628q6 -112 64 -199q54 -7 93 -7q226 0 365 139q103 103 118 237q2 20 2 39q0 100 -62 166q-66 71 -184 71q-171 0 -277 -117q-79 -89 -84 -197v-14q0 -94 64 -140q43 -30 105 -30 q64 0 117.5 22.5t86.5 57.5t50.5 76t17.5 80q0 34 -12 56.5t-37 22.5q-16 0 -27 -9.5t-14 -19.5l-2 -9q-24 0 -33.5 18.5t0 36.5t31.5 18q52 0 79 -32t27 -82q0 -90 -77 -169t-207 -79q-57 0 -98.5 24t-59.5 63t-22 89q-1 8 -1 16q0 42 15 84q-39 -87 -39 -183q0 -15 1 -29z " />
<glyph unicode="[" horiz-adv-x="514" d="M-111 -254q414 693 557 922q61 96 202 312t252 384l110 168h215q5 0 5 -6t-5 -6l-199 -7q-331 -561 -512 -845q-191 -305 -586 -904l187 -6q6 0 6 -6t-6 -6h-226z" />
<glyph unicode="\" horiz-adv-x="651" d="M125 999l2 2q7 -1 25 13q15 10 25.5 22t14.5 18l3 7h4q-1 -68 78 -391t158 -612l79 -289h-12z" />
<glyph unicode="]" horiz-adv-x="421" d="M-203 -248q0 6 6 6l197 6q61 104 245.5 410.5t266.5 435.5q90 144 308 477.5t280 425.5l-187 7q-6 0 -6 6t6 6h226q-416 -693 -559 -922q-60 -96 -200.5 -312t-251.5 -384l-110 -168h-215q-6 0 -6 6z" />
<glyph unicode="^" horiz-adv-x="444" d="M18 340q218 162 271 203q4 3 11.5 3t8.5 -3l119 -203h-10l-129 154l-260 -154h-11z" />
<glyph unicode="_" horiz-adv-x="782" d="M-76 -63q2 10 13 10l692 -6v-9l-695 -6q-11 0 -10 11z" />
<glyph unicode="`" horiz-adv-x="167" d="M12 690q0 10 6.5 17.5t12.5 7.5q15 0 30.5 -23t27 -51t29.5 -51t36 -23q-3 -8 -9 -8q-26 0 -79.5 50t-53.5 81z" />
<glyph unicode="a" d="M-66 90q0 63 63 140.5t149 130.5t149 53q39 0 39 -35q0 -19 -14.5 -42t-38.5 -40q-5 -3 -8 0q-2 3 1 4q24 16 38 38t14 38q0 24 -25 24q-52 0 -128 -67.5t-131.5 -152t-55.5 -132.5q0 -37 34 -37q44 0 105 53t109.5 116t93 116t59.5 53q27 0 65.5 27t63.5 53l25 27h14 q-12 -12 -33 -33.5t-74 -79.5t-93.5 -108t-73.5 -103.5t-33 -81.5q0 -39 39 -39q25 0 60.5 23t67.5 55.5t61 64.5t46 55l17 23h14q-7 -9 -19 -25t-46.5 -56t-66 -71t-70.5 -56t-66 -25t-43.5 18.5t-16.5 51.5q0 52 47 137h-4q-35 -44 -61.5 -74t-61 -64t-67 -51.5 t-60.5 -17.5q-41 0 -62.5 26t-21.5 64z" />
<glyph unicode="b" horiz-adv-x="411" d="M-74 59q0 86 176 332q9 12 47 66t58.5 83t62 84.5t73 95t73 88.5t80.5 89q-120 51 -211 51q-142 0 -210 -99q-39 -55 -39 -114q0 -16 3 -31q10 -63 58 -76q9 -3 20 -3q13 0 21 6t10 12l2 6q18 0 26 -14.5t0.5 -29.5t-26.5 -15q-78 0 -109 71q-15 32 -15 68q0 40 19 83 q40 94 140 128q46 16 100 16q85 0 217 -53q229 240 405 240q127 -1 163 -91q14 -34 13 -67q-1 -57 -39 -114q-62 -91 -172 -91q-37 0 -72.5 5.5t-78.5 20t-64.5 22.5t-74.5 31t-64 28q-22 -25 -45.5 -52.5t-43 -52t-43 -56.5t-40 -54t-40 -56.5t-35.5 -52t-35 -52.5 t-30.5 -46.5t-29 -45t-24.5 -38.5q-4 -7 -36 -55.5t-51 -79.5t-45 -76.5t-39.5 -78.5t-13.5 -52q0 -27 33 -27q53 0 119 61t121 148q-11 30 -11 64q-1 11 1 21q4 46 25 82t46 36t25 -31q0 -53 -72 -170q20 -41 65 -41q52 0 93 51h14q-54 -61 -111 -61q-50 0 -69 37 q-59 -88 -127.5 -148.5t-128.5 -60.5q-30 0 -47 15t-17 44zM250 236q63 107 63 159q0 19 -12 19q-28 0 -47 -63q-11 -35 -11 -67q0 -25 7 -48zM524 893q9 -4 46.5 -20.5t51 -22t46.5 -18t52.5 -18t47.5 -12t53 -9.5q-35 20 -42 60q-2 10 -2 19q0 30 17 54q22 32 62 32 q23 0 32.5 -18t0 -36.5t-32.5 -18.5v10t-7 15.5t-22 9.5q-27 0 -36 -34q-3 -12 -3 -23q0 -28 20 -50q23 -25 64 -25q106 0 163 86q35 52 35 104q0 32 -14 66q-36 86 -159 86q-157 0 -373 -237z" />
<glyph unicode="c" horiz-adv-x="391" d="M-53 98q0 76 65.5 153.5t149 123t143.5 45.5q56 0 55 -46v-11q-6 -54 -59 -111q-48 -50 -88 -51q-33 0 -45.5 25.5t0.5 51t41 25.5q16 0 24.5 -10t8.5 -25q-5 -1 -13.5 -3t-22 -12t-13.5 -24q0 -20 20 -20q45 0 95 64q43 57 43 98v7q-3 32 -38 32t-89 -35t-103.5 -86 t-85 -113t-35.5 -110q0 -33 14 -48.5t49 -15.5q43 0 92 24t89.5 58t74.5 67.5t53 57.5l19 24h15q-8 -10 -21 -26.5t-54 -58t-81 -73.5t-93.5 -58.5t-99.5 -26.5q-50 0 -80 30t-30 78z" />
<glyph unicode="d" d="M-66 90q0 63 63 140.5t149 130.5t149 53q39 0 39 -35q0 -19 -14.5 -42t-38.5 -40q-5 -3 -8 0q-2 3 1 4q24 16 38 38t14 38q0 24 -25 24q-52 0 -128 -67.5t-131.5 -152t-55.5 -132.5q0 -37 34 -37q20 0 41.5 8.5t44.5 26.5t43.5 36t45.5 48t42 50.5t41.5 55.5t35 50.5 t32.5 48t25 37.5q5 7 32.5 48.5t45.5 65.5q-40 -6 -82 -6q-184 0 -262 109q-42 58 -42 126q0 28 7 59q23 96 105 145q54 32 122 32q49 0 85 -18.5t52 -47.5q16 -30 22 -66q2 -12 2 -24q0 -22 -6 -46q-10 -36 -29.5 -65.5t-51.5 -48t-70 -18.5q-12 0 -20.5 8.5t-8.5 20.5 t8.5 21.5t20.5 9.5q0 -3 1.5 -8.5t12 -14t27.5 -8.5q53 0 87 63q22 43 22 86q0 25 -7 50q-24 83 -117 96l-32 2q-111 0 -174 -86q-45 -60 -45 -130q0 -21 4 -42q18 -105 119 -157q73 -37 178 -37q37 0 78 6q70 98 141.5 184.5t152 171t157 134.5t132.5 50q52 0 52 -47 q0 -34 -29.5 -86.5t-85 -113t-125 -117.5t-159.5 -104.5t-179 -69.5l-92 -140q-134 -203 -159 -274q-9 -25 -9 -41q0 -33 35 -33q25 0 60.5 23t67.5 55.5t61 64.5t46 55l17 23h14q-7 -9 -19 -25t-46.5 -56t-66 -71t-70.5 -56t-66 -25q-28 0 -41.5 15.5t-12.5 44.5t14 69 t38 90h-4q-160 -219 -261 -219q-41 0 -62.5 26t-21.5 64zM518 510q106 28 211.5 92.5t178 136t118 139t45.5 107.5q0 41 -43 41q-154 0 -510 -516z" />
<glyph unicode="e" horiz-adv-x="378" d="M-55 98q0 72 63 148.5t146 124t145 47.5q32 0 32 -22q0 -9 -5 -21q-21 -48 -90 -98q-78 -56 -146 -56h-22q-70 -90 -70 -155q0 -64 68 -64q38 0 84.5 24t85.5 58t72 67.5t52 57.5l19 24h14q-7 -10 -20.5 -26.5t-53 -58t-77.5 -73.5t-89 -58.5t-94 -26.5q-51 0 -82.5 30 t-31.5 78zM72 229h18q79 0 163 75q63 56 63 90q0 14 -17 14q-37 0 -104 -54t-123 -125z" />
<glyph unicode="f" horiz-adv-x="335" d="M-929 -572q-7 14 -7 28q0 23 19 43q28 28 75 28q15 0 29.5 -2t33 -7.5t30.5 -9.5t35.5 -14.5t32.5 -14.5t38 -18t37 -18q71 40 140.5 103.5t137.5 150t118.5 159t119.5 179.5q41 64 69 135t39 110.5t39.5 71.5t79.5 43q205 314 350 459q-136 66 -213 66q-107 0 -155 -83 q-23 -41 -23 -80q0 -19 5 -37q13 -46 51 -46q13 0 21 6t9 12l2 6q18 0 26 -15t0.5 -29.5t-26.5 -14.5q-65 0 -88 62q-10 25 -10 51q0 39 21 79q42 81 135 95l32 2q84 0 220 -68q177 180 325 180q64 0 103 -31t44 -75q2 -13 2 -26q0 -31 -10 -62q-13 -45 -53 -76t-92 -31 q-17 0 -34.5 1.5t-36 6t-33 8.5t-35.5 12t-32.5 12.5t-35 16t-32 15.5t-34.5 17l-32 16q-23 -26 -46 -54.5t-49.5 -66t-42.5 -60t-46 -70t-39 -62t-43 -69.5t-37 -61h100q32 48 62 48q26 0 26 -27q-5 -2 -13.5 -6t-29.5 -18t-37 -30t-29.5 -41t-13.5 -51q0 -6 -5 -3t-5 12 q0 41 39 104h-102q-17 -28 -52 -84q-61 -99 -93.5 -151t-93.5 -145t-102.5 -148t-102 -130.5t-110.5 -124t-111 -96t-120 -77.5q188 -88 344 -88q114 0 192.5 53t78.5 110q0 16 -6.5 25t-13.5 11l-7 1q0 13 9.5 22t21.5 9t20 -9.5t8 -21.5q0 -32 -19 -67t-55 -67.5 t-96 -53.5t-133 -21q-164 0 -354 93q-104 -52 -209 -52q-95 0 -122 51zM-920 -519q-7 -14 -7 -26q0 -21 19 -39q32 -30 101 -30q95 0 189 51q-9 4 -36 17.5t-36.5 18t-31 14.5t-33 13.5t-28.5 9t-31 7.5t-28 2q-57 0 -78 -38zM-16 152q122 194 145 229q-26 -7 -43 -19 t-30.5 -35t-21.5 -42.5t-23 -61t-27 -71.5zM514 852q4 -2 26 -13.5t28 -14.5t26 -12.5t28.5 -13.5t26 -11.5t28.5 -11t26 -8.5t28.5 -8t26.5 -5q-34 20 -38 60q-1 6 -1 12q0 32 20 60q24 32 64 32q23 0 32.5 -18.5t0 -37t-32.5 -18.5v10t-7 15.5t-22 9.5q-28 0 -40 -34 q-5 -14 -5 -27q0 -25 19 -46q22 -24 65 -24q49 0 85.5 29t47.5 70q7 26 7 52q0 15 -3 30q-6 41 -43.5 70t-97.5 29q-136 0 -295 -176z" />
<glyph unicode="g" horiz-adv-x="489" d="M-872 -508q-3 25 -3 49q0 49 13 97q19 73 84.5 124.5t154.5 51.5q39 0 80.5 -13.5t72.5 -30t73 -49.5t64.5 -54t66 -63t59.5 -57q73 74 154.5 181.5t128 179t123.5 192.5q-130 -100 -183 -100q-41 0 -62.5 26t-21.5 64q0 63 63 140.5t149 130.5t149 53q39 0 39 -35 q0 -19 -14.5 -42t-38.5 -40q-5 -3 -8 0q-2 3 1 4q24 16 38 38t14 38q0 24 -25 24q-52 0 -128 -67.5t-131.5 -152t-55.5 -132.5q0 -37 34 -37q55 0 195 113q91 144 145.5 213.5t92.5 69.5q18 0 18 -14q0 -22 -48 -80q-55 -68 -145 -148q-129 -242 -194 -344 q-124 -193 -252 -309q94 -87 182 -136t187 -49q106 0 166.5 54t60.5 116q0 47 -37 47q-12 0 -19.5 -6t-9.5 -12l-2 -6q-18 0 -26 14.5t-0.5 29.5t26.5 15q35 0 55.5 -23.5t20.5 -58.5q0 -66 -61.5 -122t-173.5 -56q-101 0 -189.5 49.5t-185.5 138.5q-212 -192 -461 -192 q-99 0 -162 51.5t-73 124.5zM-864 -506q9 -71 70 -120.5t157 -49.5q207 0 424 217q-12 11 -47.5 46t-50.5 49t-46 41.5t-51 42t-46.5 31.5t-51.5 28q50 -40 50 -109q0 -63 -42 -112q-42 -50 -108 -50q-14 0 -23.5 10t-9.5 23q0 11 9.5 21t23.5 10q0 -4 1.5 -9.5t10.5 -14.5 t25 -9q54 0 86 58q20 37 20 73q0 25 -9 49q-29 79 -134 86h-17q-87 0 -150.5 -49.5t-82.5 -119.5q-12 -47 -12 -94q0 -24 4 -48zM221 0l2 12q30 0 68 23t71.5 55.5t63 64.5t46.5 55l17 23h15q-7 -9 -19 -25t-47 -56t-68 -71t-75 -56t-74 -25zM291 193q128 117 162 177 q7 13 7 19q0 8 -9 8q-30 0 -66.5 -50t-93.5 -154z" />
<glyph unicode="h" horiz-adv-x="454" d="M-213 -37q20 18 50 54t73.5 95t79.5 109t97 135.5t97 135.5q202 280 318 405q-120 51 -211 51q-142 0 -210 -99q-39 -55 -39 -114q0 -16 3 -31q10 -63 58 -76q9 -3 20 -3q13 0 21 6t10 12l2 6q18 0 26 -14.5t0.5 -29.5t-26.5 -15q-78 0 -109 71q-15 32 -15 68q0 40 19 83 q40 94 140 128q46 16 100 16q89 0 217 -53q226 240 405 240q126 -1 163 -91q14 -34 14 -68q0 -57 -38 -113q-62 -91 -173 -91q-38 0 -74 5.5t-77.5 19.5t-64.5 23t-73 31t-64 28q-126 -141 -301 -406q-106 -155 -180 -272h4q171 207 260 207q29 0 47.5 -16t18.5 -46 q0 -37 -22 -74.5t-53.5 -67t-63.5 -57t-54 -55.5t-22 -51q0 -35 49 -35q25 0 59.5 22.5t66 55t59.5 64.5t44 54l17 23h14q-7 -9 -18.5 -25t-45 -55.5t-64 -70t-69 -55.5t-67.5 -25q-35 0 -58.5 20t-23.5 54t22 68t53.5 62.5t63.5 56t54 57.5t22 59q0 24 -29 24 q-50 0 -144 -89.5t-165.5 -188.5t-71.5 -131h-4q-12 18 -43 18q-19 0 -40.5 -12t-33.5 -24l-12 -13h-8zM532 893q8 -3 55 -23.5t63.5 -27t53 -20t66 -20.5t59.5 -11q-36 21 -44 61q-2 11 -2 21q0 28 16 52q22 33 63 33q23 0 32.5 -18t0 -36.5t-32.5 -18.5q-1 1 0 9t-6 17 t-22 9q-27 0 -36 -34q-3 -12 -3 -23q0 -28 20 -50q23 -25 64 -25q106 0 163 86q35 52 35 103q0 33 -15 67q-37 86 -159 86q-161 0 -371 -237z" />
<glyph unicode="i" horiz-adv-x="241" d="M-76 68q0 52 48.5 132t103.5 136.5t76 56.5q27 0 56.5 16.5t45.5 32.5l16 17h11q-14 -13 -36.5 -35t-80 -81.5t-101.5 -110t-80 -104t-36 -79.5q0 -37 41 -37q26 0 62 23t68.5 55.5t61 64.5t45.5 55l17 23h14q-7 -9 -19 -25t-46.5 -56t-66.5 -71t-71.5 -56t-68.5 -25 q-60 0 -60 68zM261 582q12 41 40 54l14 3q12 0 21.5 -7t9.5 -16q0 -18 -31 -42.5t-49 -24.5q-9 0 -9 12q0 8 4 21z" />
<glyph unicode="j" horiz-adv-x="221" d="M-872 -520q-4 25 -4 50q0 36 9 72q15 62 68.5 105t126.5 43q33 0 53.5 -16.5t24 -39.5t-3 -46t-28 -39.5t-50.5 -16.5q-23 0 -32.5 18.5t0 37t32.5 18.5q0 -4 0.5 -10t9.5 -15.5t25 -9.5q27 0 35 31q3 11 3 20q0 25 -20 43q-18 17 -49 17q-69 0 -120.5 -41.5 t-66.5 -100.5q-9 -35 -9 -70q0 -23 4 -47q10 -59 65 -100.5t142 -41.5q110 0 201 52t151 131t116 189.5t93.5 212t86 213.5t91.5 180q-22 -24 -68 -86h-14q114 151 191 218t139 67q23 0 23 -19q0 -17 -22 -24l-16 -2q-70 0 -123 -39t-88 -105t-64 -151.5t-57 -180.5 t-60.5 -189.5t-82 -180t-113.5 -151.5t-162 -105t-222 -39q-89 0 -146.5 43t-68.5 105z" />
<glyph unicode="k" horiz-adv-x="448" d="M-213 -37q20 18 50 54t73.5 95t79.5 109t97 135.5t97 135.5q202 280 318 405q-120 51 -211 51q-142 0 -210 -99q-39 -55 -39 -114q0 -16 3 -31q10 -63 58 -76q9 -3 20 -3q13 0 21 6t10 12l2 6q18 0 26 -14.5t0.5 -29.5t-26.5 -15q-78 0 -109 71q-15 32 -15 68q0 40 19 83 q40 94 140 128q46 16 100 16q89 0 217 -53q226 240 405 240q126 -1 163 -91q14 -34 14 -68q0 -57 -38 -113q-62 -91 -173 -91q-38 0 -74 5.5t-79 20t-63.5 22t-73.5 31.5t-63 28q-126 -141 -301 -406q-127 -187 -202 -309q80 105 166.5 182.5t140.5 77.5q49 0 63 -36 q6 -15 6 -30q1 -20 -11 -42q-20 -36 -52 -37q-16 0 -26.5 11.5t-10.5 25.5q7 2 17.5 7t28 21.5t17.5 34.5q0 35 -34 35q-46 0 -121 -65t-152 -160q100 96 168 96q30 0 47 -15t17 -40q0 -29 -22.5 -60t-49.5 -53.5t-49.5 -47.5t-22.5 -44q0 -21 27 -21q33 0 74 23t76 55.5 t65 64.5t47 55l17 23h14q-7 -9 -18.5 -25t-46.5 -56t-68.5 -71t-78 -56t-81.5 -25q-26 0 -43.5 16t-17.5 41q0 27 21.5 56t47 50t47 46.5t21.5 44.5q0 12 -8 20.5t-23 8.5q-45 0 -115 -60.5t-121 -130t-51 -98.5h-4q-12 18 -43 18q-19 0 -40.5 -12t-33.5 -24l-12 -13h-8z M532 893q11 -5 55 -24.5t63 -26.5t54.5 -20t64.5 -19.5t58 -9.5q-35 20 -42 60q-2 10 -2 19q0 30 17 54q22 32 62 32q23 0 32.5 -18t0 -36.5t-32.5 -18.5q-1 1 0 9t-6 17t-22 9q-27 0 -36 -34q-3 -12 -3 -23q0 -28 20 -50q23 -25 64 -25q106 0 163 86q35 52 35 103 q0 33 -15 67q-37 86 -159 86q-161 0 -371 -237z" />
<glyph unicode="l" horiz-adv-x="274" d="M-49 74q0 76 89 239.5t205.5 322.5t238 280.5t180.5 121.5q43 0 43 -43q0 -46 -54.5 -125t-172.5 -200t-178.5 -180t-195.5 -184q-25 -23 -36 -34q-78 -156 -78 -215q0 -43 35 -43q24 0 58.5 22.5t66 55t60 64.5t45.5 54l17 23h15q-7 -9 -19 -25t-46.5 -56t-66.5 -71 t-71 -56t-68 -25q-67 0 -67 74zM82 297q293 274 413 403q203 218 203 297q0 33 -34 33q-52 0 -162.5 -121.5t-224.5 -290t-195 -321.5z" />
<glyph unicode="m" horiz-adv-x="864" d="M-63 -35q114 110 224.5 252t110.5 197q0 28 -28 28q-20 0 -51 -21.5t-61 -52t-57.5 -61.5t-44.5 -53l-16 -21h-14q7 9 18.5 24t44.5 53.5t62.5 67.5t64 53t56.5 24q53 0 53 -60q0 -42 -39 -112h4q121 131 193 131q26 0 41.5 -17t15.5 -45q0 -14 -2 -22q131 102 197 102 q32 0 48.5 -16.5t16.5 -44.5q0 -43 -36 -95t-78.5 -92t-78.5 -83.5t-36 -71.5q0 -35 49 -35q27 0 64.5 24.5t72 59.5t65.5 70.5t50 59.5l18 25h15q-7 -10 -20 -27t-50 -60.5t-71 -76.5t-75.5 -60t-72.5 -27q-35 0 -58.5 19.5t-23.5 53.5q0 38 36.5 88t80 90.5t80 85.5 t36.5 74q0 27 -32 27q-63 0 -199 -105q-10 -61 -45 -124.5t-85 -107.5t-97 -44q-21 0 -21 16q0 22 40 73q63 80 171 171q19 40 19 66q0 36 -37 36q-51 0 -141.5 -85.5t-159 -184t-68.5 -137.5h-4q-16 20 -45 20q-18 0 -40.5 -12t-36.5 -24l-13 -13h-10zM283 53q19 0 80 74 t98 147q-114 -99 -167 -177q-19 -27 -18 -37q-1 -7 7 -7z" />
<glyph unicode="n" horiz-adv-x="595" d="M-53 -4q309 323 309 414q0 24 -20 24t-50.5 -20.5t-59 -50t-54.5 -59.5t-42 -50l-16 -21h-14q6 9 17.5 23t43 50.5t59.5 64t62 50.5t56 23q43 0 43 -51q0 -52 -45 -127h1h3q135 150 211 150q29 0 47 -16t18 -46q0 -37 -22 -74.5t-54 -67t-63.5 -57t-53.5 -55.5t-22 -51 q0 -35 49 -35q25 0 59.5 22.5t66 55t59.5 64.5t45 54l16 23h14q-7 -9 -18.5 -25t-45 -55.5t-64 -70t-69 -55.5t-67.5 -25q-35 0 -58.5 20t-23.5 54t22 68t54 62.5t63.5 56t53.5 57.5t22 59q0 24 -28 24q-37 0 -103 -53.5t-125 -122.5t-103 -134.5t-44 -88.5h-4 q-12 21 -47 21q-20 0 -38.5 -7.5t-26.5 -14.5l-9 -7h-4z" />
<glyph unicode="o" horiz-adv-x="434" d="M-63 90q0 63 61 141.5t148 132.5t155 54q54 0 54 -50q0 -14 -4 -31q-18 -75 -93 -171q20 -8 41 -8q33 0 66.5 19t50.5 37l18 19h15q-3 -3 -8 -9t-21 -21t-33 -26t-41 -20.5t-47 -9.5t-49 11q-55 -68 -117.5 -113t-112.5 -45q-40 0 -61.5 26t-21.5 64zM-12 49 q0 -37 35 -37q93 0 217 150q-18 11 -28.5 27.5t-13 34t1 33t14.5 25t26 9.5q32 0 32 -35q-5 0 -11.5 -2t-18 -14t-11.5 -31q0 -23 17 -37q80 101 93 177q2 11 2 19q0 38 -36 38q-54 0 -131.5 -67t-132.5 -152.5t-55 -137.5z" />
<glyph unicode="p" horiz-adv-x="450" d="M-970 -572q-7 14 -7 28q0 23 19 43q28 28 75 28q15 0 29.5 -2t33 -7.5t30.5 -9.5t35.5 -14.5t32.5 -14.5t38 -18t37 -18q52 29 103.5 71t104 101t93.5 108t95.5 129t84 124t86 132.5t76.5 118.5q115 174 170 240q143 172 270 172q11 0 11 -5q0 -3 -3 -3 q-51 0 -103.5 -26.5t-96 -66.5t-91.5 -102t-84 -118t-79 -130h4q74 95 151.5 160.5t135.5 65.5q69 0 69 -64q0 -62 -53 -144t-141.5 -144t-175.5 -62q-35 0 -43 28t9 56.5t44 28.5q20 0 28 -16.5t-0.5 -33t-27.5 -16.5q-3 21 -21 21q-14 0 -21 -14t0 -28t27 -14 q57 0 137 70.5t136.5 157.5t56.5 137q0 24 -24 24q-69 0 -180 -108.5t-169 -212.5q-124 -223 -189 -318q-169 -245 -359 -333q180 -84 331 -84q114 0 192.5 53t78.5 110q0 16 -7 25t-13 11l-7 1q0 13 9.5 22t21.5 9t20 -9.5t8 -21.5q0 -32 -19 -67t-55 -67.5t-96 -53.5 t-133 -21q-152 0 -344 86q-106 -45 -219 -45q-95 0 -122 51zM-961 -519q-7 -14 -7 -26q0 -21 20 -39q31 -30 100 -30q97 0 191 51q-7 3 -32 15.5l-32 16t-28 13t-30 13t-26 9.5t-28 8.5t-24.5 4.5t-25.5 2q-57 0 -78 -38zM179 7q2 5 7 5q29 0 67 23t71.5 55.5t63 64.5 t46.5 55l17 23h14q-7 -9 -19 -25t-47 -56t-67.5 -71t-74 -56t-73.5 -25q-6 0 -6 4q0 1 1 3z" />
<glyph unicode="q" horiz-adv-x="507" d="M-135 -549q0 97 86 269t211 350q-99 -70 -146 -70q-41 0 -62.5 26t-21.5 64q0 63 63 140.5t149 130.5t149 53q39 0 39 -35q0 -19 -14.5 -42t-38.5 -40q-5 -3 -8 0q-2 3 1 4q24 16 38 38t14 38q0 24 -25 24q-52 0 -128 -67.5t-131.5 -152t-55.5 -132.5q0 -37 34 -37 q50 0 160 82q94 134 176.5 224t114.5 90q18 0 18 -13q0 -22 -49 -80q-78 -91 -202 -190q-135 -203 -236.5 -412.5t-101.5 -320.5q0 -48 36 -80.5t99 -32.5q80 0 133 52.5t53 109.5q0 49 -39 49q-13 0 -20.5 -7t-8.5 -13l-1 -7q-18 0 -26 15t-0.5 30t26.5 15q35 0 55 -23.5 t20 -58.5q0 -60 -53.5 -115t-138.5 -55q-78 0 -123 48t-45 132zM240 0l2 12q30 0 68 23t71.5 55.5t63 64.5t46.5 55l17 23h14q-7 -9 -19 -25t-47 -56t-67.5 -71t-74.5 -56t-74 -25zM254 154q132 108 198 192q25 32 25 44q0 7 -8 7q-23 0 -82.5 -67.5t-132.5 -175.5z" />
<glyph unicode="r" horiz-adv-x="356" d="M0 233q8 10 37.5 48.5t48.5 64t44.5 61.5t41.5 62q-10 20 -10 41q0 44 29 61q8 4 13 4q10 0 15 -11q2 -5 2 -13q0 -26 -37 -82q9 -15 31 -38.5t36.5 -46t14.5 -46.5q0 -32 -22 -66t-53 -62t-62.5 -54.5t-53.5 -54.5t-22 -52q0 -37 43 -37q28 0 65 23t70 55.5t62 64.5 t46 55l17 23h15q-7 -9 -19 -25t-47 -56t-67 -71t-72 -56t-70 -25q-37 0 -60.5 18.5t-23.5 51.5q0 36 23.5 71t56.5 63t66 54.5t56.5 54.5t23.5 54q0 15 -9.5 29t-26 32.5t-24.5 30.5q-43 -70 -164 -226h-14zM172 510q0 -16 6 -31q33 51 33 72q0 14 -9 14q-2 0 -4 -1 q-19 -6 -25 -38z" />
<glyph unicode="s" horiz-adv-x="368" d="M-125 109q0 54 34 99.5t79 45.5q19 0 31 -11t12 -28q0 -33 -35 -58.5t-80 -25.5q61 70 61 92q0 15 -12 15q-25 0 -52.5 -41t-27.5 -91q0 -44 27 -74t82 -30q31 0 55 11.5t40 33t27 46.5t18.5 59t12 62.5t9.5 65t10 58.5q7 41 31 80q-27 -29 -129 -170q-4 -7 -14 -3 q-1 2 -1 3q110 152 168 207t103 55q26 0 35 -16.5t0 -33t-29 -16.5q-1 3 -3 8t-14 13t-30 8q-40 0 -72.5 -51.5t-32.5 -106.5q0 -25 9.5 -72.5t9.5 -82.5q0 -72 -60.5 -121t-136.5 -49q-62 0 -93.5 34.5t-31.5 84.5zM144 13q0 4 3 5q44 17 99.5 71t89.5 99l33 45h14 q-5 -7 -14 -19.5t-36 -46t-53 -61.5t-61.5 -56.5t-66.5 -41.5h-2q-4 0 -6 5z" />
<glyph unicode="t" horiz-adv-x="260" d="M-274 543q0 61 57.5 109t157.5 48q79 0 158 -19t136.5 -42t148.5 -42t191 -19q97 0 175.5 25t125.5 64.5t72 84.5t25 90q0 48 -31.5 84.5t-87.5 42.5q-3 1 -4 3t0 3.5t4 1.5q61 -7 93 -44.5t32 -90.5q0 -47 -25.5 -94.5t-73.5 -88.5t-128 -66.5t-177 -25.5 q-100 0 -191 19t-148.5 42.5t-136.5 42.5t-158 19q-97 0 -152 -45.5t-55 -103.5q0 -3 -3 -4q-4 1 -5 6zM-46 135q44 120 169 274q104 128 165 155q11 5 19 5q19 0 19 -13q0 -28 -88 -118q-30 -31 -96 -93q-38 -36 -54 -52q-103 -169 -104 -239q0 -4 1 -9q3 -29 31 -29 q36 0 97 54t104 108l43 55h14q-7 -9 -19 -25t-46 -56t-65.5 -71t-70.5 -56t-67 -25q-68 0 -68 62q0 29 16 73zM109 326q149 144 182 184q25 31 25 43q0 8 -11 8q-20 0 -77.5 -70t-118.5 -165z" />
<glyph unicode="u" horiz-adv-x="602" d="M0 233q5 7 15 19.5t37.5 43.5t53.5 55t57.5 43.5t55.5 19.5t39.5 -14t15.5 -38q0 -32 -23 -68.5t-56 -68t-66.5 -62.5t-56.5 -62.5t-23 -57.5q0 -14 9 -22.5t24 -8.5q58 0 205 113q32 93 115.5 188t140.5 95q17 0 17 -12q0 -22 -56 -86q-60 -68 -154 -148 q-15 -30 -23.5 -55.5t-9.5 -46.5t9.5 -32.5t31.5 -11.5q36 0 97 54t104 108l43 55h14q-7 -9 -19 -25t-46 -56t-65.5 -71t-70.5 -56t-67 -25q-48 0 -63 30q-8 16 -8 38q0 19 6 41q-147 -109 -201 -109q-29 0 -49.5 19.5t-20.5 50.5q0 33 23 70.5t55.5 70t64.5 63.5t55 60.5 t23 50.5q0 16 -16 16q-20 0 -48 -17.5t-54 -42t-49.5 -49t-37.5 -42.5l-14 -17h-14zM362 186q133 114 177 179q12 18 12 26q0 6 -8 6q-24 0 -81.5 -67.5t-99.5 -143.5z" />
<glyph unicode="v" horiz-adv-x="522" d="M0 233q5 7 15 19.5t37.5 43.5t53 55t57 43.5t54.5 19.5q27 0 44.5 -17.5t17.5 -44.5q0 -41 -37 -86.5t-81 -79t-81 -73t-37 -70.5q0 -47 57 -47t125 65.5t123 157.5q-15 38 -15 80v5q1 46 24 83t55 37q24 0 24 -31q0 -54 -69 -172q20 -39 63 -39q51 0 92 51h15 q-54 -61 -111 -61q-44 0 -70 33q-57 -92 -126.5 -156.5t-129.5 -64.5q-44 0 -68 26t-24 66q0 33 23.5 69t57.5 66t68 59t57.5 58t23.5 53q0 20 -23 20q-32 0 -82 -42t-85 -84l-34 -42h-14zM360 352q-9 -31 -9 -59q0 -29 9 -55q64 114 64 157q0 19 -12 19q-34 0 -52 -62z" />
<glyph unicode="w" horiz-adv-x="768" d="M0 233q98 127 159 178q64 52 109 52q47 0 47 -51q0 -43 -27.5 -87.5t-66.5 -81t-78 -71t-66.5 -68.5t-27.5 -61q0 -13 8.5 -22t22.5 -9q63 0 209 115q27 82 98 165t121 83q15 0 15 -11q0 -20 -50 -78q-49 -56 -123 -120q-14 -30 -22 -55.5t-9 -46t8.5 -32.5t30.5 -12 q47 0 114 62t124 147q-10 27 -10 58t11 67q21 70 60 70q25 0 25 -31q0 -54 -70 -162q17 -49 64 -49q51 0 92 51h14q-54 -61 -110 -61q-46 0 -70 43q-57 -85 -126 -146t-120 -61q-50 0 -66 28q-9 17 -9 40q0 16 4 35q-149 -111 -205 -111q-28 0 -49 19t-21 49q0 37 27 78 t65.5 77t77 71t65.5 70.5t27 63.5q0 21 -20 21q-43 0 -116.5 -74.5t-121.5 -141.5h-14zM362 190q117 103 147 155q12 22 -1 22q-22 0 -67 -55t-79 -122zM608 248q62 96 62 147q0 19 -13 19q-27 0 -43 -57q-10 -34 -11 -67q1 -21 5 -42z" />
<glyph unicode="x" horiz-adv-x="559" d="M-72 76q12 26 39 26q33 0 33 -34q-5 -1 -12.5 -3t-20 -12t-12.5 -24q0 -9 6.5 -15t15.5 -6q56 0 125 74.5t113.5 160t44.5 126.5q0 34 -31 34q-82 0 -215 -170h-14q140 183 238 183q31 0 49 -19.5t18 -54.5q0 -32 -12 -66q54 65 112.5 108.5t100.5 43.5q34 0 46 -25.5 t-1 -51t-41 -25.5q-14 0 -22.5 10t-8.5 24q5 1 13.5 3t22 12t13.5 24q0 19 -22 19q-48 0 -121.5 -65t-128.5 -149.5t-55 -135.5q0 -26 14 -41t41 -15q41 0 87 23t83 55.5t68 64.5t48 55l17 23h14q-7 -9 -18.5 -25t-48 -56t-72.5 -71t-85.5 -56t-92.5 -25q-33 0 -51.5 18.5 t-18.5 51.5q0 16 11 53q-48 -55 -106.5 -89t-113.5 -34q-35 0 -49 26q-7 13 -7 26q1 12 7 24z" />
<glyph unicode="y" horiz-adv-x="563" d="M-798 -508q-3 25 -3 49q0 49 13 97q19 73 84.5 124.5t154.5 51.5q26 0 51.5 -4.5t52 -16t47 -21t48 -30.5t44 -33t46 -39.5t41.5 -39t43.5 -43l40.5 -40.5q73 75 156 186.5t122.5 173t124.5 195.5q-131 -102 -186 -102q-29 0 -49.5 19.5t-20.5 50.5q0 33 23 70.5t55.5 70 t64.5 63.5t55 60.5t23 50.5q0 16 -16 16q-20 0 -48 -17.5t-54 -42t-49.5 -49t-37.5 -42.5l-14 -17h-14q5 7 15 19.5t37.5 43.5t53.5 55t57.5 43.5t55.5 19.5t39.5 -14t15.5 -38q0 -32 -23 -68.5t-56 -68t-66.5 -62.5t-56.5 -62.5t-23 -57.5q0 -14 9 -22.5t24 -8.5 q61 0 203 117q90 144 142.5 211.5t90.5 67.5q18 0 18 -13q0 -24 -52 -86q-54 -65 -138 -141q-128 -241 -194 -345q-122 -192 -250 -308q93 -88 181 -137.5t189 -49.5q106 0 167 54t61 116q0 47 -37 47q-12 0 -19.5 -6t-9.5 -12l-2 -6q-18 0 -26 14.5t-0.5 29.5t26.5 15 q35 0 55.5 -23.5t20.5 -58.5q0 -66 -62 -122t-174 -56q-101 0 -190.5 50t-185.5 138q-212 -192 -459 -192q-99 0 -162 51.5t-73 124.5zM-790 -506q9 -71 70 -120.5t157 -49.5q210 0 424 217q-17 15 -57 54t-61 58.5t-54 47.5t-62.5 46.5t-58.5 31.5q50 -40 50 -109 q0 -63 -42 -112q-42 -50 -108 -50q-14 0 -23.5 10t-9.5 23q0 11 9.5 21t23.5 10q0 -4 1 -9.5t10 -14.5t25 -9q57 0 88 59q18 35 18 70q0 26 -10 52q-30 78 -133 85h-16q-87 0 -150.5 -49.5t-82.5 -119.5q-12 -47 -12 -94q0 -24 4 -48zM295 0l2 12q30 0 68 23t71.5 55.5 t63 64.5t46.5 55l17 23h15q-7 -9 -19 -25t-47 -56t-68 -71t-75 -56t-74 -25zM360 195q119 107 157 171q10 16 10 24q0 7 -9 7q-30 0 -67.5 -51t-90.5 -151z" />
<glyph unicode="z" horiz-adv-x="466" d="M-90 -10q0 16 13.5 36t39 42.5t53 43.5t65.5 46.5t66 43.5t65.5 41t53.5 33q-34 -12 -61 -12q-46 0 -70 28.5t-24 74.5v4q-31 -50 -97 -138h-14q86 113 123 181q25 41 57 41q14 0 24.5 -9t10.5 -22q-3 -1 -7 -3t-15.5 -9.5t-20 -17.5t-15.5 -27.5t-7 -38.5 q0 -23 15.5 -36t41.5 -13q40 0 82.5 18.5t74 45t58 53t40.5 44.5l13 19q8 0 14.5 -5.5t6.5 -15.5q0 -24 -75 -76.5t-189.5 -120.5t-153.5 -96q48 19 69 19q51 0 80.5 -27.5t40 -71t14.5 -96.5t11 -106t22.5 -96.5t55 -71t102.5 -27.5q111 0 179.5 55.5t68.5 118.5 q0 16 -6.5 24.5t-13.5 9.5l-7 1q0 18 15 26t30 0t15 -26q0 -76 -78.5 -147.5t-202.5 -71.5q-63 0 -109.5 21t-70.5 56t-40.5 79.5t-21.5 90.5t-11.5 90.5t-12.5 79.5t-22.5 56t-43.5 21q-32 0 -66.5 -18.5t-60 -45t-47 -52.5t-32.5 -44l-11 -19q-14 0 -14 17z" />
<glyph unicode="{" horiz-adv-x="550" d="M22 -138q1 93 121 306q18 32 55 96q111 192 137 265q45 129 -53 140l-20 1q-6 0 -6 8t6 8q68 0 130 29t112 78t97 112.5t90 134t85.5 141t88.5 134t95 112.5t109.5 78t126.5 29h64q5 0 7 -3t0 -6t-7 -3h-78q-71 0 -134 -44.5t-112 -116t-96.5 -158.5t-98 -176.5 t-104.5 -165t-127.5 -128.5t-157.5 -63q97 -42 18 -213q-35 -77 -159 -272q-122 -192 -150 -272q-49 -137 67 -153q16 -2 36 -2q21 0 21 -7q0 -5 -9 -5q-156 0 -154 116z" />
<glyph unicode="|" horiz-adv-x="380" d="M139 -258v1788q0 6 8.5 6.5t8.5 -6.5v-1788q0 -9 -8.5 -9t-8.5 9z" />
<glyph unicode="}" horiz-adv-x="659" d="M-216.5 -251q-1.5 3 0.5 6t7 3h76q62 0 118.5 34.5t99.5 91t88 130t83.5 150.5t86.5 152.5t97 137t114.5 103.5t139.5 51q-94 43 -13 218q36 76 160 271q121 192 149 272q47 135 -71 149q-15 2 -32 2q-23 0 -23 9q2 4 8 5q156 0 154 -116q-1 -93 -120 -307 q-18 -31 -55 -95q-111 -193 -137 -266q-44 -130 54 -141l20 -1q5 0 5.5 -7t-5.5 -7q-86 0 -163 -47t-136.5 -121.5t-115.5 -165l-112 -181t-114 -165t-133 -121.5t-159 -47h-64q-6 0 -7.5 3z" />
<glyph unicode="~" horiz-adv-x="587" d="M102 449h13q29 -33 90 -33q45 0 110 30.5t103 30.5q29 0 54 -9.5t40.5 -23t27 -27t16.5 -23.5l5 -9h-12q-3 5 -10 11.5t-33 18t-57 11.5q-37 0 -110.5 -18.5t-117.5 -18.5q-37 0 -67 15t-41 30z" />
<glyph unicode="&#xa1;" horiz-adv-x="452" d="M-845.5 -609q-40.5 91 20.5 182t184 91q81 0 109.5 -61t-10 -122t-122.5 -61q-4 0 -4 4.5t4 4.5q79 0 115.5 56.5t9.5 112.5t-102 56q-111 0 -169 -83q-49 -69 -32 -145q17 -75 91 -99q27 -9 59 -9q91 0 183 51.5t169.5 133.5t152.5 181.5t140 199t121.5 181.5t109 133.5 t92.5 51.5q6 0 4 -7q-1 -5 -6 -5q-22 0 -51.5 -32t-63 -86.5t-74 -124.5t-88.5 -148t-102 -156t-118.5 -148t-133.5 -124.5t-152.5 -86.5t-170.5 -32q-125 0 -165.5 91zM281 346q0 18 30.5 43t48.5 25q16 0 5 -33q-12 -41 -40 -54q-7 -3 -14 -3q-12 0 -21 6.5t-9 15.5z" />
<glyph unicode="&#xa2;" horiz-adv-x="444" d="M-20 88q0 68 54 146.5t136.5 132t157.5 53.5l47 88q4 8 10.5 9t9.5 -4t0 -13l-47 -82q52 -12 40 -74q-10 -59 -61 -106q-41 -36 -81 -37q-13 0 -19 2l-112 -199q38 4 79 29.5t63 48.5l22 24h16q-4 -4 -10.5 -11t-27 -25.5t-41.5 -33.5t-50.5 -28t-56.5 -16l-70 -125h-10 l65 123h-4q-50 0 -80 27.5t-30 70.5zM37 68q0 -66 61 -66h2l113 207q-26 20 -16.5 57t45.5 37q6 0 18 -6l59 109q-61 -7 -128.5 -68t-110.5 -138t-43 -132zM236 215q0 -4 10 -4q52 0 98 63q41 57 34 101q-7 29 -36 33z" />
<glyph unicode="&#xa3;" horiz-adv-x="948" d="M-112 14q-15 25 13 44q18 12 48 12q27 0 60 -10t54 -19.5t64 -30.5q71 36 134 108.5t142 190.5l-116 -2q-7 0 -9.5 5.5t1 10.5t10.5 5l125 -2q36 53 52 75.5t51 69t56 68.5t56 54t64.5 47t67 26.5t75.5 11.5q93 0 125 -70q28 -61 -6 -129q-38 -74 -123 -90q-19 -4 -39 -4 q-81 0 -104 53.5t15.5 107.5t106.5 54q5 0 2 -5q-1 -3 -4 -3q-65 0 -101 -56q-32 -49 -12 -94q23 -46 92 -47q81 0 131 71q44 62 31 124q-15 67 -90 77q-11 1 -24 1q-28 0 -55 -8.5t-48 -20t-46.5 -36t-41.5 -42t-42 -54.5t-38.5 -56t-41 -64t-40.5 -63l179 -2v-9l-187 -4 q-75 -117 -151 -195.5t-174 -113.5q140 -66 239 -66q171 0 263 89q57 55 52 110q-4 45 -49 52q-7 1 -14 1q-83 0 -148 -74q-44 -50 -41 -86q1 -20 21 -20q2 0 0.5 -2t-6.5 -2q-39 0 -39 38q0 46 51 94q65 63 154 63q63 0 78 -49q16 -53 -33 -113q-72 -88 -220 -107 q-33 -4 -69 -4q-67 0 -125 18t-129 52q-62 -19 -125 -19q-100 0 -122 39zM-103 35q-9 -23 29 -38q31 -13 84 -13q51 0 103 20q-112 55 -164 55q-43 0 -52 -24z" />
<glyph unicode="&#xa4;" horiz-adv-x="700" d="M63 27l82 94q-34 65 -1.5 177.5t110.5 184.5l-88 138q-9 12 -0.5 20t16.5 -4l90 -141q70 57 154 57q57 0 90 -45l96 113q9 13 20 5q10 -6 1 -16l-105 -121q34 -66 5 -173.5t-105 -176.5l78 -116q10 -13 -1 -21q-9 -7 -16 4l-77 119q-75 -59 -174 -59q-55 0 -80 36 l-74 -88q-10 -11 -20 -4q-9 7 -1 17zM191 217q-8 -106 46 -128q11 -5 25 -5q92 0 160 115q58 100 62 212q4 103 -46 125q-11 5 -24 5q-86 0 -155 -113q-61 -100 -68 -211z" />
<glyph unicode="&#xa5;" horiz-adv-x="993" d="M103 330q-20 77 24 172q51 112 156 156q54 22 116 22q108 0 163.5 -61.5t55.5 -159.5q0 -126 -67 -254h6q31 41 73.5 104.5t73 109.5t71 98t75 84.5t77 54.5t85.5 22q37 0 60.5 -19.5t28.5 -38.5l5 -20h-8q-3 6 -8.5 14.5t-27.5 22.5t-50 14q-42 0 -84 -20.5t-75.5 -50.5 t-73 -79.5t-67.5 -91t-69.5 -104t-69.5 -100.5l162 -2v-8l-172 -5q-24 -33 -65 -77l184 -2v-9l-199 -4q-117 -123 -245 -123q-59 0 -87 21.5t-28 50.5q0 25 17 43.5t38 18.5q11 0 18 -6t7 -15q0 -17 -26.5 -35.5t-26.5 -32.5t23.5 -25t64.5 -11q127 0 219 114l-148 -2 q-7 0 -9.5 5t1 10.5t10.5 5.5l156 -4q31 43 45 77l-152 -2q-7 0 -9.5 5t0.5 10.5t11 5.5l158 -2q47 105 47 229q0 99 -47.5 157t-142.5 58q-134 0 -212 -111q-58 -82 -56 -172q2 -77 49 -94q10 -4 22 -4q3 0 4 -2t0 -4t-4 -2q-59 0 -77 68z" />
<glyph unicode="&#xa6;" horiz-adv-x="380" d="M139 -80v594q0 6 8.5 6.5t8.5 -6.5v-594q0 -9 -8.5 -9t-8.5 9zM139 723v594q0 6 8.5 6.5t8.5 -6.5v-594q0 -9 -8.5 -9t-8.5 9z" />
<glyph unicode="&#xa7;" horiz-adv-x="649" d="M-94 -163q-22 50 4 98q22 40 61 40q15 0 25 -9.5t10 -24.5q-3 -1 -7 -3t-15 -9.5t-19 -17t-15 -26.5t-7 -37q0 -32 25.5 -50.5t66.5 -18.5q91 0 140.5 47t49.5 121q0 68 -26.5 161.5t-26.5 147.5q0 81 55 128t144 52q-19 70 -19 123q0 84 58.5 132t144.5 48q84 0 108 -59 q17 -43 -7 -78q-16 -24 -42 -24q-14 0 -24 10t-10 24q5 1 11.5 4.5t18 18.5t11.5 35q0 59 -76 59q-62 0 -97.5 -32t-35.5 -91q0 -68 27.5 -161t27.5 -146q0 -82 -50.5 -143t-140.5 -78q11 -50 11 -82q0 -96 -68.5 -161.5t-187.5 -65.5q-95 0 -125 68zM231 303q0 -42 6 -76.5 t20.5 -82t16.5 -56.5q63 13 97.5 57.5t34.5 104.5q0 63 -31 176q-70 -1 -107 -32.5t-37 -90.5z" />
<glyph unicode="&#xa8;" horiz-adv-x="638" d="M260 581q12 39 38 50q5 2 11 2q12 0 20.5 -7t8.5 -16q0 -16 -28.5 -38.5t-43.5 -22.5q-16 0 -6 32zM420 581q12 39 38 50q5 2 11 2q12 0 20.5 -7t8.5 -16q0 -16 -28.5 -38.5t-43.5 -22.5q-16 0 -6 32z" />
<glyph unicode="&#xa9;" horiz-adv-x="978" d="M102 143q0 92 54 187.5t136 167.5t184.5 118t195.5 46q106 0 167.5 -56.5t61.5 -148.5q0 -123 -89.5 -245.5t-222.5 -197.5t-257 -75q-106 0 -168 56t-62 148zM115 147q0 -90 59 -144t164 -54q118 0 247.5 74.5t217.5 193t88 234.5q0 90 -60 145t-163 55 q-119 0 -248.5 -74.5t-217 -193.5t-87.5 -236zM315 201q0 61 49 132t124 120t143 49q54 0 58 -46t-37 -89q-36 -38 -81 -39q-12 0 -22 9t-10 21q0 15 9 25t23 10q15 -6 35 -6q49 0 68 40q16 33 -4 54q-11 11 -31 11q-57 0 -122.5 -56.5t-107.5 -129.5t-42 -124q0 -61 57 -61 q36 0 77 24t64 48l23 24h14q-4 -4 -10.5 -11.5t-27.5 -25.5t-42 -32t-50.5 -25.5t-55.5 -11.5q-45 0 -73 25t-28 65z" />
<glyph unicode="&#xaa;" horiz-adv-x="669" d="M219 518q0 81 98.5 159.5t176.5 78.5q36 0 36 -35q0 -13 -6 -31h4l50 62h2q8 -11 26 -11q12 0 25 5.5t19 11.5l7 6h7q-24 -24 -59 -61.5t-93.5 -114.5t-58.5 -107q0 -26 28 -26q19 0 45.5 17t50.5 40.5t45.5 47.5t34.5 41l13 17h12q-5 -7 -14.5 -19t-35.5 -42.5 t-50 -53.5t-53 -42t-50 -19t-33 14t-12 40t21 73h-4q-44 -54 -91 -90.5t-81 -36.5q-29 0 -44.5 22t-15.5 54zM254 479q0 -24 27 -24q35 0 93 50t102 114t44 102q0 24 -22 24q-35 0 -94.5 -51t-104.5 -115t-45 -100z" />
<glyph unicode="&#xab;" horiz-adv-x="636" d="M113 215q-10 14 4 21l231 143v-10l-192 -152l77 -170v-10q-81 121 -120 178zM279 215q-10 14 4 21l231 143v-10l-192 -152l77 -170v-10q-81 121 -120 178z" />
<glyph unicode="&#xac;" horiz-adv-x="555" d="M59 309v8l430 7q9 0 13 -8t0 -17l-115 -170h-8l88 164z" />
<glyph unicode="&#xad;" horiz-adv-x="354" />
<glyph unicode="&#xae;" horiz-adv-x="972" d="M285 600q0 90 60 177t152 140.5t183 53.5q81 0 129.5 -44.5t48.5 -117.5q0 -88 -61 -174t-153 -138.5t-181 -52.5q-81 0 -129.5 44t-48.5 112zM293 600q0 -65 47 -107t123 -42q102 0 203 69q-6 -2 -19 -2q-45 0 -45 45h-2q-39 0 -39 31q0 20 32 55t32 51q0 6 -6 8t-25 1 q-2 0 -2 2t2 2q43 0 75.5 34t32.5 72q0 21 -12 33q-28 -21 -61 -72t-58 -95t-70.5 -79t-101.5 -35q-25 0 -37 9.5t-12 21.5t8 19.5t17 7.5q10 0 10 -8q0 -7 -11.5 -15t-11.5 -14q0 -14 37 -14q41 0 81.5 34.5t68 78.5t66 93.5t71.5 71.5q-23 23 -68 23q-103 0 -164 -70 q-41 -48 -33 -88q6 -31 42 -31q58 0 96 54q30 43 18 70q-7 13 -24 13q-44 0 -75 -48q-24 -35 -12 -51q4 -5 11 -5l1 -1q0 -1 -3 -1q-27 0 -19 32q8 37 46 62q24 16 49 16q36 0 34 -36q-2 -41 -43 -77q-35 -32 -79 -32t-47 40q-4 46 43 93q63 64 159 64q43 0 74 -23 q34 19 62 19q3 0 3 -2.5t-3 -2.5q-34 0 -58 -18q21 -21 21 -47q0 -31 -26 -60t-68 -38q14 -6 14 -23q0 -20 -32 -53t-32 -51q0 -17 27 -17h2q2 35 35 74t63 39q21 0 21 -21q0 -24 -35 -57t-74 -39v-8q0 -15 10 -24t25 -9q22 0 56 26t67 65t56.5 93t23.5 103q0 69 -47 112.5 t-123 43.5q-88 0 -178 -53t-149.5 -139t-59.5 -173zM612 567q38 6 71.5 38.5t33.5 53.5q0 17 -17 17q-23 0 -52.5 -37.5t-35.5 -71.5z" />
<glyph unicode="&#xb0;" horiz-adv-x="321" d="M137 520q0 29 20.5 49.5t49.5 20.5q31 0 51.5 -20.5t20.5 -49.5t-20.5 -49t-51.5 -20q-29 0 -49.5 20t-20.5 49zM160 520q0 -20 13.5 -33.5t33.5 -13.5t33.5 13.5t13.5 33.5t-13.5 33.5t-33.5 13.5t-33.5 -13.5t-13.5 -33.5z" />
<glyph unicode="&#xb1;" horiz-adv-x="563" d="M4.5 167q-2.5 5 1 10t10.5 5l410 -6v-8l-412 -6q-7 0 -9.5 5zM74.5 308.5q-2.5 5.5 1 10.5t10.5 5l176 -5l84 152h4q5 -4 15 -4t20.5 4.5t15.5 8.5l5 5h6q-67 -73 -127 -166l211 -2v-8l-222 -4l-61 -96h-14l53 96l-168 -2q-7 0 -9.5 5.5z" />
<glyph unicode="&#xb2;" horiz-adv-x="614" d="M168 387q9 25 39.5 50t56.5 39.5t76 39.5q227 115 227 240q0 61 -65 61q-75 0 -119 -62q-34 -47 -20 -85q9 -27 43 -27q10 0 6.5 -11t-17.5 -11q-42 0 -48 45q-8 52 34 104q51 63 135 64q51 0 78 -25.5t27 -65.5q0 -29 -16.5 -57.5t-40 -50t-61.5 -45t-69 -39.5 t-76 -38.5t-69 -35.5h10q26 0 57.5 -24.5t59.5 -24.5q32 0 64 28t48 56l17 27h12q-3 -6 -8.5 -16t-24 -35t-38 -44t-50.5 -35t-63 -16q-30 0 -59.5 21.5t-51.5 21.5q-58 0 -80 -51q-4 -9 -11 -6q-4 3 -3 8z" />
<glyph unicode="&#xb3;" horiz-adv-x="595" d="M176 444q0 31 20 55.5t50 24.5q9 0 16.5 -6.5t7.5 -15.5q0 -11 -7.5 -20t-16.5 -9q-5 10 -21 10t-26.5 -12t-10.5 -33q0 -23 19 -39t53 -16q55 0 99 21t69 52.5t38.5 67.5t13 68.5t-12.5 52.5q-41 -12 -68 -12q-16 0 -16 13q1 18 27 26q12 4 28 4q27 0 43 -8 q72 46 72 104q0 49 -55 49q-62 0 -89 -43q-19 -29 -2 -45q6 -6 17 -6t10 -12q-1 -13 -16 -13q-28 0 -31 31q-3 39 33 72q34 31 86 31q90 0 90 -68q0 -62 -96 -111q19 -13 28 -35.5t6.5 -49t-13.5 -54.5t-34 -54t-52.5 -47t-71.5 -33.5t-89 -12.5q-98 0 -98 73zM395 652 q-4 -9 8 -9q27 0 54 12q-3 11 -23 11q-33 0 -39 -14z" />
<glyph unicode="&#xb4;" horiz-adv-x="196" d="M0 564v3q26 0 54.5 20.5t48.5 45t41 45t34 20.5q21 0 21 -20q0 -32 -71.5 -76.5t-119.5 -44.5q-4 0 -6 2.5t-2 4.5z" />
<glyph unicode="&#xb6;" horiz-adv-x="1165" d="M0 98q0 43 31 75t67 32q19 0 32 -10t13 -27q0 -19 -15.5 -35.5t-33.5 -27t-33.5 -25.5t-15.5 -31q0 -28 42.5 -46.5t117.5 -18.5q83 0 161 27.5t142.5 76.5t124.5 112.5t114.5 138.5t106 152t104 155.5t103 146.5t109 127.5t116.5 95.5q-111 39 -201 39q-181 0 -314 -131 q-101 -99 -127 -224q-25 -121 38 -185q46 -46 129 -46q6 0 6 -6t-6 -6q-166 0 -233 106q-58 90 -20 211q39 128 161 212q134 93 319 93q53 0 104.5 -9t81 -18.5t76.5 -27.5q109 120 209.5 184t206.5 64q20 0 27.5 -15.5t-0.5 -31t-27 -15.5q-1 3 -4 8t-18.5 13t-38.5 8 q-145 0 -293 -186q67 24 125 24q79 0 96 -40q14 -29 -17 -53q-26 -19 -67 -19q-70 0 -176 36q-55 -75 -125 -191t-125 -214.5t-125.5 -205t-135 -180.5t-145 -122.5t-163.5 -48.5q-4 0 -4 6t4 6q69 0 144 61.5t151 169.5t147.5 223t164 256t169.5 234q-56 -37 -112.5 -97.5 t-105.5 -128t-100 -145.5t-102 -154t-105 -150t-115 -136.5t-126 -110.5t-144.5 -75t-164.5 -27q-106 0 -155.5 37.5t-49.5 89.5zM1331 1014q98 -37 168 -37q51 0 68 30q15 26 -16 43q-24 13 -64 13q-67 0 -144 -31z" />
<glyph unicode="&#xb7;" horiz-adv-x="288" d="M116 287q12 41 40 54q7 3 14 3q12 0 21.5 -6.5t9.5 -15.5q0 -18 -31 -43t-49 -25q-16 0 -5 33z" />
<glyph unicode="&#xb8;" horiz-adv-x="401" d="M-122 -197q-5 21 12 30q5 3 10 3q8 0 8 -6q-1 -3 -2 -4q-13 0 -16 -15q-3 -20 25 -26q8 -2 19 -2q70 0 105 50q26 36 9 61q-9 14 -32 14q-15 0 -28.5 -3.5t-22.5 -8t-12 -5.5h-2q-26 0 77 108l3 3h12q-47 -65 -74 -96q28 14 62 14q54 0 62 -38q8 -37 -33 -72 q-45 -39 -121 -39q-54 0 -61 32z" />
<glyph unicode="&#xb9;" horiz-adv-x="505" d="M190 482q3 7 9 7q43 0 109.5 54t123.5 118.5t114 118.5t85 54q3 0 4 -3t-0.5 -6.5t-5.5 -3.5q-33 0 -98.5 -88t-117 -192t-51.5 -148h-6q-9 17 -32 17q-19 0 -37 -8t-27 -16l-8 -9h-8q40 44 126.5 167t112.5 156h-4q-114 -121 -155 -157q-80 -70 -131 -70q-8 0 -3 9z" />
<glyph unicode="&#xba;" horiz-adv-x="540" d="M223 518q0 56 45.5 112.5t107.5 90t113 33.5q10 0 10 -8l-3 -3q-61 0 -148.5 -101t-87.5 -163q0 -24 29 -24q34 0 83 41t85 98q-3 41 22 88t53 47q23 0 23 -22q0 -20 -40 -61.5t-40 -59.5q0 -21 25 -21q20 0 42 13.5t34 26.5l12 13h14q-6 -7 -16 -18t-37 -29t-51 -18 q-30 0 -37 25q-37 -57 -86 -96.5t-90 -39.5q-28 0 -45 22.5t-17 53.5z" />
<glyph unicode="&#xbb;" horiz-adv-x="630" d="M61 37v10l193 152l-78 170v10q82 -121 121 -178q10 -14 -4 -21zM227 37v10l193 152l-78 170v10q82 -121 121 -178q10 -14 -4 -21z" />
<glyph unicode="&#xbc;" horiz-adv-x="1050" d="M81 292q3 7 9 7q36 0 86 35.5t98.5 86t95.5 101t88 86t64 35.5q6 0 4 -7q-3 -4 -6 -5q-33 0 -98 -88t-116.5 -192t-51.5 -148h-6q-10 16 -33 16q-19 0 -37 -8.5t-26 -16.5l-9 -8h-8q40 44 127.5 167.5t112.5 156.5h-4q-115 -122 -159 -160q-78 -67 -128 -67q-8 0 -3 9z M156 -113l581 838h4q6 -4 29 -4q12 0 25 4t19 8l7 4h6q-59 -43 -223.5 -255.5t-299.5 -403.5l-134 -191h-14zM491 139q-1 20 23 29q10 4 21 4q15 0 47 -8q53 48 98 130t45 140h6q6 -8 31 -8q12 0 24 6t18 12l7 7h6q-13 -23 -35.5 -59t-81.5 -114.5t-104 -117.5 q80 -29 115 -31q98 136 134 173q46 45 77 46q6 0 4 -7q-3 -4 -6 -5q-33 0 -81 -64t-85 -145q33 3 58 15t34 23l8 11h14q-4 -6 -12 -15.5t-39 -25.5t-69 -18q-35 -82 -35 -117h-4q-8 14 -35 14q-17 0 -34.5 -7.5t-26.5 -14.5l-9 -8h-8q47 52 106 135q-32 4 -116 33 q-41 -33 -68 -33q-26 0 -27 20zM503 145q-3 -15 15 -16q21 0 55 27q-21 6 -38 6q-25 0 -32 -17z" />
<glyph unicode="&#xbd;" horiz-adv-x="1019" d="M81 292q3 7 9 7q36 0 86 35.5t98.5 86t95.5 101t88 86t64 35.5q6 0 4 -7q-3 -4 -6 -5q-33 0 -98 -88t-116.5 -192t-51.5 -148h-6q-10 16 -33 16q-19 0 -37 -8.5t-26 -16.5l-9 -8h-8q40 44 127.5 167.5t112.5 156.5h-4q-115 -122 -159 -160q-78 -67 -128 -67q-8 0 -3 9z M156 -113l581 838h4q6 -4 29 -4q12 0 25 4t19 8l7 4h6q-59 -43 -223.5 -255.5t-299.5 -403.5l-134 -191h-14zM440 -8q9 25 39.5 50t56.5 39.5t76 39.5q228 116 228 239q0 62 -66 62q-75 0 -119 -62q-34 -47 -20 -85q11 -26 43 -27q9 0 7 -11q-4 -11 -17 -12q-42 0 -48 45 q-8 52 33 104q51 63 135 64q51 0 78 -25t27 -65q0 -29 -16.5 -57.5t-40 -50t-61.5 -45t-69 -39.5t-76 -38.5t-69 -35.5h10q26 0 57.5 -24.5t59.5 -24.5q32 0 64 27.5t48 55.5l17 27h12q-3 -6 -8.5 -15.5t-24 -34.5t-38 -44.5t-50.5 -35t-63 -15.5q-30 0 -59 21.5t-51 21.5 q-58 0 -80 -51q-4 -10 -13 -6q-4 2 -2 8z" />
<glyph unicode="&#xbe;" horiz-adv-x="983" d="M81 292q3 7 9 7q36 0 86 35.5t98.5 86t95.5 101t88 86t64 35.5q6 0 4 -7q-3 -4 -6 -5q-33 0 -98 -88t-116.5 -192t-51.5 -148h-6q-10 16 -33 16q-19 0 -37 -8.5t-26 -16.5l-9 -8h-8q40 44 127.5 167.5t112.5 156.5h-4q-115 -122 -159 -160q-78 -67 -128 -67q-8 0 -3 9z M156 -113l581 838h4q6 -4 29 -4q12 0 25 4t19 8l7 4h6q-59 -43 -223.5 -255.5t-299.5 -403.5l-134 -191h-14zM446 63q0 31 20 55.5t50 24.5q9 0 17 -6.5t8 -15.5q0 -10 -8 -19.5t-17 -9.5q-4 10 -20 10t-26.5 -12t-10.5 -33q0 -23 18.5 -39t52.5 -16q55 0 99 21t69 52.5 t38.5 67.5t13 68.5t-12.5 52.5q-41 -12 -67 -12q-16 0 -16 13q1 18 27 26q12 4 28 4q27 0 43 -8q71 46 71 104q0 49 -55 49q-62 0 -89 -43q-19 -29 -2 -45q6 -6 17 -6t9.5 -12t-15.5 -12q-29 0 -31 31q-3 40 34 72q35 30 85 30q90 0 90 -68q0 -62 -96 -111q27 -19 34 -54 t-8.5 -74t-46 -75t-85 -59.5t-119.5 -23.5q-99 0 -99 73zM666 271q-4 -9 8 -9q26 0 53 12q-2 11 -22 11q-33 0 -39 -14z" />
<glyph unicode="&#xbf;" horiz-adv-x="782" d="M-211 -508q0 87 43 164.5t111 134t151 107t166 92t151 79.5t111 79.5t43 82.5q0 15 -13.5 25t-37.5 10q4 8 14 8q28 0 46 -12.5t18 -36.5q0 -39 -41 -79t-106.5 -78t-144.5 -80.5t-158 -94.5t-144.5 -110.5t-106.5 -138t-41 -168.5q0 -82 55 -133.5t152 -51.5 q177 0 285 128q79 94 86 208q5 102 -52 146q-30 22 -71 22q-123 0 -200 -97q-56 -71 -55 -144q1 -63 49 -73l14 -1q5 0 5 -6t-5 -6q-59 0 -72 60q-14 68 34 148q60 100 170 129q36 9 74 9q94 0 126 -85q32 -86 -14 -199q-51 -129 -171 -199q-99 -58 -223 -58 q-110 0 -179 63.5t-69 155.5zM616 361q12 41 40 54q7 3 14 3q12 0 21 -7t9 -16q0 -18 -30.5 -42.5t-48.5 -24.5q-16 0 -5 33z" />
<glyph unicode="&#xc0;" horiz-adv-x="1773" d="M-34 531q-16 44 16 84q31 38 88 38q65 0 102 -63q7 24 35 24q11 0 20.5 -6.5t12.5 -15.5q71 181 236 298.5t355 117.5q84 0 146 -23.5t98 -65t53 -92t17 -110.5q0 -129 -45.5 -246.5t-119 -199.5t-168 -130.5t-191.5 -48.5q-90 0 -111 48q-13 30 7 50q9 9 22 9 q16 0 23 -9t7 -20q-3 0 -7.5 -0.5t-11.5 -7.5t-7 -21q0 -19 21.5 -30t56.5 -11q163 0 306.5 131t188.5 332q-45 -119 -137 -204t-170 -85q-25 0 -37 11t-4 24q-16 -2 -47 -2q-123 0 -161 96.5t20 192.5t168 96q65 0 86 -46.5t-8 -93t-87 -46.5q-16 0 -26.5 11.5t-10.5 25.5 q0 13 9.5 25t27.5 12q0 -4 2 -10t11 -15.5t24 -9.5q35 0 49 38q16 41 -12 72q-22 25 -65 25q-103 0 -159 -90t-20.5 -180.5t152.5 -90.5q109 0 203 50.5t151.5 143t57.5 204.5q0 58 -16 106t-50 87.5t-94.5 62t-141.5 22.5q-159 0 -301.5 -83.5t-229.5 -225.5t-87 -303 q0 -208 137 -320q-46 45 -72.5 109t-31.5 134.5t10 147t47 148.5t84 136.5t117 112.5t150.5 76.5t179.5 28.5q3 0 4 -2t0 -4t-4 -2q-233 0 -396 -166q-131 -131 -170 -316q-39 -181 31 -314q76 -148 257 -166q23 -2 48 -2q175 0 349.5 101t373.5 329l57 65h-127q3 1 3 6 t-3 7h138q456 516 719 694q-98 16 -136 16q-81 -92 -127 -92q-22 0 -22 20q0 26 43 53t102 27l45 52q-44 2 -95 20t-100 42t-100 47.5t-111.5 39.5t-117.5 16q-194 0 -306 -127q-86 -97 -88 -222q-2 -119 76 -188q63 -56 162 -56q139 0 222 106q66 85 61 186q-4 96 -73 136 q-34 20 -81 20q-116 0 -173 -90q-42 -67 -28 -136q12 -58 57 -66l13 -1q16 0 25 7.5t10 15.5l2 8q13 0 21 -9t8 -20q0 -12 -8 -21t-21 -9q-81 0 -109 70q-26 66 10 142q40 86 130 111q30 8 63 8q104 0 145 -88q38 -82 2 -186q-39 -110 -137 -162q-63 -33 -139 -33 q-142 0 -208 106q-58 93 -30 217q29 132 138 213q106 79 256 79q71 0 149.5 -25.5t136 -56.5t126 -57t121.5 -27q39 42 69.5 65t59.5 23q25 0 25 -22q-1 -29 -44 -52q-42 -24 -106 -24h-2l-45 -52q76 -4 143 -14q162 109 280 109q38 0 60 -18.5t20 -43.5q86 -17 111 -95 q25 -75 -18 -151q-49 -86 -147 -103q-19 -3 -40 -3q-61 0 -99 30t-38 70q0 12 6 20.5t12.5 9t12.5 -4.5q8 40 37.5 67t76.5 27q15 0 25 -9t10 -22q0 -10 -9 -19t-20 -9q-10 26 -43 26q-30 0 -49.5 -26t-19.5 -64q0 -36 26.5 -61t71.5 -25q105 0 163 82q48 68 33 143 q-16 77 -91 101q-7 2 -15 4q-12 -29 -55 -48.5t-117 -19.5h-37q-56 -44 -126.5 -124t-123.5 -151t-144.5 -197t-143.5 -195q-190 -249 -338 -371q35 -12 80 -12v-4q-52 0 -109 -54q62 -43 121 -43q32 0 73 23t76.5 55.5t66.5 64.5t49 55l18 23h14q-7 -9 -19.5 -25t-49.5 -56 t-71.5 -71t-78.5 -56t-78 -25q-53 0 -129 47q-45 -42 -45 -70h-2q-14 27 -64 50q-66 -27 -108 -27q-39 0 -52 16.5t4 33t50 16.5q49 0 104 -25q35 21 60 41q-30 20 -54 20q-3 0 -3 2t3 2q16 0 48.5 28t31.5 46h2q6 -24 33 -41q77 81 242 315q12 17 18 25h-229l-62 -69 q-202 -232 -379.5 -335.5t-355.5 -103.5q-104 0 -183.5 27t-125.5 72t-77 100t-45.5 115.5t-24 112t-19.5 97t-25 64.5q12 -24 -3 -51t-52 -27q-64 0 -83 50zM-5 589q-20 -41 3 -73q17 -24 51 -24q37 0 46 27q6 17 -6 21q-1 1 -3 1q-7 0 -10.5 -5.5t-3.5 -10.5v-5 q-19 0 -26.5 15t0.5 30t26 15q33 0 52 -33t26.5 -84.5t22 -116.5t34.5 -126t68.5 -116.5t119.5 -85.5q-94 51 -144 145.5t-50 219.5q0 31 -4 65.5t-15 81.5t-38 77t-66 30q-60 0 -83 -48zM1101.5 23q9.5 -11 41.5 -11q41 0 92 23q-48 20 -90 20q-25 0 -39 -10.5t-4.5 -21.5z M1266 33q24 -12 45 -33q6 22 41 53l-23 17q-51 -31 -63 -37zM1278 106q20 -3 39 -16q21 16 45 43q-20 12 -25 25q-19 -34 -59 -52zM1337 78l23 -17q38 33 76 45q-19 0 -45 11zM1411 492h227l11 12q167 236 311 405.5t274 257.5q-19 2 -100 17q-150 -99 -328 -273.5 t-395 -418.5zM1837 1130q0 -12 14 -12q42 0 115 84q-52 -3 -90.5 -27.5t-38.5 -44.5zM2040 1272q86 0 121 44q18 23 6 33q-4 3 -10 3q-26 0 -52.5 -20t-64.5 -60zM2146 1192l105 -12q106 67 192 67l31 -2q2 21 -16 34t-50 13q-110 0 -262 -100zM2212 1501q0 10 6 17.5 t12 7.5q15 0 30.5 -23t27 -51t29.5 -51t36 -23q-2 -8 -8 -8q-26 0 -79.5 50t-53.5 81zM2292 1176h20q68 0 109 16.5t51 40.5q-13 2 -29 2q-70 0 -151 -59z" />
<glyph unicode="&#xc1;" horiz-adv-x="1773" d="M-34 531q-16 44 16 84q31 38 88 38q65 0 102 -63q7 24 35 24q11 0 20.5 -6.5t12.5 -15.5q71 181 236 298.5t355 117.5q84 0 146 -23.5t98 -65t53 -92t17 -110.5q0 -129 -45.5 -246.5t-119 -199.5t-168 -130.5t-191.5 -48.5q-90 0 -111 48q-13 30 7 50q9 9 22 9 q16 0 23 -9t7 -20q-3 0 -7.5 -0.5t-11.5 -7.5t-7 -21q0 -19 21.5 -30t56.5 -11q163 0 306.5 131t188.5 332q-45 -119 -137 -204t-170 -85q-25 0 -37 11t-4 24q-16 -2 -47 -2q-123 0 -161 96.5t20 192.5t168 96q65 0 86 -46.5t-8 -93t-87 -46.5q-16 0 -26.5 11.5t-10.5 25.5 q0 13 9.5 25t27.5 12q0 -4 2 -10t11 -15.5t24 -9.5q35 0 49 38q16 41 -12 72q-22 25 -65 25q-103 0 -159 -90t-20.5 -180.5t152.5 -90.5q109 0 203 50.5t151.5 143t57.5 204.5q0 58 -16 106t-50 87.5t-94.5 62t-141.5 22.5q-159 0 -301.5 -83.5t-229.5 -225.5t-87 -303 q0 -208 137 -320q-46 45 -72.5 109t-31.5 134.5t10 147t47 148.5t84 136.5t117 112.5t150.5 76.5t179.5 28.5q3 0 4 -2t0 -4t-4 -2q-233 0 -396 -166q-131 -131 -170 -316q-39 -181 31 -314q76 -148 257 -166q23 -2 48 -2q175 0 349.5 101t373.5 329l57 65h-127q3 1 3 6 t-3 7h138q456 516 719 694q-98 16 -136 16q-81 -92 -127 -92q-22 0 -22 20q0 26 43 53t102 27l45 52q-44 2 -95 20t-100 42t-100 47.5t-111.5 39.5t-117.5 16q-194 0 -306 -127q-86 -97 -88 -222q-2 -119 76 -188q63 -56 162 -56q139 0 222 106q66 85 61 186q-4 96 -73 136 q-34 20 -81 20q-116 0 -173 -90q-42 -67 -28 -136q12 -58 57 -66l13 -1q16 0 25 7.5t10 15.5l2 8q13 0 21 -9t8 -20q0 -12 -8 -21t-21 -9q-81 0 -109 70q-26 66 10 142q40 86 130 111q30 8 63 8q104 0 145 -88q38 -82 2 -186q-39 -110 -137 -162q-63 -33 -139 -33 q-142 0 -208 106q-58 93 -30 217q29 132 138 213q106 79 256 79q71 0 149.5 -25.5t136 -56.5t126 -57t121.5 -27q39 42 69.5 65t59.5 23q25 0 25 -22q-1 -29 -44 -52q-42 -24 -106 -24h-2l-45 -52q76 -4 143 -14q162 109 280 109q38 0 60 -18.5t20 -43.5q86 -17 111 -95 q25 -75 -18 -151q-49 -86 -147 -103q-19 -3 -40 -3q-61 0 -99 30t-38 70q0 12 6 20.5t12.5 9t12.5 -4.5q8 40 37.5 67t76.5 27q15 0 25 -9t10 -22q0 -10 -9 -19t-20 -9q-10 26 -43 26q-30 0 -49.5 -26t-19.5 -64q0 -36 26.5 -61t71.5 -25q105 0 163 82q48 68 33 143 q-16 77 -91 101q-7 2 -15 4q-12 -29 -55 -48.5t-117 -19.5h-37q-56 -44 -126.5 -124t-123.5 -151t-144.5 -197t-143.5 -195q-190 -249 -338 -371q35 -12 80 -12v-4q-52 0 -109 -54q62 -43 121 -43q32 0 73 23t76.5 55.5t66.5 64.5t49 55l18 23h14q-7 -9 -19.5 -25t-49.5 -56 t-71.5 -71t-78.5 -56t-78 -25q-53 0 -129 47q-45 -42 -45 -70h-2q-14 27 -64 50q-66 -27 -108 -27q-39 0 -52 16.5t4 33t50 16.5q49 0 104 -25q35 21 60 41q-30 20 -54 20q-3 0 -3 2t3 2q16 0 48.5 28t31.5 46h2q6 -24 33 -41q77 81 242 315q12 17 18 25h-229l-62 -69 q-202 -232 -379.5 -335.5t-355.5 -103.5q-104 0 -183.5 27t-125.5 72t-77 100t-45.5 115.5t-24 112t-19.5 97t-25 64.5q12 -24 -3 -51t-52 -27q-64 0 -83 50zM-5 589q-20 -41 3 -73q17 -24 51 -24q37 0 46 27q6 17 -6 21q-1 1 -3 1q-7 0 -10.5 -5.5t-3.5 -10.5v-5 q-19 0 -26.5 15t0.5 30t26 15q33 0 52 -33t26.5 -84.5t22 -116.5t34.5 -126t68.5 -116.5t119.5 -85.5q-94 51 -144 145.5t-50 219.5q0 31 -4 65.5t-15 81.5t-38 77t-66 30q-60 0 -83 -48zM1101.5 23q9.5 -11 41.5 -11q41 0 92 23q-48 20 -90 20q-25 0 -39 -10.5t-4.5 -21.5z M1266 33q24 -12 45 -33q6 22 41 53l-23 17q-51 -31 -63 -37zM1278 106q20 -3 39 -16q21 16 45 43q-20 12 -25 25q-19 -34 -59 -52zM1337 78l23 -17q38 33 76 45q-19 0 -45 11zM1411 492h227l11 12q167 236 311 405.5t274 257.5q-19 2 -100 17q-150 -99 -328 -273.5 t-395 -418.5zM1837 1130q0 -12 14 -12q42 0 115 84q-52 -3 -90.5 -27.5t-38.5 -44.5zM2040 1272q86 0 121 44q18 23 6 33q-4 3 -10 3q-26 0 -52.5 -20t-64.5 -60zM2146 1192l105 -12q106 67 192 67l31 -2q2 21 -16 34t-50 13q-110 0 -262 -100zM2273 1376v2q34 0 69.5 33 t64 65.5t44.5 32.5q21 0 21 -20q0 -32 -71.5 -76.5t-119.5 -44.5q-4 0 -6 2.5t-2 5.5zM2292 1176h20q68 0 109 16.5t51 40.5q-13 2 -29 2q-70 0 -151 -59z" />
<glyph unicode="&#xc2;" horiz-adv-x="1773" d="M-34 531q-16 44 16 84q31 38 88 38q65 0 102 -63q7 24 35 24q11 0 20.5 -6.5t12.5 -15.5q71 181 236 298.5t355 117.5q84 0 146 -23.5t98 -65t53 -92t17 -110.5q0 -129 -45.5 -246.5t-119 -199.5t-168 -130.5t-191.5 -48.5q-90 0 -111 48q-13 30 7 50q9 9 22 9 q16 0 23 -9t7 -20q-3 0 -7.5 -0.5t-11.5 -7.5t-7 -21q0 -19 21.5 -30t56.5 -11q163 0 306.5 131t188.5 332q-45 -119 -137 -204t-170 -85q-25 0 -37 11t-4 24q-16 -2 -47 -2q-123 0 -161 96.5t20 192.5t168 96q65 0 86 -46.5t-8 -93t-87 -46.5q-16 0 -26.5 11.5t-10.5 25.5 q0 13 9.5 25t27.5 12q0 -4 2 -10t11 -15.5t24 -9.5q35 0 49 38q16 41 -12 72q-22 25 -65 25q-103 0 -159 -90t-20.5 -180.5t152.5 -90.5q109 0 203 50.5t151.5 143t57.5 204.5q0 58 -16 106t-50 87.5t-94.5 62t-141.5 22.5q-159 0 -301.5 -83.5t-229.5 -225.5t-87 -303 q0 -208 137 -320q-46 45 -72.5 109t-31.5 134.5t10 147t47 148.5t84 136.5t117 112.5t150.5 76.5t179.5 28.5q3 0 4 -2t0 -4t-4 -2q-233 0 -396 -166q-131 -131 -170 -316q-39 -181 31 -314q76 -148 257 -166q23 -2 48 -2q175 0 349.5 101t373.5 329l57 65h-127q3 1 3 6 t-3 7h138q456 516 719 694q-98 16 -136 16q-81 -92 -127 -92q-22 0 -22 20q0 26 43 53t102 27l45 52q-44 2 -95 20t-100 42t-100 47.5t-111.5 39.5t-117.5 16q-194 0 -306 -127q-86 -97 -88 -222q-2 -119 76 -188q63 -56 162 -56q139 0 222 106q66 85 61 186q-4 96 -73 136 q-34 20 -81 20q-116 0 -173 -90q-42 -67 -28 -136q12 -58 57 -66l13 -1q16 0 25 7.5t10 15.5l2 8q13 0 21 -9t8 -20q0 -12 -8 -21t-21 -9q-81 0 -109 70q-26 66 10 142q40 86 130 111q30 8 63 8q104 0 145 -88q38 -82 2 -186q-39 -110 -137 -162q-63 -33 -139 -33 q-142 0 -208 106q-58 93 -30 217q29 132 138 213q106 79 256 79q71 0 149.5 -25.5t136 -56.5t126 -57t121.5 -27q39 42 69.5 65t59.5 23q25 0 25 -22q-1 -29 -44 -52q-42 -24 -106 -24h-2l-45 -52q76 -4 143 -14q162 109 280 109q38 0 60 -18.5t20 -43.5q86 -17 111 -95 q25 -75 -18 -151q-49 -86 -147 -103q-19 -3 -40 -3q-61 0 -99 30t-38 70q0 12 6 20.5t12.5 9t12.5 -4.5q8 40 37.5 67t76.5 27q15 0 25 -9t10 -22q0 -10 -9 -19t-20 -9q-10 26 -43 26q-30 0 -49.5 -26t-19.5 -64q0 -36 26.5 -61t71.5 -25q105 0 163 82q48 68 33 143 q-16 77 -91 101q-7 2 -15 4q-12 -29 -55 -48.5t-117 -19.5h-37q-56 -44 -126.5 -124t-123.5 -151t-144.5 -197t-143.5 -195q-190 -249 -338 -371q35 -12 80 -12v-4q-52 0 -109 -54q62 -43 121 -43q32 0 73 23t76.5 55.5t66.5 64.5t49 55l18 23h14q-7 -9 -19.5 -25t-49.5 -56 t-71.5 -71t-78.5 -56t-78 -25q-53 0 -129 47q-45 -42 -45 -70h-2q-14 27 -64 50q-66 -27 -108 -27q-39 0 -52 16.5t4 33t50 16.5q49 0 104 -25q35 21 60 41q-30 20 -54 20q-3 0 -3 2t3 2q16 0 48.5 28t31.5 46h2q6 -24 33 -41q77 81 242 315q12 17 18 25h-229l-62 -69 q-202 -232 -379.5 -335.5t-355.5 -103.5q-104 0 -183.5 27t-125.5 72t-77 100t-45.5 115.5t-24 112t-19.5 97t-25 64.5q12 -24 -3 -51t-52 -27q-64 0 -83 50zM-5 589q-20 -41 3 -73q17 -24 51 -24q37 0 46 27q6 17 -6 21q-1 1 -3 1q-7 0 -10.5 -5.5t-3.5 -10.5v-5 q-19 0 -26.5 15t0.5 30t26 15q33 0 52 -33t26.5 -84.5t22 -116.5t34.5 -126t68.5 -116.5t119.5 -85.5q-94 51 -144 145.5t-50 219.5q0 31 -4 65.5t-15 81.5t-38 77t-66 30q-60 0 -83 -48zM1101.5 23q9.5 -11 41.5 -11q41 0 92 23q-48 20 -90 20q-25 0 -39 -10.5t-4.5 -21.5z M1266 33q24 -12 45 -33q6 22 41 53l-23 17q-51 -31 -63 -37zM1278 106q20 -3 39 -16q21 16 45 43q-20 12 -25 25q-19 -34 -59 -52zM1337 78l23 -17q38 33 76 45q-19 0 -45 11zM1411 492h227l11 12q167 236 311 405.5t274 257.5q-19 2 -100 17q-150 -99 -328 -273.5 t-395 -418.5zM1837 1130q0 -12 14 -12q42 0 115 84q-52 -3 -90.5 -27.5t-38.5 -44.5zM2040 1272q86 0 121 44q18 23 6 33q-4 3 -10 3q-26 0 -52.5 -20t-64.5 -60zM2146 1192l105 -12q106 67 192 67l31 -2q2 21 -16 34t-50 13q-110 0 -262 -100zM2200 1403q133 94 188 133 q4 3 11 3t9 -3l56 -133h-10l-72 86l-172 -86h-10zM2292 1176h20q68 0 109 16.5t51 40.5q-13 2 -29 2q-70 0 -151 -59z" />
<glyph unicode="&#xc3;" horiz-adv-x="1773" d="M-34 531q-16 44 16 84q31 38 88 38q65 0 102 -63q7 24 35 24q11 0 20.5 -6.5t12.5 -15.5q71 181 236 298.5t355 117.5q84 0 146 -23.5t98 -65t53 -92t17 -110.5q0 -129 -45.5 -246.5t-119 -199.5t-168 -130.5t-191.5 -48.5q-90 0 -111 48q-13 30 7 50q9 9 22 9 q16 0 23 -9t7 -20q-3 0 -7.5 -0.5t-11.5 -7.5t-7 -21q0 -19 21.5 -30t56.5 -11q163 0 306.5 131t188.5 332q-45 -119 -137 -204t-170 -85q-25 0 -37 11t-4 24q-16 -2 -47 -2q-123 0 -161 96.5t20 192.5t168 96q65 0 86 -46.5t-8 -93t-87 -46.5q-16 0 -26.5 11.5t-10.5 25.5 q0 13 9.5 25t27.5 12q0 -4 2 -10t11 -15.5t24 -9.5q35 0 49 38q16 41 -12 72q-22 25 -65 25q-103 0 -159 -90t-20.5 -180.5t152.5 -90.5q109 0 203 50.5t151.5 143t57.5 204.5q0 58 -16 106t-50 87.5t-94.5 62t-141.5 22.5q-159 0 -301.5 -83.5t-229.5 -225.5t-87 -303 q0 -208 137 -320q-46 45 -72.5 109t-31.5 134.5t10 147t47 148.5t84 136.5t117 112.5t150.5 76.5t179.5 28.5q3 0 4 -2t0 -4t-4 -2q-233 0 -396 -166q-131 -131 -170 -316q-39 -181 31 -314q76 -148 257 -166q23 -2 48 -2q175 0 349.5 101t373.5 329l57 65h-127q3 1 3 6 t-3 7h138q456 516 719 694q-98 16 -136 16q-81 -92 -127 -92q-22 0 -22 20q0 26 43 53t102 27l45 52q-44 2 -95 20t-100 42t-100 47.5t-111.5 39.5t-117.5 16q-194 0 -306 -127q-86 -97 -88 -222q-2 -119 76 -188q63 -56 162 -56q139 0 222 106q66 85 61 186q-4 96 -73 136 q-34 20 -81 20q-116 0 -173 -90q-42 -67 -28 -136q12 -58 57 -66l13 -1q16 0 25 7.5t10 15.5l2 8q13 0 21 -9t8 -20q0 -12 -8 -21t-21 -9q-81 0 -109 70q-26 66 10 142q40 86 130 111q30 8 63 8q104 0 145 -88q38 -82 2 -186q-39 -110 -137 -162q-63 -33 -139 -33 q-142 0 -208 106q-58 93 -30 217q29 132 138 213q106 79 256 79q71 0 149.5 -25.5t136 -56.5t126 -57t121.5 -27q39 42 69.5 65t59.5 23q25 0 25 -22q-1 -29 -44 -52q-42 -24 -106 -24h-2l-45 -52q76 -4 143 -14q162 109 280 109q38 0 60 -18.5t20 -43.5q86 -17 111 -95 q25 -75 -18 -151q-49 -86 -147 -103q-19 -3 -40 -3q-61 0 -99 30t-38 70q0 12 6 20.5t12.5 9t12.5 -4.5q8 40 37.5 67t76.5 27q15 0 25 -9t10 -22q0 -10 -9 -19t-20 -9q-10 26 -43 26q-30 0 -49.5 -26t-19.5 -64q0 -36 26.5 -61t71.5 -25q105 0 163 82q48 68 33 143 q-16 77 -91 101q-7 2 -15 4q-12 -29 -55 -48.5t-117 -19.5h-37q-56 -44 -126.5 -124t-123.5 -151t-144.5 -197t-143.5 -195q-190 -249 -338 -371q35 -12 80 -12v-4q-52 0 -109 -54q62 -43 121 -43q32 0 73 23t76.5 55.5t66.5 64.5t49 55l18 23h14q-7 -9 -19.5 -25t-49.5 -56 t-71.5 -71t-78.5 -56t-78 -25q-53 0 -129 47q-45 -42 -45 -70h-2q-14 27 -64 50q-66 -27 -108 -27q-39 0 -52 16.5t4 33t50 16.5q49 0 104 -25q35 21 60 41q-30 20 -54 20q-3 0 -3 2t3 2q16 0 48.5 28t31.5 46h2q6 -24 33 -41q77 81 242 315q12 17 18 25h-229l-62 -69 q-202 -232 -379.5 -335.5t-355.5 -103.5q-104 0 -183.5 27t-125.5 72t-77 100t-45.5 115.5t-24 112t-19.5 97t-25 64.5q12 -24 -3 -51t-52 -27q-64 0 -83 50zM-5 589q-20 -41 3 -73q17 -24 51 -24q37 0 46 27q6 17 -6 21q-1 1 -3 1q-7 0 -10.5 -5.5t-3.5 -10.5v-5 q-19 0 -26.5 15t0.5 30t26 15q33 0 52 -33t26.5 -84.5t22 -116.5t34.5 -126t68.5 -116.5t119.5 -85.5q-94 51 -144 145.5t-50 219.5q0 31 -4 65.5t-15 81.5t-38 77t-66 30q-60 0 -83 -48zM1101.5 23q9.5 -11 41.5 -11q41 0 92 23q-48 20 -90 20q-25 0 -39 -10.5t-4.5 -21.5z M1266 33q24 -12 45 -33q6 22 41 53l-23 17q-51 -31 -63 -37zM1278 106q20 -3 39 -16q21 16 45 43q-20 12 -25 25q-19 -34 -59 -52zM1337 78l23 -17q38 33 76 45q-19 0 -45 11zM1411 492h227l11 12q167 236 311 405.5t274 257.5q-19 2 -100 17q-150 -99 -328 -273.5 t-395 -418.5zM1837 1130q0 -12 14 -12q42 0 115 84q-52 -3 -90.5 -27.5t-38.5 -44.5zM2040 1272q86 0 121 44q18 23 6 33q-4 3 -10 3q-26 0 -52.5 -20t-64.5 -60zM2146 1192l105 -12q106 67 192 67l31 -2q2 21 -16 34t-50 13q-110 0 -262 -100zM2185 1425q2 3 5.5 9t14.5 21 t23.5 26t31 20.5t36.5 9.5q26 0 57 -22.5t57 -22.5q22 0 40 11t25 23l7 11h10q-2 -3 -5 -9t-13 -20.5t-20.5 -25.5t-27.5 -20t-34 -9q-28 0 -63 27t-58 27q-21 0 -39 -14t-26 -28l-8 -14h-13zM2292 1176h20q68 0 109 16.5t51 40.5q-13 2 -29 2q-70 0 -151 -59z" />
<glyph unicode="&#xc4;" horiz-adv-x="1773" d="M-34 531q-16 44 16 84q31 38 88 38q65 0 102 -63q7 24 35 24q11 0 20.5 -6.5t12.5 -15.5q71 181 236 298.5t355 117.5q84 0 146 -23.5t98 -65t53 -92t17 -110.5q0 -129 -45.5 -246.5t-119 -199.5t-168 -130.5t-191.5 -48.5q-90 0 -111 48q-13 30 7 50q9 9 22 9 q16 0 23 -9t7 -20q-3 0 -7.5 -0.5t-11.5 -7.5t-7 -21q0 -19 21.5 -30t56.5 -11q163 0 306.5 131t188.5 332q-45 -119 -137 -204t-170 -85q-25 0 -37 11t-4 24q-16 -2 -47 -2q-123 0 -161 96.5t20 192.5t168 96q65 0 86 -46.5t-8 -93t-87 -46.5q-16 0 -26.5 11.5t-10.5 25.5 q0 13 9.5 25t27.5 12q0 -4 2 -10t11 -15.5t24 -9.5q35 0 49 38q16 41 -12 72q-22 25 -65 25q-103 0 -159 -90t-20.5 -180.5t152.5 -90.5q109 0 203 50.5t151.5 143t57.5 204.5q0 58 -16 106t-50 87.5t-94.5 62t-141.5 22.5q-159 0 -301.5 -83.5t-229.5 -225.5t-87 -303 q0 -208 137 -320q-46 45 -72.5 109t-31.5 134.5t10 147t47 148.5t84 136.5t117 112.5t150.5 76.5t179.5 28.5q3 0 4 -2t0 -4t-4 -2q-233 0 -396 -166q-131 -131 -170 -316q-39 -181 31 -314q76 -148 257 -166q23 -2 48 -2q175 0 349.5 101t373.5 329l57 65h-127q3 1 3 6 t-3 7h138q456 516 719 694q-98 16 -136 16q-81 -92 -127 -92q-22 0 -22 20q0 26 43 53t102 27l45 52q-44 2 -95 20t-100 42t-100 47.5t-111.5 39.5t-117.5 16q-194 0 -306 -127q-86 -97 -88 -222q-2 -119 76 -188q63 -56 162 -56q139 0 222 106q66 85 61 186q-4 96 -73 136 q-34 20 -81 20q-116 0 -173 -90q-42 -67 -28 -136q12 -58 57 -66l13 -1q16 0 25 7.5t10 15.5l2 8q13 0 21 -9t8 -20q0 -12 -8 -21t-21 -9q-81 0 -109 70q-26 66 10 142q40 86 130 111q30 8 63 8q104 0 145 -88q38 -82 2 -186q-39 -110 -137 -162q-63 -33 -139 -33 q-142 0 -208 106q-58 93 -30 217q29 132 138 213q106 79 256 79q71 0 149.5 -25.5t136 -56.5t126 -57t121.5 -27q39 42 69.5 65t59.5 23q25 0 25 -22q-1 -29 -44 -52q-42 -24 -106 -24h-2l-45 -52q76 -4 143 -14q162 109 280 109q38 0 60 -18.5t20 -43.5q86 -17 111 -95 q25 -75 -18 -151q-49 -86 -147 -103q-19 -3 -40 -3q-61 0 -99 30t-38 70q0 12 6 20.5t12.5 9t12.5 -4.5q8 40 37.5 67t76.5 27q15 0 25 -9t10 -22q0 -10 -9 -19t-20 -9q-10 26 -43 26q-30 0 -49.5 -26t-19.5 -64q0 -36 26.5 -61t71.5 -25q105 0 163 82q48 68 33 143 q-16 77 -91 101q-7 2 -15 4q-12 -29 -55 -48.5t-117 -19.5h-37q-56 -44 -126.5 -124t-123.5 -151t-144.5 -197t-143.5 -195q-190 -249 -338 -371q35 -12 80 -12v-4q-52 0 -109 -54q62 -43 121 -43q32 0 73 23t76.5 55.5t66.5 64.5t49 55l18 23h14q-7 -9 -19.5 -25t-49.5 -56 t-71.5 -71t-78.5 -56t-78 -25q-53 0 -129 47q-45 -42 -45 -70h-2q-14 27 -64 50q-66 -27 -108 -27q-39 0 -52 16.5t4 33t50 16.5q49 0 104 -25q35 21 60 41q-30 20 -54 20q-3 0 -3 2t3 2q16 0 48.5 28t31.5 46h2q6 -24 33 -41q77 81 242 315q12 17 18 25h-229l-62 -69 q-202 -232 -379.5 -335.5t-355.5 -103.5q-104 0 -183.5 27t-125.5 72t-77 100t-45.5 115.5t-24 112t-19.5 97t-25 64.5q12 -24 -3 -51t-52 -27q-64 0 -83 50zM-5 589q-20 -41 3 -73q17 -24 51 -24q37 0 46 27q6 17 -6 21q-1 1 -3 1q-7 0 -10.5 -5.5t-3.5 -10.5v-5 q-19 0 -26.5 15t0.5 30t26 15q33 0 52 -33t26.5 -84.5t22 -116.5t34.5 -126t68.5 -116.5t119.5 -85.5q-94 51 -144 145.5t-50 219.5q0 31 -4 65.5t-15 81.5t-38 77t-66 30q-60 0 -83 -48zM1101.5 23q9.5 -11 41.5 -11q41 0 92 23q-48 20 -90 20q-25 0 -39 -10.5t-4.5 -21.5z M1266 33q24 -12 45 -33q6 22 41 53l-23 17q-51 -31 -63 -37zM1278 106q20 -3 39 -16q21 16 45 43q-20 12 -25 25q-19 -34 -59 -52zM1337 78l23 -17q38 33 76 45q-19 0 -45 11zM1411 492h227l11 12q167 236 311 405.5t274 257.5q-19 2 -100 17q-150 -99 -328 -273.5 t-395 -418.5zM1837 1130q0 -12 14 -12q42 0 115 84q-52 -3 -90.5 -27.5t-38.5 -44.5zM2040 1272q86 0 121 44q18 23 6 33q-4 3 -10 3q-26 0 -52.5 -20t-64.5 -60zM2146 1192l105 -12q106 67 192 67l31 -2q2 21 -16 34t-50 13q-110 0 -262 -100zM2247 1468q12 39 38 50l11 2 q12 0 20 -7t8 -16q0 -16 -28 -38.5t-43 -22.5q-16 0 -6 32zM2292 1176h20q68 0 109 16.5t51 40.5q-13 2 -29 2q-70 0 -151 -59zM2407 1468q12 39 38 50l11 2q12 0 20 -7t8 -16q0 -16 -28 -38.5t-43 -22.5q-16 0 -6 32z" />
<glyph unicode="&#xc5;" horiz-adv-x="1773" d="M-34 531q-16 44 16 84q31 38 88 38q65 0 102 -63q7 24 35 24q11 0 20.5 -6.5t12.5 -15.5q71 181 236 298.5t355 117.5q84 0 146 -23.5t98 -65t53 -92t17 -110.5q0 -129 -45.5 -246.5t-119 -199.5t-168 -130.5t-191.5 -48.5q-90 0 -111 48q-13 30 7 50q9 9 22 9 q16 0 23 -9t7 -20q-3 0 -7.5 -0.5t-11.5 -7.5t-7 -21q0 -19 21.5 -30t56.5 -11q163 0 306.5 131t188.5 332q-45 -119 -137 -204t-170 -85q-25 0 -37 11t-4 24q-16 -2 -47 -2q-123 0 -161 96.5t20 192.5t168 96q65 0 86 -46.5t-8 -93t-87 -46.5q-16 0 -26.5 11.5t-10.5 25.5 q0 13 9.5 25t27.5 12q0 -4 2 -10t11 -15.5t24 -9.5q35 0 49 38q16 41 -12 72q-22 25 -65 25q-103 0 -159 -90t-20.5 -180.5t152.5 -90.5q109 0 203 50.5t151.5 143t57.5 204.5q0 58 -16 106t-50 87.5t-94.5 62t-141.5 22.5q-159 0 -301.5 -83.5t-229.5 -225.5t-87 -303 q0 -208 137 -320q-46 45 -72.5 109t-31.5 134.5t10 147t47 148.5t84 136.5t117 112.5t150.5 76.5t179.5 28.5q3 0 4 -2t0 -4t-4 -2q-233 0 -396 -166q-131 -131 -170 -316q-39 -181 31 -314q76 -148 257 -166q23 -2 48 -2q175 0 349.5 101t373.5 329l57 65h-127q3 1 3 6 t-3 7h138q456 516 719 694q-98 16 -136 16q-81 -92 -127 -92q-22 0 -22 20q0 26 43 53t102 27l45 52q-44 2 -95 20t-100 42t-100 47.5t-111.5 39.5t-117.5 16q-194 0 -306 -127q-86 -97 -88 -222q-2 -119 76 -188q63 -56 162 -56q139 0 222 106q66 85 61 186q-4 96 -73 136 q-34 20 -81 20q-116 0 -173 -90q-42 -67 -28 -136q12 -58 57 -66l13 -1q16 0 25 7.5t10 15.5l2 8q13 0 21 -9t8 -20q0 -12 -8 -21t-21 -9q-81 0 -109 70q-26 66 10 142q40 86 130 111q30 8 63 8q104 0 145 -88q38 -82 2 -186q-39 -110 -137 -162q-63 -33 -139 -33 q-142 0 -208 106q-58 93 -30 217q29 132 138 213q106 79 256 79q71 0 149.5 -25.5t136 -56.5t126 -57t121.5 -27q39 42 69.5 65t59.5 23q25 0 25 -22q-1 -29 -44 -52q-42 -24 -106 -24h-2l-45 -52q76 -4 143 -14q162 109 280 109q38 0 60 -18.5t20 -43.5q86 -17 111 -95 q25 -75 -18 -151q-49 -86 -147 -103q-19 -3 -40 -3q-61 0 -99 30t-38 70q0 12 6 20.5t12.5 9t12.5 -4.5q8 40 37.5 67t76.5 27q15 0 25 -9t10 -22q0 -10 -9 -19t-20 -9q-10 26 -43 26q-30 0 -49.5 -26t-19.5 -64q0 -36 26.5 -61t71.5 -25q105 0 163 82q48 68 33 143 q-16 77 -91 101q-7 2 -15 4q-12 -29 -55 -48.5t-117 -19.5h-37q-56 -44 -126.5 -124t-123.5 -151t-144.5 -197t-143.5 -195q-190 -249 -338 -371q35 -12 80 -12v-4q-52 0 -109 -54q62 -43 121 -43q32 0 73 23t76.5 55.5t66.5 64.5t49 55l18 23h14q-7 -9 -19.5 -25t-49.5 -56 t-71.5 -71t-78.5 -56t-78 -25q-53 0 -129 47q-45 -42 -45 -70h-2q-14 27 -64 50q-66 -27 -108 -27q-39 0 -52 16.5t4 33t50 16.5q49 0 104 -25q35 21 60 41q-30 20 -54 20q-3 0 -3 2t3 2q16 0 48.5 28t31.5 46h2q6 -24 33 -41q77 81 242 315q12 17 18 25h-229l-62 -69 q-202 -232 -379.5 -335.5t-355.5 -103.5q-104 0 -183.5 27t-125.5 72t-77 100t-45.5 115.5t-24 112t-19.5 97t-25 64.5q12 -24 -3 -51t-52 -27q-64 0 -83 50zM-5 589q-20 -41 3 -73q17 -24 51 -24q37 0 46 27q6 17 -6 21q-1 1 -3 1q-7 0 -10.5 -5.5t-3.5 -10.5v-5 q-19 0 -26.5 15t0.5 30t26 15q33 0 52 -33t26.5 -84.5t22 -116.5t34.5 -126t68.5 -116.5t119.5 -85.5q-94 51 -144 145.5t-50 219.5q0 31 -4 65.5t-15 81.5t-38 77t-66 30q-60 0 -83 -48zM1101.5 23q9.5 -11 41.5 -11q41 0 92 23q-48 20 -90 20q-25 0 -39 -10.5t-4.5 -21.5z M1266 33q24 -12 45 -33q6 22 41 53l-23 17q-51 -31 -63 -37zM1278 106q20 -3 39 -16q21 16 45 43q-20 12 -25 25q-19 -34 -59 -52zM1337 78l23 -17q38 33 76 45q-19 0 -45 11zM1411 492h227l11 12q167 236 311 405.5t274 257.5q-19 2 -100 17q-150 -99 -328 -273.5 t-395 -418.5zM1837 1130q0 -12 14 -12q42 0 115 84q-52 -3 -90.5 -27.5t-38.5 -44.5zM2040 1272q86 0 121 44q18 23 6 33q-4 3 -10 3q-26 0 -52.5 -20t-64.5 -60zM2146 1192l105 -12q106 67 192 67l31 -2q2 21 -16 34t-50 13q-110 0 -262 -100zM2245 1470q0 29 20 49.5 t49 20.5q31 0 51.5 -20.5t20.5 -49.5t-20.5 -49t-51.5 -20q-29 0 -49 20t-20 49zM2269 1470q0 -19 13 -32t32 -13t32 13t13 32t-13 32.5t-32 13.5t-32 -13.5t-13 -32.5zM2292 1176h20q68 0 109 16.5t51 40.5q-13 2 -29 2q-70 0 -151 -59z" />
<glyph unicode="&#xc6;" horiz-adv-x="2289" d="M0 258q0 80 36.5 160.5t100 145.5t159 106t202.5 41q171 0 247 -112q64 -94 35 -220q-30 -129 -140 -211t-265 -82q-86 0 -137 39t-70 104q-1 4 1 6t5 1.5t4 -3.5q16 -60 63.5 -95.5t125.5 -35.5q162 0 273 119q90 96 103 220q14 126 -65 197q-65 60 -180 60 q-105 0 -198 -40t-155 -103.5t-97.5 -141.5t-35.5 -155q0 -141 94.5 -230t262.5 -89q145 0 291.5 68.5t306.5 195.5q-61 90 -78.5 201.5t7 206.5t99.5 160t187 65q93 0 158.5 -54t93.5 -149q15 15 47 45q57 55 87.5 84t90.5 83.5t99 86t99.5 78.5t107 74.5t107 60.5 t113 50.5t112 29.5t116.5 12q122 0 166 -84q38 -74 -1 -165q-41 -95 -140 -141q-65 -30 -142 -30q-92 0 -123 69q-27 62 11 133q43 81 139 104q30 7 63 7q9 0 9 -6t-9 -6q-117 0 -177 -80q-47 -62 -31 -127q14 -62 77 -76q15 -4 33 -4q119 0 205 93q71 76 75 162 q4 89 -70 123q-35 16 -85 16q-79 0 -154 -29.5t-131 -76.5t-99 -106t-62.5 -117.5t-15 -112.5t35.5 -89h38q125 0 151 -33q13 -17 -13 -27q-13 -5 -31 -5q-111 0 -174 47q-130 -19 -244.5 -101.5t-179 -193t-64.5 -213.5q0 -112 59 -182t189 -70q97 0 192 46t161.5 114.5 t107.5 147.5t41 145q0 68 -42 106.5t-105 38.5q-81 0 -153.5 -39.5t-118.5 -98t-72.5 -121.5t-26.5 -114q0 -50 27 -76t73 -26q6 0 7 -4q-2 -5 -17 -6q-55 0 -90 41t-35 108q0 78 51 161t140 140.5t186 57.5q82 0 135 -44t53 -124q0 -69 -41 -150.5t-108.5 -152 t-167.5 -117.5t-205 -47q-201 0 -278 133q-50 -21 -103 -21q-226 0 -354 176q-337 -264 -606 -264q-176 0 -272.5 92t-96.5 240zM905 524q-9 -78 10.5 -160.5t63.5 -150.5q36 29 76.5 63.5t71 62t77.5 72.5t70 67t77.5 75t71.5 70q-26 92 -89 141t-154 49q-81 0 -142.5 -40 t-92.5 -105.5t-40 -143.5zM987 201q119 -174 342 -174q38 0 94 18q-30 65 -30 143q0 45 24.5 138.5t24.5 167.5q0 60 -12 110q-99 -95 -152.5 -146t-137.5 -126.5t-153 -130.5zM1440 367q66 123 201 213.5t303 109.5q-53 50 -55 128.5t46 162t133 145.5 q-142 -76 -286.5 -198.5t-341.5 -313.5q14 -65 14 -120q0 -59 -14 -127zM1999 682q51 -41 133 -41q31 0 31 12q0 19 -72 26l-66 3h-26z" />
<glyph unicode="&#xc7;" horiz-adv-x="690" d="M0 162q0 91 47.5 208t127 235t188 232.5t224 202t242 141.5t236.5 54q157 0 220 -102q51 -85 16 -194q-36 -110 -138 -173q-84 -51 -190 -51q-141 0 -184.5 93.5t24 187.5t195.5 94q7 0 6 -7q-1 -6 -8 -6q-114 0 -178 -83q-53 -68 -39 -144q14 -79 94 -107q34 -12 78 -12 q136 0 233 103q80 85 88 189q9 109 -71 163q-56 37 -146 37q-105 0 -223.5 -58.5t-225 -153.5t-205.5 -216.5t-170 -245.5t-114 -243.5t-43 -207.5q0 -139 156 -139q115 0 233.5 73t216.5 201h15q-101 -133 -224 -211.5t-250 -78.5q-33 0 -75 10q-61 -76 -66 -82 q33 14 64 14q54 0 62 -37.5t-34 -72.5q-46 -39 -121 -39q-54 0 -60 32q-5 21 12 30q5 3 10 3q8 0 8 -6q-1 -3 -2 -4q-13 0 -16 -15q-3 -20 25 -26q8 -2 19 -2q70 0 105 50q26 36 9 61q-9 14 -32 14q-16 0 -30 -3.5t-23 -7.5t-12 -5q-15 0 12 35t57 65q-143 47 -143 205z" />
<glyph unicode="&#xc8;" horiz-adv-x="968" d="M0 219q0 96 44.5 190.5t123.5 170.5t199 123t258 47h30q-14 35 -14 63q-70 -4 -104 -4q-287 0 -429 155q-106 116 -98 277q7 149 108 260q117 129 301 135h15q123 0 198 -61.5t84 -149.5t-17.5 -176t-105.5 -149.5t-181 -61.5q-133 0 -200 64t-67 155q0 102 74.5 183.5 t190.5 81.5q19 0 27 -15t0 -30t-27 -15q0 2 -1 4t-4.5 8.5t-9.5 11.5t-18.5 9t-28.5 4q-68 0 -131 -76t-63 -166q0 -118 110 -176q-71 54 -71 127q0 40 19 48q9 3 15 -5q13 70 63.5 118t127.5 48q47 0 71.5 -25.5t24.5 -62.5q0 -38 -27 -67t-75 -29q-23 0 -32.5 18.5t0 37 t32.5 18.5q0 -5 0.5 -11.5t10.5 -18t28 -11.5q27 0 39 19t12 44q0 32 -21 54t-63 22q-81 0 -129 -55.5t-51 -126.5v-9q0 -70 45 -116.5t129 -46.5q97 0 172.5 59t101.5 143.5t18 168.5t-80 143t-190 59q-184 0 -303 -126q-101 -106 -110 -252q-10 -157 92 -271 q141 -153 424 -154q98 0 104 6q3 88 75 181t184.5 154t223.5 61q43 0 66.5 -19.5t23.5 -52.5q0 -29 -21.5 -66.5t-65.5 -78t-104 -77t-145 -66.5t-180 -44q-4 -50 4 -74q119 -12 143 -55q13 -23 -9 -33q-8 -4 -17 -4q-48 0 -90.5 22.5t-66.5 61.5h-37q-108 0 -209.5 -48 t-174 -123.5t-116 -172t-43.5 -190.5q0 -87 38 -155.5t111 -102.5v26q0 76 14.5 154t47.5 155.5t81 137t121.5 96.5t161.5 37q137 0 181 -104q40 -95 -14 -226q-56 -138 -181 -226q-127 -89 -281 -89q-25 0 -71 4q30 -98 101 -157.5t181 -59.5q116 0 186 54.5t70 111.5 q0 19 -8 31t-16 14l-8 2q0 12 8 21.5t22 9.5q33 0 35 -40q3 -55 -49 -115q-92 -96 -240 -99q-161 0 -243 116q-8 -18 -33 -10q-42 15 -58 94q-4 18 -6 39q-113 31 -173 112.5t-60 184.5zM274 60.5q-4 -70.5 13 -134.5q46 -8 75 -8q193 0 334 136q107 103 137 234 q29 125 -33 196q-49 55 -143 55q-70 0 -131.5 -27.5t-105 -74t-78 -108t-49.5 -130t-19 -139zM700 834q217 34 356.5 136t139.5 183q0 57 -72 57q-89 0 -183 -60.5t-158.5 -147t-82.5 -168.5zM707 733q29 -67 112 -67q20 0 19 13q-1 21 -55 39q-33 10 -76 15zM1006 1501 q0 10 6 17.5t12 7.5q15 0 30.5 -23t27 -51t29.5 -51t36 -23q-2 -8 -8 -8q-26 0 -79.5 50t-53.5 81z" />
<glyph unicode="&#xc9;" horiz-adv-x="968" d="M0 219q0 96 44.5 190.5t123.5 170.5t199 123t258 47h30q-14 35 -14 63q-70 -4 -104 -4q-287 0 -429 155q-106 116 -98 277q7 149 108 260q117 129 301 135h15q123 0 198 -61.5t84 -149.5t-17.5 -176t-105.5 -149.5t-181 -61.5q-133 0 -200 64t-67 155q0 102 74.5 183.5 t190.5 81.5q19 0 27 -15t0 -30t-27 -15q0 2 -1 4t-4.5 8.5t-9.5 11.5t-18.5 9t-28.5 4q-68 0 -131 -76t-63 -166q0 -118 110 -176q-71 54 -71 127q0 40 19 48q9 3 15 -5q13 70 63.5 118t127.5 48q47 0 71.5 -25.5t24.5 -62.5q0 -38 -27 -67t-75 -29q-23 0 -32.5 18.5t0 37 t32.5 18.5q0 -5 0.5 -11.5t10.5 -18t28 -11.5q27 0 39 19t12 44q0 32 -21 54t-63 22q-81 0 -129 -55.5t-51 -126.5v-9q0 -70 45 -116.5t129 -46.5q97 0 172.5 59t101.5 143.5t18 168.5t-80 143t-190 59q-184 0 -303 -126q-101 -106 -110 -252q-10 -157 92 -271 q141 -153 424 -154q98 0 104 6q3 88 75 181t184.5 154t223.5 61q43 0 66.5 -19.5t23.5 -52.5q0 -29 -21.5 -66.5t-65.5 -78t-104 -77t-145 -66.5t-180 -44q-4 -50 4 -74q119 -12 143 -55q13 -23 -9 -33q-8 -4 -17 -4q-48 0 -90.5 22.5t-66.5 61.5h-37q-108 0 -209.5 -48 t-174 -123.5t-116 -172t-43.5 -190.5q0 -87 38 -155.5t111 -102.5v26q0 76 14.5 154t47.5 155.5t81 137t121.5 96.5t161.5 37q137 0 181 -104q40 -95 -14 -226q-56 -138 -181 -226q-127 -89 -281 -89q-25 0 -71 4q30 -98 101 -157.5t181 -59.5q116 0 186 54.5t70 111.5 q0 19 -8 31t-16 14l-8 2q0 12 8 21.5t22 9.5q33 0 35 -40q3 -55 -49 -115q-92 -96 -240 -99q-161 0 -243 116q-8 -18 -33 -10q-42 15 -58 94q-4 18 -6 39q-113 31 -173 112.5t-60 184.5zM274 60.5q-4 -70.5 13 -134.5q46 -8 75 -8q193 0 334 136q107 103 137 234 q29 125 -33 196q-49 55 -143 55q-70 0 -131.5 -27.5t-105 -74t-78 -108t-49.5 -130t-19 -139zM700 834q217 34 356.5 136t139.5 183q0 57 -72 57q-89 0 -183 -60.5t-158.5 -147t-82.5 -168.5zM707 733q29 -67 112 -67q20 0 19 13q-1 21 -55 39q-33 10 -76 15zM1106 1376v2 q34 0 69.5 33t64 65.5t44.5 32.5q21 0 21 -20q0 -32 -71.5 -76.5t-119.5 -44.5q-4 0 -6 2.5t-2 5.5z" />
<glyph unicode="&#xca;" horiz-adv-x="968" d="M0 219q0 96 44.5 190.5t123.5 170.5t199 123t258 47h30q-14 35 -14 63q-70 -4 -104 -4q-287 0 -429 155q-106 116 -98 277q7 149 108 260q117 129 301 135h15q123 0 198 -61.5t84 -149.5t-17.5 -176t-105.5 -149.5t-181 -61.5q-133 0 -200 64t-67 155q0 102 74.5 183.5 t190.5 81.5q19 0 27 -15t0 -30t-27 -15q0 2 -1 4t-4.5 8.5t-9.5 11.5t-18.5 9t-28.5 4q-68 0 -131 -76t-63 -166q0 -118 110 -176q-71 54 -71 127q0 40 19 48q9 3 15 -5q13 70 63.5 118t127.5 48q47 0 71.5 -25.5t24.5 -62.5q0 -38 -27 -67t-75 -29q-23 0 -32.5 18.5t0 37 t32.5 18.5q0 -5 0.5 -11.5t10.5 -18t28 -11.5q27 0 39 19t12 44q0 32 -21 54t-63 22q-81 0 -129 -55.5t-51 -126.5v-9q0 -70 45 -116.5t129 -46.5q97 0 172.5 59t101.5 143.5t18 168.5t-80 143t-190 59q-184 0 -303 -126q-101 -106 -110 -252q-10 -157 92 -271 q141 -153 424 -154q98 0 104 6q3 88 75 181t184.5 154t223.5 61q43 0 66.5 -19.5t23.5 -52.5q0 -29 -21.5 -66.5t-65.5 -78t-104 -77t-145 -66.5t-180 -44q-4 -50 4 -74q119 -12 143 -55q13 -23 -9 -33q-8 -4 -17 -4q-48 0 -90.5 22.5t-66.5 61.5h-37q-108 0 -209.5 -48 t-174 -123.5t-116 -172t-43.5 -190.5q0 -87 38 -155.5t111 -102.5v26q0 76 14.5 154t47.5 155.5t81 137t121.5 96.5t161.5 37q137 0 181 -104q40 -95 -14 -226q-56 -138 -181 -226q-127 -89 -281 -89q-25 0 -71 4q30 -98 101 -157.5t181 -59.5q116 0 186 54.5t70 111.5 q0 19 -8 31t-16 14l-8 2q0 12 8 21.5t22 9.5q33 0 35 -40q3 -55 -49 -115q-92 -96 -240 -99q-161 0 -243 116q-8 -18 -33 -10q-42 15 -58 94q-4 18 -6 39q-113 31 -173 112.5t-60 184.5zM274 60.5q-4 -70.5 13 -134.5q46 -8 75 -8q193 0 334 136q107 103 137 234 q29 125 -33 196q-49 55 -143 55q-70 0 -131.5 -27.5t-105 -74t-78 -108t-49.5 -130t-19 -139zM700 834q217 34 356.5 136t139.5 183q0 57 -72 57q-89 0 -183 -60.5t-158.5 -147t-82.5 -168.5zM707 733q29 -67 112 -67q20 0 19 13q-1 21 -55 39q-33 10 -76 15zM1022 1341 q133 95 188 134q4 3 12 3t9 -3l55 -134h-10l-72 86l-172 -86h-10z" />
<glyph unicode="&#xcb;" horiz-adv-x="968" d="M0 219q0 96 44.5 190.5t123.5 170.5t199 123t258 47h30q-14 35 -14 63q-70 -4 -104 -4q-287 0 -429 155q-106 116 -98 277q7 149 108 260q117 129 301 135h15q123 0 198 -61.5t84 -149.5t-17.5 -176t-105.5 -149.5t-181 -61.5q-133 0 -200 64t-67 155q0 102 74.5 183.5 t190.5 81.5q19 0 27 -15t0 -30t-27 -15q0 2 -1 4t-4.5 8.5t-9.5 11.5t-18.5 9t-28.5 4q-68 0 -131 -76t-63 -166q0 -118 110 -176q-71 54 -71 127q0 40 19 48q9 3 15 -5q13 70 63.5 118t127.5 48q47 0 71.5 -25.5t24.5 -62.5q0 -38 -27 -67t-75 -29q-23 0 -32.5 18.5t0 37 t32.5 18.5q0 -5 0.5 -11.5t10.5 -18t28 -11.5q27 0 39 19t12 44q0 32 -21 54t-63 22q-81 0 -129 -55.5t-51 -126.5v-9q0 -70 45 -116.5t129 -46.5q97 0 172.5 59t101.5 143.5t18 168.5t-80 143t-190 59q-184 0 -303 -126q-101 -106 -110 -252q-10 -157 92 -271 q141 -153 424 -154q98 0 104 6q3 88 75 181t184.5 154t223.5 61q43 0 66.5 -19.5t23.5 -52.5q0 -29 -21.5 -66.5t-65.5 -78t-104 -77t-145 -66.5t-180 -44q-4 -50 4 -74q119 -12 143 -55q13 -23 -9 -33q-8 -4 -17 -4q-48 0 -90.5 22.5t-66.5 61.5h-37q-108 0 -209.5 -48 t-174 -123.5t-116 -172t-43.5 -190.5q0 -87 38 -155.5t111 -102.5v26q0 76 14.5 154t47.5 155.5t81 137t121.5 96.5t161.5 37q137 0 181 -104q40 -95 -14 -226q-56 -138 -181 -226q-127 -89 -281 -89q-25 0 -71 4q30 -98 101 -157.5t181 -59.5q116 0 186 54.5t70 111.5 q0 19 -8 31t-16 14l-8 2q0 12 8 21.5t22 9.5q33 0 35 -40q3 -55 -49 -115q-92 -96 -240 -99q-161 0 -243 116q-8 -18 -33 -10q-42 15 -58 94q-4 18 -6 39q-113 31 -173 112.5t-60 184.5zM274 60.5q-4 -70.5 13 -134.5q46 -8 75 -8q193 0 334 136q107 103 137 234 q29 125 -33 196q-49 55 -143 55q-70 0 -131.5 -27.5t-105 -74t-78 -108t-49.5 -130t-19 -139zM700 834q217 34 356.5 136t139.5 183q0 57 -72 57q-89 0 -183 -60.5t-158.5 -147t-82.5 -168.5zM707 733q29 -67 112 -67q20 0 19 13q-1 21 -55 39q-33 10 -76 15zM1110 1392 q12 39 38 50l11 2q12 0 20.5 -7t8.5 -16q0 -16 -28.5 -38.5t-43.5 -22.5q-16 0 -6 32zM1270 1392q12 39 38 50l11 2q12 0 20.5 -7t8.5 -16q0 -16 -28.5 -38.5t-43.5 -22.5q-16 0 -6 32z" />
<glyph unicode="&#xcc;" horiz-adv-x="1265" d="M0 334q0 76 23.5 153.5t70 148.5t110.5 126t151.5 88t185.5 33q154 0 232.5 -78.5t78.5 -196.5q0 -151 -62 -278.5t-164.5 -200t-217.5 -72.5q-90 0 -111 48q-13 30 7 50q9 9 22 9q16 0 23 -9t7 -20q-3 0 -7.5 -0.5t-11.5 -7.5t-7 -21q0 -19 21 -29.5t57 -10.5 q138 0 253 105t158 271q-47 -117 -142.5 -193.5t-189.5 -76.5q-49 0 -61 24q-6 13 6 21q-57 8 -93.5 39t-48.5 72.5t-5 87.5t31 84.5t65.5 64t91.5 25.5q46 0 70 -23t24 -55q0 -34 -23 -61t-59 -27q-24 0 -33 18.5t1 37t32 18.5q0 -3 1 -7.5t9 -12t21 -7.5q17 0 28 12.5 t11 28.5q0 29 -20 47.5t-62 18.5q-41 0 -77 -19.5t-57.5 -50.5t-34.5 -68.5t-7.5 -74.5t22.5 -68t56.5 -50.5t93.5 -19.5q81 0 152 33.5t118 88t74 122.5t27 137q0 113 -75 187.5t-224 74.5q-120 0 -222 -48.5t-167.5 -126.5t-102.5 -172.5t-37 -188.5q0 -116 55 -206.5 t164 -131.5q-89 46 -136.5 137t-47.5 199q0 89 33.5 177t94.5 161t157 118.5t209 45.5q5 0 5 -4.5t-5 -4.5q-89 0 -168 -29t-136 -78.5t-99 -113t-62.5 -133.5t-20.5 -139q0 -72 22.5 -137t66 -116t112 -81t154.5 -31q96 0 187 33t161.5 82.5t146 131t129.5 153.5t123 176 q-95 12 -153 75t-66 152q-8 -4 -15.5 -1.5t-13.5 16.5t-6 34q0 47 20 99.5t66.5 107t112.5 97.5t168 70.5t223 27.5l78 4q60 78 102 78q11 0 18 -6t7 -15q0 -24 -32 -42.5t-91 -27.5l-23 -30q37 6 78 6q9 0 32.5 -1t39.5 -1q96 49 196 49q38 0 46 -21t-31 -35 q-33 -12 -86 -12q-29 0 -115 4q-45 -26 -89.5 -67t-79 -82t-78 -106.5t-71 -110.5t-75.5 -126t-74 -124q62 6 114 26.5t85 48t56 60t32.5 61t9.5 52.5q0 27 -10 41t-20 14h-11q0 12 9.5 21.5t21.5 9.5q32 0 35 -48q5 -68 -47 -146q-83 -122 -241 -149q-20 -3 -42 -5 q-44 -71 -82 -127.5t-89 -119.5t-100.5 -110.5t-112.5 -92t-129 -73.5t-146.5 -46t-167.5 -17q-103 0 -183 30.5t-128.5 84t-73.5 120.5t-25 144zM948 801q0 -98 58 -167t159 -79q19 29 69 104.5t73 109t67.5 96.5t74.5 98t71 80t80.5 76t80.5 55q-18 2 -51 2q-50 0 -88 -9 q-24 -33 -37.5 -50t-33.5 -33.5t-35 -16.5q-12 0 -19.5 7.5t-7.5 19.5q0 24 35.5 49t93.5 37l23 32q-23 -4 -68 -4q-243 0 -394 -115.5t-151 -291.5zM1421 1094q0 -15 15 -15q18 0 38.5 21t51.5 63q-49 -12 -77 -31t-28 -38zM1585 1227q48 7 74.5 22t26.5 33q0 10 -13 10 q-37 0 -88 -65zM1667 1501q0 10 6.5 17.5t12.5 7.5q15 0 30.5 -23t27 -51t29 -51t35.5 -23q-2 -8 -8 -8q-26 0 -79.5 50t-53.5 81zM1735 1184q74 -4 92 -4q89 0 101 24q7 12 -14 17q-7 2 -16 2q-87 0 -163 -39z" />
<glyph unicode="&#xcd;" horiz-adv-x="1265" d="M0 334q0 76 23.5 153.5t70 148.5t110.5 126t151.5 88t185.5 33q154 0 232.5 -78.5t78.5 -196.5q0 -151 -62 -278.5t-164.5 -200t-217.5 -72.5q-90 0 -111 48q-13 30 7 50q9 9 22 9q16 0 23 -9t7 -20q-3 0 -7.5 -0.5t-11.5 -7.5t-7 -21q0 -19 21 -29.5t57 -10.5 q138 0 253 105t158 271q-47 -117 -142.5 -193.5t-189.5 -76.5q-49 0 -61 24q-6 13 6 21q-57 8 -93.5 39t-48.5 72.5t-5 87.5t31 84.5t65.5 64t91.5 25.5q46 0 70 -23t24 -55q0 -34 -23 -61t-59 -27q-24 0 -33 18.5t1 37t32 18.5q0 -3 1 -7.5t9 -12t21 -7.5q17 0 28 12.5 t11 28.5q0 29 -20 47.5t-62 18.5q-41 0 -77 -19.5t-57.5 -50.5t-34.5 -68.5t-7.5 -74.5t22.5 -68t56.5 -50.5t93.5 -19.5q81 0 152 33.5t118 88t74 122.5t27 137q0 113 -75 187.5t-224 74.5q-120 0 -222 -48.5t-167.5 -126.5t-102.5 -172.5t-37 -188.5q0 -116 55 -206.5 t164 -131.5q-89 46 -136.5 137t-47.5 199q0 89 33.5 177t94.5 161t157 118.5t209 45.5q5 0 5 -4.5t-5 -4.5q-89 0 -168 -29t-136 -78.5t-99 -113t-62.5 -133.5t-20.5 -139q0 -72 22.5 -137t66 -116t112 -81t154.5 -31q96 0 187 33t161.5 82.5t146 131t129.5 153.5t123 176 q-95 12 -153 75t-66 152q-8 -4 -15.5 -1.5t-13.5 16.5t-6 34q0 47 20 99.5t66.5 107t112.5 97.5t168 70.5t223 27.5l78 4q60 78 102 78q11 0 18 -6t7 -15q0 -24 -32 -42.5t-91 -27.5l-23 -30q37 6 78 6q9 0 32.5 -1t39.5 -1q96 49 196 49q38 0 46 -21t-31 -35 q-33 -12 -86 -12q-29 0 -115 4q-45 -26 -89.5 -67t-79 -82t-78 -106.5t-71 -110.5t-75.5 -126t-74 -124q62 6 114 26.5t85 48t56 60t32.5 61t9.5 52.5q0 27 -10 41t-20 14h-11q0 12 9.5 21.5t21.5 9.5q32 0 35 -48q5 -68 -47 -146q-83 -122 -241 -149q-20 -3 -42 -5 q-44 -71 -82 -127.5t-89 -119.5t-100.5 -110.5t-112.5 -92t-129 -73.5t-146.5 -46t-167.5 -17q-103 0 -183 30.5t-128.5 84t-73.5 120.5t-25 144zM948 801q0 -98 58 -167t159 -79q19 29 69 104.5t73 109t67.5 96.5t74.5 98t71 80t80.5 76t80.5 55q-18 2 -51 2q-50 0 -88 -9 q-24 -33 -37.5 -50t-33.5 -33.5t-35 -16.5q-12 0 -19.5 7.5t-7.5 19.5q0 24 35.5 49t93.5 37l23 32q-23 -4 -68 -4q-243 0 -394 -115.5t-151 -291.5zM1421 1094q0 -15 15 -15q18 0 38.5 21t51.5 63q-49 -12 -77 -31t-28 -38zM1585 1227q48 7 74.5 22t26.5 33q0 10 -13 10 q-37 0 -88 -65zM1735 1184q74 -4 92 -4q89 0 101 24q7 12 -14 17q-7 2 -16 2q-87 0 -163 -39zM1812 1376v2q26 0 55 20.5t48.5 45t41 45t34.5 20.5q20 0 20 -20q0 -32 -71 -76.5t-119 -44.5q-4 0 -6 2.5t-3 5.5z" />
<glyph unicode="&#xce;" horiz-adv-x="1265" d="M0 334q0 76 23.5 153.5t70 148.5t110.5 126t151.5 88t185.5 33q154 0 232.5 -78.5t78.5 -196.5q0 -151 -62 -278.5t-164.5 -200t-217.5 -72.5q-90 0 -111 48q-13 30 7 50q9 9 22 9q16 0 23 -9t7 -20q-3 0 -7.5 -0.5t-11.5 -7.5t-7 -21q0 -19 21 -29.5t57 -10.5 q138 0 253 105t158 271q-47 -117 -142.5 -193.5t-189.5 -76.5q-49 0 -61 24q-6 13 6 21q-57 8 -93.5 39t-48.5 72.5t-5 87.5t31 84.5t65.5 64t91.5 25.5q46 0 70 -23t24 -55q0 -34 -23 -61t-59 -27q-24 0 -33 18.5t1 37t32 18.5q0 -3 1 -7.5t9 -12t21 -7.5q17 0 28 12.5 t11 28.5q0 29 -20 47.5t-62 18.5q-41 0 -77 -19.5t-57.5 -50.5t-34.5 -68.5t-7.5 -74.5t22.5 -68t56.5 -50.5t93.5 -19.5q81 0 152 33.5t118 88t74 122.5t27 137q0 113 -75 187.5t-224 74.5q-120 0 -222 -48.5t-167.5 -126.5t-102.5 -172.5t-37 -188.5q0 -116 55 -206.5 t164 -131.5q-89 46 -136.5 137t-47.5 199q0 89 33.5 177t94.5 161t157 118.5t209 45.5q5 0 5 -4.5t-5 -4.5q-89 0 -168 -29t-136 -78.5t-99 -113t-62.5 -133.5t-20.5 -139q0 -72 22.5 -137t66 -116t112 -81t154.5 -31q96 0 187 33t161.5 82.5t146 131t129.5 153.5t123 176 q-95 12 -153 75t-66 152q-8 -4 -15.5 -1.5t-13.5 16.5t-6 34q0 47 20 99.5t66.5 107t112.5 97.5t168 70.5t223 27.5l78 4q60 78 102 78q11 0 18 -6t7 -15q0 -24 -32 -42.5t-91 -27.5l-23 -30q37 6 78 6q9 0 32.5 -1t39.5 -1q96 49 196 49q38 0 46 -21t-31 -35 q-33 -12 -86 -12q-29 0 -115 4q-45 -26 -89.5 -67t-79 -82t-78 -106.5t-71 -110.5t-75.5 -126t-74 -124q62 6 114 26.5t85 48t56 60t32.5 61t9.5 52.5q0 27 -10 41t-20 14h-11q0 12 9.5 21.5t21.5 9.5q32 0 35 -48q5 -68 -47 -146q-83 -122 -241 -149q-20 -3 -42 -5 q-44 -71 -82 -127.5t-89 -119.5t-100.5 -110.5t-112.5 -92t-129 -73.5t-146.5 -46t-167.5 -17q-103 0 -183 30.5t-128.5 84t-73.5 120.5t-25 144zM948 801q0 -98 58 -167t159 -79q19 29 69 104.5t73 109t67.5 96.5t74.5 98t71 80t80.5 76t80.5 55q-18 2 -51 2q-50 0 -88 -9 q-24 -33 -37.5 -50t-33.5 -33.5t-35 -16.5q-12 0 -19.5 7.5t-7.5 19.5q0 24 35.5 49t93.5 37l23 32q-23 -4 -68 -4q-243 0 -394 -115.5t-151 -291.5zM1421 1094q0 -15 15 -15q18 0 38.5 21t51.5 63q-49 -12 -77 -31t-28 -38zM1585 1227q48 7 74.5 22t26.5 33q0 10 -13 10 q-37 0 -88 -65zM1640 1350q134 94 189 133q5 3 12 3t8 -3l56 -133h-11l-71 86l-172 -86h-11zM1735 1184q74 -4 92 -4q89 0 101 24q7 12 -14 17q-7 2 -16 2q-87 0 -163 -39z" />
<glyph unicode="&#xcf;" horiz-adv-x="1265" d="M0 334q0 76 23.5 153.5t70 148.5t110.5 126t151.5 88t185.5 33q154 0 232.5 -78.5t78.5 -196.5q0 -151 -62 -278.5t-164.5 -200t-217.5 -72.5q-90 0 -111 48q-13 30 7 50q9 9 22 9q16 0 23 -9t7 -20q-3 0 -7.5 -0.5t-11.5 -7.5t-7 -21q0 -19 21 -29.5t57 -10.5 q138 0 253 105t158 271q-47 -117 -142.5 -193.5t-189.5 -76.5q-49 0 -61 24q-6 13 6 21q-57 8 -93.5 39t-48.5 72.5t-5 87.5t31 84.5t65.5 64t91.5 25.5q46 0 70 -23t24 -55q0 -34 -23 -61t-59 -27q-24 0 -33 18.5t1 37t32 18.5q0 -3 1 -7.5t9 -12t21 -7.5q17 0 28 12.5 t11 28.5q0 29 -20 47.5t-62 18.5q-41 0 -77 -19.5t-57.5 -50.5t-34.5 -68.5t-7.5 -74.5t22.5 -68t56.5 -50.5t93.5 -19.5q81 0 152 33.5t118 88t74 122.5t27 137q0 113 -75 187.5t-224 74.5q-120 0 -222 -48.5t-167.5 -126.5t-102.5 -172.5t-37 -188.5q0 -116 55 -206.5 t164 -131.5q-89 46 -136.5 137t-47.5 199q0 89 33.5 177t94.5 161t157 118.5t209 45.5q5 0 5 -4.5t-5 -4.5q-89 0 -168 -29t-136 -78.5t-99 -113t-62.5 -133.5t-20.5 -139q0 -72 22.5 -137t66 -116t112 -81t154.5 -31q96 0 187 33t161.5 82.5t146 131t129.5 153.5t123 176 q-95 12 -153 75t-66 152q-8 -4 -15.5 -1.5t-13.5 16.5t-6 34q0 47 20 99.5t66.5 107t112.5 97.5t168 70.5t223 27.5l78 4q60 78 102 78q11 0 18 -6t7 -15q0 -24 -32 -42.5t-91 -27.5l-23 -30q37 6 78 6q9 0 32.5 -1t39.5 -1q96 49 196 49q38 0 46 -21t-31 -35 q-33 -12 -86 -12q-29 0 -115 4q-45 -26 -89.5 -67t-79 -82t-78 -106.5t-71 -110.5t-75.5 -126t-74 -124q62 6 114 26.5t85 48t56 60t32.5 61t9.5 52.5q0 27 -10 41t-20 14h-11q0 12 9.5 21.5t21.5 9.5q32 0 35 -48q5 -68 -47 -146q-83 -122 -241 -149q-20 -3 -42 -5 q-44 -71 -82 -127.5t-89 -119.5t-100.5 -110.5t-112.5 -92t-129 -73.5t-146.5 -46t-167.5 -17q-103 0 -183 30.5t-128.5 84t-73.5 120.5t-25 144zM948 801q0 -98 58 -167t159 -79q19 29 69 104.5t73 109t67.5 96.5t74.5 98t71 80t80.5 76t80.5 55q-18 2 -51 2q-50 0 -88 -9 q-24 -33 -37.5 -50t-33.5 -33.5t-35 -16.5q-12 0 -19.5 7.5t-7.5 19.5q0 24 35.5 49t93.5 37l23 32q-23 -4 -68 -4q-243 0 -394 -115.5t-151 -291.5zM1421 1094q0 -15 15 -15q18 0 38.5 21t51.5 63q-49 -12 -77 -31t-28 -38zM1585 1227q48 7 74.5 22t26.5 33q0 10 -13 10 q-37 0 -88 -65zM1704 1392q12 39 38 50l11 2q12 0 20.5 -7t8.5 -16q0 -16 -28.5 -38.5t-43.5 -22.5q-16 0 -6 32zM1735 1184q74 -4 92 -4q89 0 101 24q7 12 -14 17q-7 2 -16 2q-87 0 -163 -39zM1864 1392q12 39 38 50l11 2q12 0 20.5 -7t8.5 -16q0 -16 -28.5 -38.5 t-43.5 -22.5q-16 0 -6 32z" />
<glyph unicode="&#xd0;" horiz-adv-x="1468" d="M4 88q22 33 84 33q66 0 130 -23t143 -64.5t122 -58.5q82 17 157.5 54.5t133.5 82t121.5 115t107.5 127.5t105 144l-125 -2q-7 0 -9.5 5t1 10t10.5 5l133 -2q233 331 361 467q-49 143 -176.5 228t-331.5 85q-306 0 -542 -199q-176 -147 -259 -355q-77 -193 -37 -341 q38 -143 173 -181q44 -13 97 -13q102 0 199 39t170.5 103.5t129.5 145t85 167.5t29 167q0 101 -48 160.5t-141 59.5q-169 0 -305 -145q-107 -114 -143 -259q-35 -137 19 -209q37 -49 110 -49q43 0 96 31q11 5 13 -2q0 -4 -3 -6q-53 -35 -116 -35q-123 0 -158 105 q-34 102 25 244q63 152 189 247q123 92 265 92q103 0 156 -63t53 -171q0 -67 -21 -140t-58.5 -144t-95.5 -135.5t-127 -113t-157 -77.5t-182 -29q-192 0 -273 139q-73 127 -30 318q46 202 202 370q197 214 485 272q97 20 200 20q205 0 335.5 -85t184.5 -229q235 242 442 242 q148 0 200 -113t-17 -226.5t-213 -113.5q-104 0 -152 71t-25 155q3 11 10 9q5 -4 3 -11q-22 -80 22 -145.5t142 -65.5q138 0 202.5 107t15.5 214t-188 107q-62 0 -119 -21t-110 -62t-98.5 -91t-96.5 -119q13 -69 14.5 -142.5t-16 -149.5t-45.5 -150.5t-73.5 -145t-99 -133 t-123.5 -114.5t-146 -89.5t-167 -58.5t-187 -21q-87 0 -183 35q-67 -12 -143 -12q-234 0 -316 69q-43 36 -20 70zM14 77q-13 -32 38 -63q88 -53 288 -53q56 0 121 10q-38 16 -115 56.5t-136.5 61t-121.5 20.5q-60 0 -74 -32zM508 -33q82 -28 158 -28q92 0 180.5 20 t162.5 56.5t142 87t121 111t98 128.5t73 140t46.5 146t18.5 146t-11 139q-37 -51 -128.5 -189t-149.5 -212l139 -2v-8l-148 -2q-75 -100 -148 -180t-160.5 -154t-187.5 -125t-206 -74z" />
<glyph unicode="&#xd1;" horiz-adv-x="1869" d="M-24 533q-16 44 16 84q31 38 88 38q65 0 102 -63q7 24 35 24q11 0 20.5 -6.5t12.5 -15.5q71 180 236.5 298t355.5 118q84 0 146 -23.5t97.5 -65.5t52.5 -92t17 -110q0 -131 -46 -249.5t-120 -199.5t-168 -128.5t-190 -47.5q-90 0 -111 48q-13 30 7 50q9 9 22 9 q16 0 23.5 -9t7.5 -20q-3 0 -7.5 -0.5t-12 -7.5t-7.5 -21q0 -19 21.5 -30t56.5 -11q163 0 306.5 131t188.5 332q-45 -119 -137 -204t-170 -85q-25 0 -37 11t-4 24q-16 -2 -47 -2q-123 0 -161 96.5t20 192.5t168 96q65 0 86.5 -46.5t-7.5 -93t-87 -46.5q-16 0 -26.5 11.5 t-10.5 25.5q0 13 9.5 25t27.5 12q0 -4 1.5 -10t10.5 -15.5t24 -9.5q35 0 49 38q16 41 -12 72q-22 25 -65 25q-103 0 -159 -90t-20.5 -180t152.5 -90q170 0 291 117t121 280q0 58 -16 106t-49.5 87.5t-94 62t-141.5 22.5q-159 0 -302 -83.5t-230 -225.5t-87 -303 q0 -207 137 -319q-46 45 -72.5 109t-31.5 134.5t10 147t47 148t84 136t117 112.5t150.5 76.5t179.5 28.5q3 0 4 -2t0 -4t-4 -2q-233 0 -396 -166q-131 -131 -170 -316q-39 -181 31 -314q76 -148 257 -166q23 -2 48 -2q106 0 206.5 31t182.5 82.5t163 125t144.5 150.5 t131 167.5t118.5 167.5t110 160t104 136v4q0 123 -58.5 199.5t-130.5 76.5q-17 0 -30 -3.5t-20 -8t-11.5 -9.5t-5.5 -9l-2 -3q-18 0 -26 15.5t-0.5 31t26.5 15.5q97 0 161 -51t92 -138q7 12 26 6t32 -30q-23 126 -102.5 198t-211.5 72q-167 0 -275 -124q-85 -98 -93 -223 q-8 -121 64 -186q52 -46 134 -46q94 0 136 69q28 47 13 86q-10 24 -34 25q-14 0 -22.5 -6.5t-10.5 -13.5l-2 -7q-19 0 -27 15t0 30t27 15q61 0 78 -53q18 -52 -19 -106q-46 -67 -139 -67q-131 0 -184 105q-48 94 -11 220q38 133 147 211q95 68 218 68q142 0 226.5 -82.5 t103.5 -222.5q90 84 172 84q47 0 63 -31.5t-5 -63.5t-64 -32q-18 0 -25.5 15t0.5 30t27 15q0 -3 0.5 -7t7.5 -11t19 -7q26 0 33 26q9 30 -18 47q-15 9 -38 9q-79 0 -170 -88l4 -70q0 -89 -29.5 -195.5t-73.5 -207t-89 -198.5t-82.5 -201.5t-48.5 -184.5h6q26 96 119 236 t220.5 286t281.5 292.5t299.5 260t277.5 185t213 71.5q107 0 141 -78.5t-15 -156.5t-142 -78q-64 0 -95.5 28.5t-31.5 65.5q0 17 8 24t16 1q6 39 37 66.5t76 27.5q15 0 25 -9t10 -22q0 -10 -9 -19t-20 -9q-10 26 -43 26q-38 0 -58.5 -42.5t1 -85t84.5 -42.5q84 0 129.5 73 t16 145.5t-129.5 72.5q-82 0 -221.5 -78.5t-293.5 -201.5t-314 -279.5t-287 -308t-208 -291.5t-81 -225q0 -65 28.5 -111.5t67.5 -46.5q4 0 5 -2.5t-0.5 -5t-4.5 -2.5q-66 0 -102.5 76t-36.5 167q0 95 43.5 230t95 250t95 251.5t43.5 233.5q-43 -53 -101.5 -136.5 t-109 -159.5t-118 -166.5t-131 -165.5t-145 -148t-163.5 -123t-183 -80.5t-207 -30.5q-92 0 -164 21t-116.5 55.5t-77 81t-48.5 95.5t-29 101t-19 96t-17.5 81.5t-27.5 56.5q12 -24 -3.5 -51t-52.5 -27q-64 0 -83 50zM5 591q-20 -41 3 -73q17 -24 51 -24q37 0 46 27 q6 17 -6 21q-1 1 -3 1q-7 0 -10.5 -5.5t-3.5 -10.5v-5q-19 0 -26.5 15t0.5 30t26 15q28 0 46 -24t27 -64t17 -90t22.5 -105.5t36.5 -106.5t65.5 -96t104.5 -71q-93 51 -141.5 143t-48.5 217q0 31 -4 65.5t-15 81.5t-38 77t-66 30q-60 0 -83 -48zM2114 1360q2 3 5.5 9 t14.5 21t23 26t30.5 20.5t36.5 9.5q26 0 58 -22.5t57 -22.5q22 0 39.5 11.5t24.5 22.5l7 11h11q-2 -3 -5 -9t-13 -20.5t-21 -25.5t-28 -20t-34 -9q-28 0 -63 26.5t-57 26.5q-21 0 -39.5 -13.5t-26.5 -27.5l-8 -14h-12z" />
<glyph unicode="&#xd2;" horiz-adv-x="1366" d="M0 27q0 89 59.5 156t151.5 67q19 0 27 -15t0.5 -30t-25.5 -15q0 1 -1 3.5t-5.5 8t-10 10t-16.5 8t-24 3.5q-54 0 -101 -60t-47 -136q0 -71 46 -127.5t139 -79.5q-87 50 -87 172q0 26 15.5 42.5t30.5 16.5q20 0 20 -20v-4q40 43 100 43q54 0 73 -39t-4.5 -78t-72.5 -39 q-23 0 -32.5 18.5t0 37t32.5 18.5q1 0 0 -3.5t1 -9.5t4.5 -11t10 -9t17.5 -4q19 0 29 14t10 31q0 28 -17.5 44.5t-50.5 16.5q-71 0 -109 -59q-35 -55 -11 -111q31 -73 140 -81q12 -1 25 -1q166 0 281 183q-99 12 -155 75.5t-56 178.5q0 103 48 221.5t127 227t185.5 209.5 t218.5 175.5t230.5 119t218.5 44.5q78 0 135.5 -27t84.5 -69.5t34 -94t-7.5 -100t-49.5 -89t-84 -58.5q-15 -90 -70.5 -200t-143.5 -217.5t-191.5 -197.5t-225.5 -145.5t-235 -56.5q-143 -191 -345 -191q-83 0 -146.5 20.5t-99.5 55t-53.5 74.5t-17.5 84zM465 193 q0 -164 143 -191q37 62 74.5 150t66.5 172.5t64.5 180t69.5 178t81 159t100 131t126 87t158 32.5v-9q-84 0 -155.5 -32t-123.5 -85.5t-99 -129t-80 -156.5t-68.5 -175.5t-64 -179t-65.5 -172.5t-74 -151l25 -2q46 67 91 165.5t79.5 193t73.5 196.5t82.5 186.5t96 153.5 t125 108t159.5 39q92 0 138 -51t46 -133l-2 -41q44 19 75.5 57.5t44.5 83.5t5.5 93t-34 87t-80.5 64t-128 25q-99 0 -211.5 -48t-216 -127.5t-200 -186.5t-167 -220t-113 -232t-42.5 -220zM494 -147q74 46 139 133l-23 2q-55 -88 -116 -135zM672 -2q106 1 223.5 56 t218 142.5t187 192.5t143 212.5t72.5 195.5q-40 -9 -66 -9q-56 0 -97 22.5t-58.5 57t-20.5 76.5t16 80q-93 -19 -167 -99t-127.5 -198.5t-98.5 -241.5t-104.5 -261.5t-120.5 -225.5zM1286 950.5q0 -39.5 16 -73t54.5 -55t93.5 -21.5q35 0 68 10q4 32 4 47q0 76 -42.5 124 t-129.5 48q-23 0 -47 -4q-17 -36 -17 -75.5zM1335 1501q0 10 6.5 17.5t12.5 7.5q15 0 30.5 -23t27 -51t29.5 -51t36 -23q-3 -8 -9 -8q-26 0 -79.5 50t-53.5 81z" />
<glyph unicode="&#xd3;" horiz-adv-x="1366" d="M0 27q0 89 59.5 156t151.5 67q19 0 27 -15t0.5 -30t-25.5 -15q0 1 -1 3.5t-5.5 8t-10 10t-16.5 8t-24 3.5q-54 0 -101 -60t-47 -136q0 -71 46 -127.5t139 -79.5q-87 50 -87 172q0 26 15.5 42.5t30.5 16.5q20 0 20 -20v-4q40 43 100 43q54 0 73 -39t-4.5 -78t-72.5 -39 q-23 0 -32.5 18.5t0 37t32.5 18.5q1 0 0 -3.5t1 -9.5t4.5 -11t10 -9t17.5 -4q19 0 29 14t10 31q0 28 -17.5 44.5t-50.5 16.5q-71 0 -109 -59q-35 -55 -11 -111q31 -73 140 -81q12 -1 25 -1q166 0 281 183q-99 12 -155 75.5t-56 178.5q0 103 48 221.5t127 227t185.5 209.5 t218.5 175.5t230.5 119t218.5 44.5q78 0 135.5 -27t84.5 -69.5t34 -94t-7.5 -100t-49.5 -89t-84 -58.5q-15 -90 -70.5 -200t-143.5 -217.5t-191.5 -197.5t-225.5 -145.5t-235 -56.5q-143 -191 -345 -191q-83 0 -146.5 20.5t-99.5 55t-53.5 74.5t-17.5 84zM465 193 q0 -164 143 -191q37 62 74.5 150t66.5 172.5t64.5 180t69.5 178t81 159t100 131t126 87t158 32.5v-9q-84 0 -155.5 -32t-123.5 -85.5t-99 -129t-80 -156.5t-68.5 -175.5t-64 -179t-65.5 -172.5t-74 -151l25 -2q46 67 91 165.5t79.5 193t73.5 196.5t82.5 186.5t96 153.5 t125 108t159.5 39q92 0 138 -51t46 -133l-2 -41q44 19 75.5 57.5t44.5 83.5t5.5 93t-34 87t-80.5 64t-128 25q-99 0 -211.5 -48t-216 -127.5t-200 -186.5t-167 -220t-113 -232t-42.5 -220zM494 -147q74 46 139 133l-23 2q-55 -88 -116 -135zM672 -2q106 1 223.5 56 t218 142.5t187 192.5t143 212.5t72.5 195.5q-40 -9 -66 -9q-56 0 -97 22.5t-58.5 57t-20.5 76.5t16 80q-93 -19 -167 -99t-127.5 -198.5t-98.5 -241.5t-104.5 -261.5t-120.5 -225.5zM1286 950.5q0 -39.5 16 -73t54.5 -55t93.5 -21.5q35 0 68 10q4 32 4 47q0 76 -42.5 124 t-129.5 48q-23 0 -47 -4q-17 -36 -17 -75.5zM1393 1376v2q34 0 69.5 33t64 65.5t44.5 32.5q20 0 20 -20q0 -32 -71 -76.5t-119 -44.5q-4 0 -6 2.5t-2 5.5z" />
<glyph unicode="&#xd4;" horiz-adv-x="1366" d="M0 27q0 89 59.5 156t151.5 67q19 0 27 -15t0.5 -30t-25.5 -15q0 1 -1 3.5t-5.5 8t-10 10t-16.5 8t-24 3.5q-54 0 -101 -60t-47 -136q0 -71 46 -127.5t139 -79.5q-87 50 -87 172q0 26 15.5 42.5t30.5 16.5q20 0 20 -20v-4q40 43 100 43q54 0 73 -39t-4.5 -78t-72.5 -39 q-23 0 -32.5 18.5t0 37t32.5 18.5q1 0 0 -3.5t1 -9.5t4.5 -11t10 -9t17.5 -4q19 0 29 14t10 31q0 28 -17.5 44.5t-50.5 16.5q-71 0 -109 -59q-35 -55 -11 -111q31 -73 140 -81q12 -1 25 -1q166 0 281 183q-99 12 -155 75.5t-56 178.5q0 103 48 221.5t127 227t185.5 209.5 t218.5 175.5t230.5 119t218.5 44.5q78 0 135.5 -27t84.5 -69.5t34 -94t-7.5 -100t-49.5 -89t-84 -58.5q-15 -90 -70.5 -200t-143.5 -217.5t-191.5 -197.5t-225.5 -145.5t-235 -56.5q-143 -191 -345 -191q-83 0 -146.5 20.5t-99.5 55t-53.5 74.5t-17.5 84zM465 193 q0 -164 143 -191q37 62 74.5 150t66.5 172.5t64.5 180t69.5 178t81 159t100 131t126 87t158 32.5v-9q-84 0 -155.5 -32t-123.5 -85.5t-99 -129t-80 -156.5t-68.5 -175.5t-64 -179t-65.5 -172.5t-74 -151l25 -2q46 67 91 165.5t79.5 193t73.5 196.5t82.5 186.5t96 153.5 t125 108t159.5 39q92 0 138 -51t46 -133l-2 -41q44 19 75.5 57.5t44.5 83.5t5.5 93t-34 87t-80.5 64t-128 25q-99 0 -211.5 -48t-216 -127.5t-200 -186.5t-167 -220t-113 -232t-42.5 -220zM494 -147q74 46 139 133l-23 2q-55 -88 -116 -135zM672 -2q106 1 223.5 56 t218 142.5t187 192.5t143 212.5t72.5 195.5q-40 -9 -66 -9q-56 0 -97 22.5t-58.5 57t-20.5 76.5t16 80q-93 -19 -167 -99t-127.5 -198.5t-98.5 -241.5t-104.5 -261.5t-120.5 -225.5zM1286 950.5q0 -39.5 16 -73t54.5 -55t93.5 -21.5q35 0 68 10q4 32 4 47q0 76 -42.5 124 t-129.5 48q-23 0 -47 -4q-17 -36 -17 -75.5zM1331 1341q134 95 189 134q4 3 11 3t9 -3l55 -134h-10l-72 86l-172 -86h-10z" />
<glyph unicode="&#xd5;" horiz-adv-x="1366" d="M0 27q0 89 59.5 156t151.5 67q19 0 27 -15t0.5 -30t-25.5 -15q0 1 -1 3.5t-5.5 8t-10 10t-16.5 8t-24 3.5q-54 0 -101 -60t-47 -136q0 -71 46 -127.5t139 -79.5q-87 50 -87 172q0 26 15.5 42.5t30.5 16.5q20 0 20 -20v-4q40 43 100 43q54 0 73 -39t-4.5 -78t-72.5 -39 q-23 0 -32.5 18.5t0 37t32.5 18.5q1 0 0 -3.5t1 -9.5t4.5 -11t10 -9t17.5 -4q19 0 29 14t10 31q0 28 -17.5 44.5t-50.5 16.5q-71 0 -109 -59q-35 -55 -11 -111q31 -73 140 -81q12 -1 25 -1q166 0 281 183q-99 12 -155 75.5t-56 178.5q0 103 48 221.5t127 227t185.5 209.5 t218.5 175.5t230.5 119t218.5 44.5q78 0 135.5 -27t84.5 -69.5t34 -94t-7.5 -100t-49.5 -89t-84 -58.5q-15 -90 -70.5 -200t-143.5 -217.5t-191.5 -197.5t-225.5 -145.5t-235 -56.5q-143 -191 -345 -191q-83 0 -146.5 20.5t-99.5 55t-53.5 74.5t-17.5 84zM465 193 q0 -164 143 -191q37 62 74.5 150t66.5 172.5t64.5 180t69.5 178t81 159t100 131t126 87t158 32.5v-9q-84 0 -155.5 -32t-123.5 -85.5t-99 -129t-80 -156.5t-68.5 -175.5t-64 -179t-65.5 -172.5t-74 -151l25 -2q46 67 91 165.5t79.5 193t73.5 196.5t82.5 186.5t96 153.5 t125 108t159.5 39q92 0 138 -51t46 -133l-2 -41q44 19 75.5 57.5t44.5 83.5t5.5 93t-34 87t-80.5 64t-128 25q-99 0 -211.5 -48t-216 -127.5t-200 -186.5t-167 -220t-113 -232t-42.5 -220zM494 -147q74 46 139 133l-23 2q-55 -88 -116 -135zM672 -2q106 1 223.5 56 t218 142.5t187 192.5t143 212.5t72.5 195.5q-40 -9 -66 -9q-56 0 -97 22.5t-58.5 57t-20.5 76.5t16 80q-93 -19 -167 -99t-127.5 -198.5t-98.5 -241.5t-104.5 -261.5t-120.5 -225.5zM1286 950.5q0 -39.5 16 -73t54.5 -55t93.5 -21.5q35 0 68 10q4 32 4 47q0 76 -42.5 124 t-129.5 48q-23 0 -47 -4q-17 -36 -17 -75.5zM1352 1360q2 3 5.5 9t14.5 21t23 26t30.5 20.5t36.5 9.5q26 0 58 -22.5t57 -22.5q22 0 40 11.5t25 22.5l7 11h10q-2 -3 -5 -9t-13 -20.5t-20.5 -25.5t-27.5 -20t-34 -9q-29 0 -64 26.5t-57 26.5q-21 0 -39.5 -13.5t-26.5 -27.5 l-8 -14h-12z" />
<glyph unicode="&#xd6;" horiz-adv-x="1366" d="M0 27q0 89 59.5 156t151.5 67q19 0 27 -15t0.5 -30t-25.5 -15q0 1 -1 3.5t-5.5 8t-10 10t-16.5 8t-24 3.5q-54 0 -101 -60t-47 -136q0 -71 46 -127.5t139 -79.5q-87 50 -87 172q0 26 15.5 42.5t30.5 16.5q20 0 20 -20v-4q40 43 100 43q54 0 73 -39t-4.5 -78t-72.5 -39 q-23 0 -32.5 18.5t0 37t32.5 18.5q1 0 0 -3.5t1 -9.5t4.5 -11t10 -9t17.5 -4q19 0 29 14t10 31q0 28 -17.5 44.5t-50.5 16.5q-71 0 -109 -59q-35 -55 -11 -111q31 -73 140 -81q12 -1 25 -1q166 0 281 183q-99 12 -155 75.5t-56 178.5q0 103 48 221.5t127 227t185.5 209.5 t218.5 175.5t230.5 119t218.5 44.5q78 0 135.5 -27t84.5 -69.5t34 -94t-7.5 -100t-49.5 -89t-84 -58.5q-15 -90 -70.5 -200t-143.5 -217.5t-191.5 -197.5t-225.5 -145.5t-235 -56.5q-143 -191 -345 -191q-83 0 -146.5 20.5t-99.5 55t-53.5 74.5t-17.5 84zM465 193 q0 -164 143 -191q37 62 74.5 150t66.5 172.5t64.5 180t69.5 178t81 159t100 131t126 87t158 32.5v-9q-84 0 -155.5 -32t-123.5 -85.5t-99 -129t-80 -156.5t-68.5 -175.5t-64 -179t-65.5 -172.5t-74 -151l25 -2q46 67 91 165.5t79.5 193t73.5 196.5t82.5 186.5t96 153.5 t125 108t159.5 39q92 0 138 -51t46 -133l-2 -41q44 19 75.5 57.5t44.5 83.5t5.5 93t-34 87t-80.5 64t-128 25q-99 0 -211.5 -48t-216 -127.5t-200 -186.5t-167 -220t-113 -232t-42.5 -220zM494 -147q74 46 139 133l-23 2q-55 -88 -116 -135zM672 -2q106 1 223.5 56 t218 142.5t187 192.5t143 212.5t72.5 195.5q-40 -9 -66 -9q-56 0 -97 22.5t-58.5 57t-20.5 76.5t16 80q-93 -19 -167 -99t-127.5 -198.5t-98.5 -241.5t-104.5 -261.5t-120.5 -225.5zM1286 950.5q0 -39.5 16 -73t54.5 -55t93.5 -21.5q35 0 68 10q4 32 4 47q0 76 -42.5 124 t-129.5 48q-23 0 -47 -4q-17 -36 -17 -75.5zM1383 1392q12 39 38 50l11 2q12 0 20 -7t8 -16q0 -16 -28 -38.5t-43 -22.5q-16 0 -6 32zM1542 1392q12 39 38 50l11 2q12 0 20.5 -7t8.5 -16q0 -16 -28.5 -38.5t-43.5 -22.5q-16 0 -6 32z" />
<glyph unicode="&#xd7;" horiz-adv-x="466" d="M-8 35l205 198l-70 175q-4 9 2.5 15t16 5t12.5 -10l57 -168l180 176q8 7 16.5 2.5t10 -12.5t-5.5 -15l-193 -174l60 -174l-11 -6l-67 164l-205 -184z" />
<glyph unicode="&#xd8;" horiz-adv-x="966" d="M0 240q0 103 48 221.5t127 227t185.5 209.5t218.5 175.5t230.5 119t218.5 44.5h10l103 145q10 13 27 6q11 -6 6 -16l-97 -137q77 -10 124.5 -55t57 -104t-12 -124t-72.5 -116l-13 8q50 49 71.5 111.5t12.5 118.5t-55 98t-123 51l-860 -1219q25 -8 74 -8q237 0 463 225 q173 172 280 410q95 212 81 347q-15 116 -108 118l11 16q111 0 130 -120q20 -135 -75 -348q-104 -233 -281 -411q-226 -228 -466 -249q-22 -2 -44 -2l-75 6l-131 -187h-21l131 191q-176 44 -176 248zM78 190q0 -143 110 -182l842 1217h-2q-99 0 -211.5 -48t-216 -127.5 t-200 -186t-167 -220t-113 -233t-42.5 -220.5z" />
<glyph unicode="&#xd9;" horiz-adv-x="1251" d="M13 840q36 178 166 313q165 171 406 185q20 1 40 1q170 0 284.5 -102.5t114.5 -271.5q0 -87 -26.5 -174.5t-68.5 -159t-92.5 -139.5t-101.5 -126.5t-93 -109t-68.5 -97.5t-26.5 -83q0 -49 65 -49q128 0 346 178q69 150 166.5 294.5t180 229t120.5 84.5q21 0 21 -25 q0 -60 -131.5 -232t-298.5 -320q-152 -290 -152 -449q0 -132 74 -190q-7 42 -5 86.5t22 87.5t49 77t75.5 55t102.5 21q82 0 108 -74q24 -72 -18 -159q-46 -95 -138 -129q-40 -15 -85 -15q-52 0 -97 25q20 -62 70.5 -99.5t126.5 -37.5q70 0 128 27t92 69.5t52.5 89t18.5 90.5 q0 27 -9 51.5t-32 24.5q-13 0 -21 -6.5t-10 -12.5l-2 -6q-18 0 -25.5 15t0 30t25.5 15q40 0 61 -31t21 -80q0 -45 -19 -93t-54 -91.5t-94.5 -71.5t-131.5 -28q-81 0 -133 41t-74 108q-94 63 -94 211q0 168 98 389q-223 -176 -379 -176q-94 0 -94 80q0 46 28 100.5t73 110 t99.5 116.5t109 129.5t99.5 139t73 154.5t28 167q0 148 -102 239t-256 91q-247 0 -420 -166q-133 -127 -175 -303q-40 -170 26 -291q73 -135 247 -143h21q180 0 304 136q97 106 117 244q19 133 -48 209q-53 60 -148 60q-55 0 -104.5 -24t-83.5 -61t-56.5 -83.5t-29 -91.5 t4 -84t37.5 -61q-21 29 -22.5 76t17 97t49.5 94t81 72.5t107 28.5q3 0 4 -2t0 -4t-4 -2q-107 0 -182 -101q-61 -81 -63 -171q-2 -85 55 -107q15 -6 34 -6q76 0 110 59q21 38 8 61q-6 8 -15 9q-12 0 -19 -7t-9 -15l-1 -7q-16 0 -26.5 11.5t-10.5 25.5t10.5 25.5t26.5 11.5 q48 0 59 -46q12 -47 -25 -92q-39 -48 -108 -48q-52 0 -85.5 17t-48 45t-21.5 56t-14 58.5t-17 44.5q5 -23 -9.5 -42t-45.5 -19q-48 0 -63.5 34.5t8 68.5t69.5 34q49 0 74 -31q7 18 26 18q17 0 23 -16q35 80 102.5 133t157.5 53q136 0 188 -109q48 -101 7 -239 q-44 -145 -160 -236q-113 -89 -260 -89q-189 0 -272 136q-73 120 -39 292zM107 876q-15 -38 8 -62q14 -15 37 -15q35 0 43 23q3 15 -11 18q-7 0 -10.5 -5t-3.5 -9v-5q-19 0 -26.5 15t0.5 30t26 15h4q29 -2 44 -28t19 -59t19.5 -71t44.5 -57q-39 39 -39 110q0 65 -23.5 103.5 t-64.5 38.5q-50 0 -67 -42zM946 -408q37 -32 103 -32q116 0 187 93q56 74 50 156q-5 77 -66 97q-17 6 -38 6q-80 0 -119 -51.5t-39 -110.5q0 -47 29 -47q11 0 18 6.5t9 13.5l1 7q19 0 26.5 -15t-0.5 -30t-26 -15q-29 0 -46.5 18.5t-22.5 49.5q-8 -2 -15.5 7.5t-7.5 25.5 q0 50 45 92q-58 -46 -81 -121.5t-7 -149.5zM1034 270q157 144 278.5 300.5t121.5 213.5q0 13 -11 13q-34 0 -158.5 -166t-230.5 -361zM1167 1180q0 10 6 17t13 7q15 0 30.5 -23t27 -50.5t29.5 -50.5t36 -23q-3 -8 -9 -8q-26 0 -79.5 50t-53.5 81z" />
<glyph unicode="&#xda;" horiz-adv-x="1251" d="M13 840q36 178 166 313q165 171 406 185q20 1 40 1q170 0 284.5 -102.5t114.5 -271.5q0 -87 -26.5 -174.5t-68.5 -159t-92.5 -139.5t-101.5 -126.5t-93 -109t-68.5 -97.5t-26.5 -83q0 -49 65 -49q128 0 346 178q69 150 166.5 294.5t180 229t120.5 84.5q21 0 21 -25 q0 -60 -131.5 -232t-298.5 -320q-152 -290 -152 -449q0 -132 74 -190q-7 42 -5 86.5t22 87.5t49 77t75.5 55t102.5 21q82 0 108 -74q24 -72 -18 -159q-46 -95 -138 -129q-40 -15 -85 -15q-52 0 -97 25q20 -62 70.5 -99.5t126.5 -37.5q70 0 128 27t92 69.5t52.5 89t18.5 90.5 q0 27 -9 51.5t-32 24.5q-13 0 -21 -6.5t-10 -12.5l-2 -6q-18 0 -25.5 15t0 30t25.5 15q40 0 61 -31t21 -80q0 -45 -19 -93t-54 -91.5t-94.5 -71.5t-131.5 -28q-81 0 -133 41t-74 108q-94 63 -94 211q0 168 98 389q-223 -176 -379 -176q-94 0 -94 80q0 46 28 100.5t73 110 t99.5 116.5t109 129.5t99.5 139t73 154.5t28 167q0 148 -102 239t-256 91q-247 0 -420 -166q-133 -127 -175 -303q-40 -170 26 -291q73 -135 247 -143h21q180 0 304 136q97 106 117 244q19 133 -48 209q-53 60 -148 60q-55 0 -104.5 -24t-83.5 -61t-56.5 -83.5t-29 -91.5 t4 -84t37.5 -61q-21 29 -22.5 76t17 97t49.5 94t81 72.5t107 28.5q3 0 4 -2t0 -4t-4 -2q-107 0 -182 -101q-61 -81 -63 -171q-2 -85 55 -107q15 -6 34 -6q76 0 110 59q21 38 8 61q-6 8 -15 9q-12 0 -19 -7t-9 -15l-1 -7q-16 0 -26.5 11.5t-10.5 25.5t10.5 25.5t26.5 11.5 q48 0 59 -46q12 -47 -25 -92q-39 -48 -108 -48q-52 0 -85.5 17t-48 45t-21.5 56t-14 58.5t-17 44.5q5 -23 -9.5 -42t-45.5 -19q-48 0 -63.5 34.5t8 68.5t69.5 34q49 0 74 -31q7 18 26 18q17 0 23 -16q35 80 102.5 133t157.5 53q136 0 188 -109q48 -101 7 -239 q-44 -145 -160 -236q-113 -89 -260 -89q-189 0 -272 136q-73 120 -39 292zM107 876q-15 -38 8 -62q14 -15 37 -15q35 0 43 23q3 15 -11 18q-7 0 -10.5 -5t-3.5 -9v-5q-19 0 -26.5 15t0.5 30t26 15h4q29 -2 44 -28t19 -59t19.5 -71t44.5 -57q-39 39 -39 110q0 65 -23.5 103.5 t-64.5 38.5q-50 0 -67 -42zM946 -408q37 -32 103 -32q116 0 187 93q56 74 50 156q-5 77 -66 97q-17 6 -38 6q-80 0 -119 -51.5t-39 -110.5q0 -47 29 -47q11 0 18 6.5t9 13.5l1 7q19 0 26.5 -15t-0.5 -30t-26 -15q-29 0 -46.5 18.5t-22.5 49.5q-8 -2 -15.5 7.5t-7.5 25.5 q0 50 45 92q-58 -46 -81 -121.5t-7 -149.5zM1034 270q157 144 278.5 300.5t121.5 213.5q0 13 -11 13q-34 0 -158.5 -166t-230.5 -361zM1200 1060v3q26 0 54.5 20.5t48.5 45t41 45t34 20.5q21 0 21 -20q0 -32 -71.5 -76.5t-119.5 -44.5q-4 0 -6 2.5t-2 4.5z" />
<glyph unicode="&#xdb;" horiz-adv-x="1251" d="M13 840q36 178 166 313q165 171 406 185q20 1 40 1q170 0 284.5 -102.5t114.5 -271.5q0 -87 -26.5 -174.5t-68.5 -159t-92.5 -139.5t-101.5 -126.5t-93 -109t-68.5 -97.5t-26.5 -83q0 -49 65 -49q128 0 346 178q69 150 166.5 294.5t180 229t120.5 84.5q21 0 21 -25 q0 -60 -131.5 -232t-298.5 -320q-152 -290 -152 -449q0 -132 74 -190q-7 42 -5 86.5t22 87.5t49 77t75.5 55t102.5 21q82 0 108 -74q24 -72 -18 -159q-46 -95 -138 -129q-40 -15 -85 -15q-52 0 -97 25q20 -62 70.5 -99.5t126.5 -37.5q70 0 128 27t92 69.5t52.5 89t18.5 90.5 q0 27 -9 51.5t-32 24.5q-13 0 -21 -6.5t-10 -12.5l-2 -6q-18 0 -25.5 15t0 30t25.5 15q40 0 61 -31t21 -80q0 -45 -19 -93t-54 -91.5t-94.5 -71.5t-131.5 -28q-81 0 -133 41t-74 108q-94 63 -94 211q0 168 98 389q-223 -176 -379 -176q-94 0 -94 80q0 46 28 100.5t73 110 t99.5 116.5t109 129.5t99.5 139t73 154.5t28 167q0 148 -102 239t-256 91q-247 0 -420 -166q-133 -127 -175 -303q-40 -170 26 -291q73 -135 247 -143h21q180 0 304 136q97 106 117 244q19 133 -48 209q-53 60 -148 60q-55 0 -104.5 -24t-83.5 -61t-56.5 -83.5t-29 -91.5 t4 -84t37.5 -61q-21 29 -22.5 76t17 97t49.5 94t81 72.5t107 28.5q3 0 4 -2t0 -4t-4 -2q-107 0 -182 -101q-61 -81 -63 -171q-2 -85 55 -107q15 -6 34 -6q76 0 110 59q21 38 8 61q-6 8 -15 9q-12 0 -19 -7t-9 -15l-1 -7q-16 0 -26.5 11.5t-10.5 25.5t10.5 25.5t26.5 11.5 q48 0 59 -46q12 -47 -25 -92q-39 -48 -108 -48q-52 0 -85.5 17t-48 45t-21.5 56t-14 58.5t-17 44.5q5 -23 -9.5 -42t-45.5 -19q-48 0 -63.5 34.5t8 68.5t69.5 34q49 0 74 -31q7 18 26 18q17 0 23 -16q35 80 102.5 133t157.5 53q136 0 188 -109q48 -101 7 -239 q-44 -145 -160 -236q-113 -89 -260 -89q-189 0 -272 136q-73 120 -39 292zM107 876q-15 -38 8 -62q14 -15 37 -15q35 0 43 23q3 15 -11 18q-7 0 -10.5 -5t-3.5 -9v-5q-19 0 -26.5 15t0.5 30t26 15h4q29 -2 44 -28t19 -59t19.5 -71t44.5 -57q-39 39 -39 110q0 65 -23.5 103.5 t-64.5 38.5q-50 0 -67 -42zM946 -408q37 -32 103 -32q116 0 187 93q56 74 50 156q-5 77 -66 97q-17 6 -38 6q-80 0 -119 -51.5t-39 -110.5q0 -47 29 -47q11 0 18 6.5t9 13.5l1 7q19 0 26.5 -15t-0.5 -30t-26 -15q-29 0 -46.5 18.5t-22.5 49.5q-8 -2 -15.5 7.5t-7.5 25.5 q0 50 45 92q-58 -46 -81 -121.5t-7 -149.5zM1034 270q157 144 278.5 300.5t121.5 213.5q0 13 -11 13q-34 0 -158.5 -166t-230.5 -361zM1137 1059q133 94 188 133q5 3 12 3t9 -3l55 -133h-10l-72 86l-172 -86h-10z" />
<glyph unicode="&#xdc;" horiz-adv-x="1251" d="M13 840q36 178 166 313q165 171 406 185q20 1 40 1q170 0 284.5 -102.5t114.5 -271.5q0 -87 -26.5 -174.5t-68.5 -159t-92.5 -139.5t-101.5 -126.5t-93 -109t-68.5 -97.5t-26.5 -83q0 -49 65 -49q128 0 346 178q69 150 166.5 294.5t180 229t120.5 84.5q21 0 21 -25 q0 -60 -131.5 -232t-298.5 -320q-152 -290 -152 -449q0 -132 74 -190q-7 42 -5 86.5t22 87.5t49 77t75.5 55t102.5 21q82 0 108 -74q24 -72 -18 -159q-46 -95 -138 -129q-40 -15 -85 -15q-52 0 -97 25q20 -62 70.5 -99.5t126.5 -37.5q70 0 128 27t92 69.5t52.5 89t18.5 90.5 q0 27 -9 51.5t-32 24.5q-13 0 -21 -6.5t-10 -12.5l-2 -6q-18 0 -25.5 15t0 30t25.5 15q40 0 61 -31t21 -80q0 -45 -19 -93t-54 -91.5t-94.5 -71.5t-131.5 -28q-81 0 -133 41t-74 108q-94 63 -94 211q0 168 98 389q-223 -176 -379 -176q-94 0 -94 80q0 46 28 100.5t73 110 t99.5 116.5t109 129.5t99.5 139t73 154.5t28 167q0 148 -102 239t-256 91q-247 0 -420 -166q-133 -127 -175 -303q-40 -170 26 -291q73 -135 247 -143h21q180 0 304 136q97 106 117 244q19 133 -48 209q-53 60 -148 60q-55 0 -104.5 -24t-83.5 -61t-56.5 -83.5t-29 -91.5 t4 -84t37.5 -61q-21 29 -22.5 76t17 97t49.5 94t81 72.5t107 28.5q3 0 4 -2t0 -4t-4 -2q-107 0 -182 -101q-61 -81 -63 -171q-2 -85 55 -107q15 -6 34 -6q76 0 110 59q21 38 8 61q-6 8 -15 9q-12 0 -19 -7t-9 -15l-1 -7q-16 0 -26.5 11.5t-10.5 25.5t10.5 25.5t26.5 11.5 q48 0 59 -46q12 -47 -25 -92q-39 -48 -108 -48q-52 0 -85.5 17t-48 45t-21.5 56t-14 58.5t-17 44.5q5 -23 -9.5 -42t-45.5 -19q-48 0 -63.5 34.5t8 68.5t69.5 34q49 0 74 -31q7 18 26 18q17 0 23 -16q35 80 102.5 133t157.5 53q136 0 188 -109q48 -101 7 -239 q-44 -145 -160 -236q-113 -89 -260 -89q-189 0 -272 136q-73 120 -39 292zM107 876q-15 -38 8 -62q14 -15 37 -15q35 0 43 23q3 15 -11 18q-7 0 -10.5 -5t-3.5 -9v-5q-19 0 -26.5 15t0.5 30t26 15h4q29 -2 44 -28t19 -59t19.5 -71t44.5 -57q-39 39 -39 110q0 65 -23.5 103.5 t-64.5 38.5q-50 0 -67 -42zM946 -408q37 -32 103 -32q116 0 187 93q56 74 50 156q-5 77 -66 97q-17 6 -38 6q-80 0 -119 -51.5t-39 -110.5q0 -47 29 -47q11 0 18 6.5t9 13.5l1 7q19 0 26.5 -15t-0.5 -30t-26 -15q-29 0 -46.5 18.5t-22.5 49.5q-8 -2 -15.5 7.5t-7.5 25.5 q0 50 45 92q-58 -46 -81 -121.5t-7 -149.5zM1034 270q157 144 278.5 300.5t121.5 213.5q0 13 -11 13q-34 0 -158.5 -166t-230.5 -361zM1184 1095q12 39 38 50l11 2q12 0 20.5 -7t8.5 -16q0 -16 -28.5 -38.5t-43.5 -22.5q-16 0 -6 32zM1344 1095q12 39 38 50l11 2q12 0 20 -7 t8 -16q0 -16 -28 -38.5t-43 -22.5q-16 0 -6 32z" />
<glyph unicode="&#xdd;" horiz-adv-x="1492" d="M-221 -344q0 97 38 193.5t105.5 177t172.5 130.5t227 50q154 0 232.5 -78.5t78.5 -196.5q0 -153 -62.5 -280.5t-164.5 -198.5t-218 -71q-91 0 -111 49q-13 29 8 48q9 9 21 9q16 0 23.5 -9t7.5 -20h-7.5t-11.5 -7t-7 -21q0 -19 21 -30t56 -11q138 0 252.5 105t157.5 269 q-47 -117 -142.5 -193.5t-189.5 -76.5q-26 0 -43.5 8.5t-19 19t5.5 19.5q-56 8 -92.5 39t-48 72.5t-4.5 87.5t31 84.5t65.5 64t91.5 25.5q47 0 71.5 -23.5t24.5 -56.5q0 -34 -23.5 -61t-60.5 -27q-23 0 -31.5 18.5t1 37t30.5 18.5q0 -3 1 -7.5t9 -12t21 -7.5q17 0 30 13 t13 28q0 29 -21.5 49.5t-64.5 20.5q-41 0 -77.5 -19.5t-58 -51t-34.5 -69.5t-7.5 -75.5t23 -69t56.5 -51t94 -19.5q89 0 163 37.5t118 96t68 123.5t24 126q0 113 -75 188t-224 75q-120 0 -222.5 -48.5t-169 -126.5t-103.5 -173t-36 -191q0 -113 55 -203t162 -133 q-88 48 -135 138t-47 196q0 71 20.5 142t63 135.5t100.5 114.5t139 80t173 30q4 0 4 -4.5t-4 -4.5q-111 0 -205 -44.5t-154.5 -116t-94.5 -158.5t-34 -174q0 -73 23 -138.5t66 -116.5t112 -80.5t155 -29.5q89 0 178 28t167 74.5t157.5 116.5t145.5 144t136 169t125 179 t115 184q-216 -180 -346 -180q-54 0 -89.5 26.5t-35.5 71.5q0 42 31.5 98t82.5 117t112 129t122 141.5t112 147t82.5 154t31.5 153.5q0 116 -75 183t-193 67q-106 0 -200.5 -40t-159 -102.5t-108.5 -141.5t-57 -155t4 -144.5t66 -108.5q-2 25 -2 39q0 75 26.5 154.5 t73 147.5t120.5 111.5t159 43.5q109 0 142 -95q31 -90 -20 -212q-54 -128 -163 -197q-84 -53 -180 -53q-93 0 -146 36q12 -69 49.5 -111t91.5 -42q19 0 30.5 9t13.5 19l2 9q18 0 26 -15t0 -30t-26 -15q-84 0 -134 50.5t-61 132.5q-54 40 -75.5 110.5t-10 150t55.5 162.5 t110 149t164 108.5t209 42.5q133 0 217 -82t84 -224q0 -93 -40 -194t-100 -184.5t-130.5 -168.5t-130.5 -150t-100 -125.5t-40 -98.5q0 -53 74 -53q125 0 354 198q36 60 82.5 141l77.5 135t68.5 117t65 103t56 76t52.5 52.5t44 16.5q35 0 35 -39q0 -68 -123 -235.5 t-284 -319.5q-58 -109 -109 -197.5t-122.5 -195t-140 -188t-156.5 -162t-177 -133t-196.5 -85t-219.5 -32.5q-103 0 -183.5 30.5t-129.5 84t-73.5 120.5t-24.5 144zM600 637l2 -43q59 -43 148 -43q149 0 258 123q85 97 101 215q16 114 -47 165q-36 29 -91 29 q-99 0 -169.5 -76.5t-70.5 -175.5q0 -53 29 -53q14 0 23 8t11 16l3 7q24 0 33 -18.5t-1 -37t-32 -18.5q-33 0 -52 19t-24 51q-6 -3 -13.5 1.5t-13.5 17t-6 28.5q0 43 34.5 97t90.5 91q-98 -59 -155.5 -174t-57.5 -229zM1333 311q151 147 262 298.5t111 215.5q0 27 -23 27 q-18 0 -38 -13t-43.5 -44t-44 -62t-50.5 -87t-52 -97.5t-59.5 -116t-62.5 -121.5zM1507 1032q26 0 55 20.5t48.5 45t41 45t34.5 20.5q20 0 20 -20q0 -32 -71 -76.5t-119 -44.5q-4 0 -6 2.5t-2 5.5z" />
<glyph unicode="&#xde;" horiz-adv-x="833" d="M-137 -53q0 33 29.5 97.5t89.5 162t106.5 168.5t122.5 184q203 304 367 483q-198 3 -291 117q-64 77 -52 168q11 78 72 109q27 14 60 14q7 0 11 -3.5t4 -6.5l1 -4q-67 0 -100 -65q-35 -70 -5 -151q38 -101 157 -142q66 -23 151 -23h4q216 233 350 233q47 0 50 -38 q5 -47 -54 -101q-103 -93 -294 -106q-5 -1 -9 -1q-35 -43 -71 -91.5t-79 -112t-65 -97t-74 -113t-61 -93.5q-262 -396 -266 -403q-129 -200 -105 -200q17 0 53 44.5t82 117.5t108 166t127.5 190.5t144 190.5t155 166t162 117.5t163.5 44.5q129 0 162 -97q32 -94 -36 -227 q-75 -145 -222 -243q-173 -115 -379 -115q-96 0 -168 37q-4 2 -4.5 5.5t2 5t6.5 -0.5q71 -33 156 -33q207 0 379 157q125 114 178 256q48 128 6 194q-27 42 -88 42q-75 0 -158.5 -45t-159 -119t-153.5 -168.5t-144 -192.5t-129 -192.5t-111 -168.5t-87 -119t-59 -45 q-16 0 -25.5 12t-9.5 35zM643 1057q183 14 281 102q56 49 52 89q-3 28 -36 28q-118 0 -297 -219z" />
<glyph unicode="&#xdf;" horiz-adv-x="518" d="M-762 -299q0 27 19 50.5t43 23.5q13 0 21.5 -9t8.5 -20q0 -13 -9.5 -22t-21 -14t-21 -16.5t-9.5 -27.5q0 -25 31 -43t84 -18q86 0 179 69.5t178 181t172.5 246t175.5 269.5t173.5 246.5t179.5 181t181 69.5q45 0 70.5 -19t25.5 -50q0 -60 -47.5 -107.5t-115.5 -78 t-136.5 -58.5t-116 -63t-47.5 -76q0 -38 45 -121t45 -135q0 -72 -60.5 -121t-135.5 -49q-48 0 -77.5 34.5t-29.5 81.5q0 59 31.5 103.5t66.5 44.5q25 0 25 -23q0 -16 -15 -34t-33 -32.5t-33 -40t-15 -54.5q0 -28 23 -48t50 -20q69 0 106.5 60.5t37.5 136.5q0 41 -22.5 105 t-22.5 102q0 49 44.5 88t107.5 67t126 58.5t107.5 78t44.5 109.5q0 22 -15.5 35.5t-44.5 13.5q-62 0 -127 -43t-125 -116t-123 -168t-126.5 -199.5t-129 -209t-136.5 -199.5t-142.5 -168t-153.5 -116t-165 -43q-75 0 -110.5 33t-35.5 74zM294 14q0 3 3 4q44 17 99.5 71 t88.5 99l33 45h14q-5 -7 -14 -19.5t-36 -46t-53 -61.5t-61.5 -56.5t-66.5 -41.5q-3 -1 -5 1t-2 5z" />
<glyph unicode="&#xe0;" d="M-66 90q0 63 63 140.5t149 130.5t149 53q39 0 39 -35q0 -19 -14.5 -42t-38.5 -40q-5 -3 -8 0q-2 3 1 4q24 16 38 38t14 38q0 24 -25 24q-52 0 -128 -67.5t-131.5 -152t-55.5 -132.5q0 -37 34 -37q44 0 105 53t109.5 116t93 116t59.5 53q27 0 65.5 27t63.5 53l25 27h14 q-12 -12 -33 -33.5t-74 -79.5t-93.5 -108t-73.5 -103.5t-33 -81.5q0 -39 39 -39q25 0 60.5 23t67.5 55.5t61 64.5t46 55l17 23h14q-7 -9 -19 -25t-46.5 -56t-66 -71t-70.5 -56t-66 -25t-43.5 18.5t-16.5 51.5q0 52 47 137h-4q-35 -44 -61.5 -74t-61 -64t-67 -51.5 t-60.5 -17.5q-41 0 -62.5 26t-21.5 64zM283 690q0 10 6 17.5t12 7.5q15 0 30.5 -23t27 -51t29.5 -51t36 -23q-2 -8 -8 -8q-26 0 -79.5 50t-53.5 81z" />
<glyph unicode="&#xe1;" d="M-66 90q0 63 63 140.5t149 130.5t149 53q39 0 39 -35q0 -19 -14.5 -42t-38.5 -40q-5 -3 -8 0q-2 3 1 4q24 16 38 38t14 38q0 24 -25 24q-52 0 -128 -67.5t-131.5 -152t-55.5 -132.5q0 -37 34 -37q44 0 105 53t109.5 116t93 116t59.5 53q27 0 65.5 27t63.5 53l25 27h14 q-12 -12 -33 -33.5t-74 -79.5t-93.5 -108t-73.5 -103.5t-33 -81.5q0 -39 39 -39q25 0 60.5 23t67.5 55.5t61 64.5t46 55l17 23h14q-7 -9 -19 -25t-46.5 -56t-66 -71t-70.5 -56t-66 -25t-43.5 18.5t-16.5 51.5q0 52 47 137h-4q-35 -44 -61.5 -74t-61 -64t-67 -51.5 t-60.5 -17.5q-41 0 -62.5 26t-21.5 64zM385 564v3q26 0 54.5 20.5t48.5 45t41 45t34 20.5q21 0 21 -20q0 -32 -71.5 -76.5t-119.5 -44.5q-4 0 -6 2.5t-2 4.5z" />
<glyph unicode="&#xe2;" d="M-66 90q0 63 63 140.5t149 130.5t149 53q39 0 39 -35q0 -19 -14.5 -42t-38.5 -40q-5 -3 -8 0q-2 3 1 4q24 16 38 38t14 38q0 24 -25 24q-52 0 -128 -67.5t-131.5 -152t-55.5 -132.5q0 -37 34 -37q44 0 105 53t109.5 116t93 116t59.5 53q27 0 65.5 27t63.5 53l25 27h14 q-12 -12 -33 -33.5t-74 -79.5t-93.5 -108t-73.5 -103.5t-33 -81.5q0 -39 39 -39q25 0 60.5 23t67.5 55.5t61 64.5t46 55l17 23h14q-7 -9 -19 -25t-46.5 -56t-66 -71t-70.5 -56t-66 -25t-43.5 18.5t-16.5 51.5q0 52 47 137h-4q-35 -44 -61.5 -74t-61 -64t-67 -51.5 t-60.5 -17.5q-41 0 -62.5 26t-21.5 64zM244 530q133 95 188 134q4 3 12 3t9 -3l55 -134h-10l-72 86l-172 -86h-10z" />
<glyph unicode="&#xe3;" d="M-66 90q0 63 63 140.5t149 130.5t149 53q39 0 39 -35q0 -19 -14.5 -42t-38.5 -40q-5 -3 -8 0q-2 3 1 4q24 16 38 38t14 38q0 24 -25 24q-52 0 -128 -67.5t-131.5 -152t-55.5 -132.5q0 -37 34 -37q44 0 105 53t109.5 116t93 116t59.5 53q27 0 65.5 27t63.5 53l25 27h14 q-12 -12 -33 -33.5t-74 -79.5t-93.5 -108t-73.5 -103.5t-33 -81.5q0 -39 39 -39q25 0 60.5 23t67.5 55.5t61 64.5t46 55l17 23h14q-7 -9 -19 -25t-46.5 -56t-66 -71t-70.5 -56t-66 -25t-43.5 18.5t-16.5 51.5q0 52 47 137h-4q-35 -44 -61.5 -74t-61 -64t-67 -51.5 t-60.5 -17.5q-41 0 -62.5 26t-21.5 64zM244 549q2 3 5.5 9t14.5 21t23 26t30.5 20.5t36.5 9.5q26 0 58 -22.5t57 -22.5q22 0 40 11t25 23l7 11h10q-2 -3 -5 -9t-13 -20.5t-20.5 -25.5t-27.5 -20t-34 -9q-29 0 -64 26.5t-57 26.5q-21 0 -39.5 -14t-26.5 -28l-8 -13h-12z" />
<glyph unicode="&#xe4;" d="M-66 90q0 63 63 140.5t149 130.5t149 53q39 0 39 -35q0 -19 -14.5 -42t-38.5 -40q-5 -3 -8 0q-2 3 1 4q24 16 38 38t14 38q0 24 -25 24q-52 0 -128 -67.5t-131.5 -152t-55.5 -132.5q0 -37 34 -37q44 0 105 53t109.5 116t93 116t59.5 53q27 0 65.5 27t63.5 53l25 27h14 q-12 -12 -33 -33.5t-74 -79.5t-93.5 -108t-73.5 -103.5t-33 -81.5q0 -39 39 -39q25 0 60.5 23t67.5 55.5t61 64.5t46 55l17 23h14q-7 -9 -19 -25t-46.5 -56t-66 -71t-70.5 -56t-66 -25t-43.5 18.5t-16.5 51.5q0 52 47 137h-4q-35 -44 -61.5 -74t-61 -64t-67 -51.5 t-60.5 -17.5q-41 0 -62.5 26t-21.5 64zM285 581q12 39 38 50q5 2 11 2q12 0 20 -7t8 -16q0 -16 -28 -38.5t-43 -22.5q-16 0 -6 32zM445 581q12 39 38 50q5 2 11 2q12 0 20 -7t8 -16q0 -16 -28 -38.5t-43 -22.5q-16 0 -6 32z" />
<glyph unicode="&#xe5;" d="M-66 90q0 63 63 140.5t149 130.5t149 53q39 0 39 -35q0 -19 -14.5 -42t-38.5 -40q-5 -3 -8 0q-2 3 1 4q24 16 38 38t14 38q0 24 -25 24q-52 0 -128 -67.5t-131.5 -152t-55.5 -132.5q0 -37 34 -37q44 0 105 53t109.5 116t93 116t59.5 53q27 0 65.5 27t63.5 53l25 27h14 q-12 -12 -33 -33.5t-74 -79.5t-93.5 -108t-73.5 -103.5t-33 -81.5q0 -39 39 -39q25 0 60.5 23t67.5 55.5t61 64.5t46 55l17 23h14q-7 -9 -19 -25t-46.5 -56t-66 -71t-70.5 -56t-66 -25t-43.5 18.5t-16.5 51.5q0 52 47 137h-4q-35 -44 -61.5 -74t-61 -64t-67 -51.5 t-60.5 -17.5q-41 0 -62.5 26t-21.5 64zM338 639q0 29 20.5 49.5t49.5 20.5q30 0 50.5 -20.5t20.5 -49.5t-20.5 -49.5t-50.5 -20.5q-29 0 -49.5 20.5t-20.5 49.5zM362 639q0 -19 13.5 -32t32.5 -13t32 13t13 32t-13 32t-32 13t-32.5 -13t-13.5 -32z" />
<glyph unicode="&#xe6;" horiz-adv-x="669" d="M-68 90q0 63 63 140.5t149 130.5t149 53q39 0 39 -35q0 -19 -14.5 -42t-38.5 -40q-5 -3 -8 0q-2 3 1 4q24 16 38 38t14 38q0 24 -25 24q-52 0 -128 -67.5t-131.5 -152t-55.5 -132.5q0 -37 34 -37q36 0 83 36t91 87.5t85 103t74.5 87.5t49.5 36q25 0 54 17t45 34l16 17h14 q-18 -17 -34 -35q54 23 94 23q45 0 27 -43q-21 -48 -90 -98q-78 -56 -146 -56h-23q-29 -34 -49 -76.5t-20 -78.5q0 -64 67 -64q38 0 84.5 24t85.5 58t72.5 67.5t52.5 57.5l19 24h14q-7 -10 -20.5 -26.5t-53 -58t-77.5 -73.5t-89 -58.5t-94 -26.5q-76 0 -103 59t13 144h-6 q-152 -193 -238 -193q-41 0 -62.5 26t-21.5 64zM362 229h19q79 0 163 75q58 51 63 85q3 19 -17 19q-37 0 -104.5 -54t-123.5 -125z" />
<glyph unicode="&#xe7;" horiz-adv-x="401" d="M-141 -187q-5 21 12 30q5 3 10 3q8 0 8 -6q-1 -3 -2 -4q-13 0 -15 -15q-3 -20 25 -26l19 -2q70 0 105 50q26 36 9 61q-9 14 -32 14q-15 0 -28.5 -3.5t-23 -7.5t-12.5 -5h-2q-26 0 77 107l3 3h13q-49 -65 -76 -96q28 14 63 14q54 0 62 -38q8 -37 -33 -72q-45 -39 -121 -39 q-54 0 -61 32zM-45 106q0 58 38 118t93.5 103t117 70t109.5 27q52 0 52 -49q0 -45 -40.5 -95.5t-84.5 -50.5q-14 0 -25.5 11t-11.5 24q0 17 11 28t26 11q2 0 6.5 -1t16 -1t22.5 1t24 6t22.5 13t16 23t6.5 35q0 14 -9.5 24.5t-25.5 10.5q-53 0 -129 -61.5t-132 -146 t-56 -143.5q0 -61 66 -61q45 0 95.5 24t91 58t74.5 67.5t53 57.5l19 24h15q-7 -10 -20.5 -26.5t-54.5 -58t-81 -73.5t-95.5 -58.5t-103.5 -26.5q-50 0 -78 31.5t-28 84.5z" />
<glyph unicode="&#xe8;" horiz-adv-x="378" d="M-55 98q0 72 63 148.5t146 124t145 47.5q45 0 27 -43q-21 -48 -90 -98q-78 -56 -146 -56h-22q-70 -90 -70 -155q0 -64 68 -64q38 0 84.5 24t85.5 58t72 67.5t52 57.5l19 24h14q-7 -10 -20.5 -26.5t-53 -58t-77.5 -73.5t-89 -58.5t-94 -26.5q-51 0 -82.5 30t-31.5 78z M72 229h18q79 0 163 75q58 51 63 85q3 19 -17 19q-37 0 -104 -54t-123 -125zM166 690q0 10 6 17.5t12 7.5q15 0 30.5 -23t27 -51t29.5 -51t36 -23q-2 -8 -8 -8q-26 0 -79.5 50t-53.5 81z" />
<glyph unicode="&#xe9;" horiz-adv-x="378" d="M-55 98q0 72 63 148.5t146 124t145 47.5q45 0 27 -43q-21 -48 -90 -98q-78 -56 -146 -56h-22q-70 -90 -70 -155q0 -64 68 -64q38 0 84.5 24t85.5 58t72 67.5t52 57.5l19 24h14q-7 -10 -20.5 -26.5t-53 -58t-77.5 -73.5t-89 -58.5t-94 -26.5q-51 0 -82.5 30t-31.5 78z M72 229h18q79 0 163 75q58 51 63 85q3 19 -17 19q-37 0 -104 -54t-123 -125zM285 564v3q26 0 54.5 20.5t48.5 45t41 45t34 20.5q20 0 20 -20q0 -32 -71 -76.5t-119 -44.5q-4 0 -6 2.5t-2 4.5z" />
</font>
</defs>
</svg>
